<?xml version="1.0"?>
<svg xmlns="http://www.w3.org/2000/svg" version="1.2" baseProfile="tiny" width="800" height="1043" viewBox="0 0 800 1043" stroke-linecap="round" stroke-linejoin="round">
<g id="สิงห์บุรี">
<path d="M 435.61 888.79 431.04 887.36 430.38 887.16 428.69 886.68 427.58 886.3 425.89 885.71 425.11 885.44 424.94 885.38 423.72 884.85 423.57 884.78 422.9 884.43 422.45 884.19 421.84 883.84 421.55 883.64 421.44 883.5 421.39 883.35 421.33 883.19 421.34 882.79 421.33 881.42 421.32 879.82 421.31 878.87 421.34 878.46 421.38 878.18 421.43 877.92 421.5 877.65 421.68 877.31 421.88 876.93 421.98 876.75 422.01 876.59 422.02 876.43 422.01 876.23 421.94 876.03 421.88 875.86 421.79 875.63 421.61 875.19 421.43 874.86 421.2 874.57 420.88 874.21 420.61 873.93 420.43 873.75 420.1 873.43 419.89 873.2 419.77 873.02 419.68 872.75 419.59 872.42 419.4 871.3 419.34 871.04 419.26 870.74 419.16 870.61 419.02 870.48 418.8 870.37 418.61 870.32 418.41 870.31 418.14 870.35 418.13 870.35 417.89 870.43 417.19 870.71 416.33 871.13 416.09 871.19 415.92 871.21 415.77 871.18 415.64 871.13 415.5 871.03 415.4 870.93 415.34 870.87 415.07 870.48 414.64 869.63 414.28 868.83 413.9 868.02 413.77 867.76 413.36 866.9 412.76 865.8 412.4 865.19 412.06 864.77 411.67 864.39 411.36 864.15 411.19 864.06 411.14 864.04 410.93 863.96 410.62 863.89 410.37 863.88 409.85 863.89 409.84 863.9 408.87 863.94 408.28 863.94 407.82 863.92 407.45 863.85 407.14 863.71 406.79 863.53 406.78 863.52 406.53 863.31 406.42 863.23 405.8 862.78 405.39 862.53 405.19 862.43 404.92 862.3 404.58 862.16 404.11 862.03 403.59 861.93 403.02 861.86 402.48 861.79 402.08 861.73 401.86 861.61 401.71 861.44 401.63 861.1 401.53 860.35 401.52 859.94 401.57 859.63 401.64 859.34 401.79 859.01 402.09 858.54 402.52 857.95 402.62 857.83 402.98 857.38 403.3 856.99 403.52 856.48 403.72 855.84 403.87 855.07 404.19 852.58 404.24 851.86 404.27 851.52 404.23 851.14 404.15 850.86 403.97 850.61 403.76 850.44 403.43 850.28 403.37 850.26 403.06 850.15 402.65 850.06 402.2 849.98 401.72 849.95 401.37 849.88 401.31 849.86 400.95 849.69 400.71 849.49 400.42 849.16 399.3 847.76 398.91 847.35 398.5 847.09 397.97 846.79 397.89 846.75 397.62 846.61 397.21 846.3 396.9 846 396.7 845.68 396.7 845.67 396.54 845.27 396.45 844.7 396.35 843.57 396.28 842.78 396.21 842.24 396.1 841.83 396.04 841.68 395.88 841.25 395.32 840.17 394.45 838.8 393.5 837.48 393.03 836.91 393.01 836.88 392.48 836.28 392.11 835.83 391.78 835.39 391.75 835.34 391.42 834.84 390.99 834.28 390.43 833.75 389.88 833.32 389.64 833.21 389.47 833.13 388.95 832.91 388.3 832.69 387.05 832.31 386.36 832.01 385.8 831.72 385.32 831.35 384.78 830.92 384.36 830.59 383.57 830.04 383.24 829.92 383 829.91 382.71 829.93 381.75 830.43 380.95 830.92 380.34 831.43 379.61 832.03 378.61 832.95 377.97 833.39 377.91 833.42 376.95 833.86 375.6 834.43 374.67 834.71 371.59 835.26 369.06 835.61 368.27 835.78 367.57 835.98 366.85 836.21 366.76 836.24 365.09 836.78 362.57 837.69 360.66 838.32 358.69 838.81 358.43 838.87 358.05 838.96 357.65 839.05 356.39 839.32 355.69 839.51 355.13 839.66 353.88 840.05 353.17 840.27 353.1 840.29 352.69 840.42 351.7 840.67 350.53 840.89 350.16 840.93 349.94 840.9 349.53 840.78 349.36 840.73 348.79 840.56 348.29 840.47 347.91 840.44 347.38 840.44 346.57 840.47 345.57 840.5 344.64 840.57 341.98 840.89 340.87 841 340 841.15 339.38 841.29 339.05 841.42 338.65 841.63 338.4 841.78 338.33 841.82 338.2 841.9 337.58 842.3 337.07 842.71 336.61 843.09 335.82 843.86 335.68 844.03 335.55 844.24 335.37 844.64 335.02 845.35 334.96 845.48 334.8 845.72 334.54 846.1 334.32 846.34 334.03 846.51 333.69 846.68 333.47 846.79 333.79 847.52 333.86 847.7 334.19 848.24 334.44 848.55 334.71 848.8 335.01 849.06 335.29 849.25 335.52 849.39 335.82 849.57 336.49 849.88 337.77 850.45 339.02 850.87 339.65 851.08 340.4 851.19 340.61 851.23 340.7 851.26 340.88 851.37 341.12 851.48 341.59 851.68 342.13 851.91 342.57 852.09 343.04 852.32 343.34 852.49 343.56 852.63 343.88 852.88 344.36 853.27 344.81 853.65 345.15 853.95 345.4 854.22 345.6 854.47 345.74 854.68 345.85 854.9 346.02 855.25 346.2 855.74 346.37 856.34 346.56 856.85 346.63 857.1 346.69 857.34 346.7 857.46 346.7 857.77 346.67 858.11 346.68 858.64 346.7 859.38 346.71 859.83 346.68 860.24 346.65 860.64 346.6 861.14 346.59 861.2 346.5 861.71 346.39 862.24 346.31 862.52 346.24 862.69 346.18 862.79 346.12 862.85 346.01 862.91 345.82 862.99 345.29 863.18 344.83 863.36 344.75 863.39 344.43 863.5 343.67 863.73 342.03 864.32 340.94 864.73 339.7 865.19 339.23 865.28 337.98 865.32 336.3 865.43 335.18 865.51 333.32 865.65 332.06 865.76 331.39 865.82 330.59 865.96 328.83 866.15 327.71 866.24 326.93 866.26 325.39 866.21 324.13 866.21 323.62 866.19 323.21 866.23 322.74 866.33 322.18 866.46 321.62 866.59 321.19 866.72 320.14 867.01 319.61 867.13 319.21 867.16 318.79 867.14 318.31 867.1 317.34 866.92 316.65 866.77 316.07 866.58 315.65 866.4 315.18 866.1 314.91 865.92 314.67 865.72 314.39 865.43 314.04 864.94 313.54 864.25 312.79 863.3 312.48 862.97 312.16 862.74 311.73 862.53 311.31 862.38 310.93 862.29 310.48 862.22 310.12 862.19 309.59 862.2 309.11 862.23 308.58 862.28 308.24 862.34 307.81 862.47 307.42 862.63 306.43 863.16 305.75 863.54 305 863.9 304.38 864.23 303.88 864.53 303.5 864.81 303.18 865.12 302.52 865.82 302.18 866.23 302.01 866.59 301.91 866.89 301.86 867.2 301.82 867.86 301.8 868.26 301.8 868.46 301.79 869.18 301.79 869.33 301.78 869.53 301.69 869.73 301.07 870.95 300.93 871.2 300.44 871.93 300.16 872.35 299.69 872.96 299.18 873.59 298.95 873.87 298.69 874.33 298.39 875.02 298.12 875.69 297.84 876.49 297.68 877.07 297.63 877.43 297.57 878 297.52 878.96 297.49 879.39 297.5 880.06 297.53 881.09 297.57 881.51 297.69 882.42 298.03 884.28 298.09 884.78 298.09 885 298.06 885.24 297.99 885.43 297.87 885.62 297.72 885.81 297.41 886.05 297.06 886.27 296.82 886.38 296.65 886.41 296.43 886.39 296.17 886.31 295.85 886.19 295.57 886.04 295.32 885.88 295.07 885.66 294.88 885.48 294.64 885.24 294.25 884.86 293.9 884.53 293.58 884.2 293.15 883.84 292.81 883.59 292.44 883.39 291.97 883.15 291.26 882.8 290.82 882.54 290.44 882.25 290.13 881.94 289.74 881.4 289.39 880.88 288.99 880.26 288.56 879.64 288.2 879.17 287.58 878.49 287.06 878 286.24 877.23 285.58 876.67 284.95 876.16 284.12 875.55 283.71 875.26 283.18 874.96 282.31 874.55 281.29 874.02 280.05 873.4 278.85 872.86 277.9 872.46 276.68 871.96 275.88 871.6 275 871.24 273.67 870.65 272.83 870.28 272.43 870.15 271.91 870 271.28 869.82 270.3 869.59 269.71 869.45 269.22 869.29 268.91 869.16 268.65 869 268.41 868.83 267.91 868.46 267.35 868.03 267.11 867.85 266.73 867.6 266.36 867.41 265.95 867.21 265.21 866.91 264.14 866.47 263.19 866.09 261.82 865.56 260.89 865.18 259.66 864.69 258.91 864.39 258.26 864.13 257.9 864 257.37 863.83 257 863.74 256.24 863.63 255.28 863.44 254.67 863.29 254.26 863.17 253.78 862.97 253.34 862.83 252.85 862.65 252.41 862.48 252.15 862.36 251.94 862.24 251.74 862.1 251.43 861.86 251.04 861.49 250.46 860.94 250.04 860.53 249.49 860.01 248.82 859.31 248.39 858.89 248.09 858.56 247.92 858.34 247.7 858.01 247.38 857.53 246.78 856.63 246.29 855.88 245.93 855.36 245.41 854.59 244.99 853.89 244.57 853.28 244.17 852.63 243.84 852.11 243.61 851.7 243.41 851.36 243.2 850.98 242.97 850.49 242.79 850.06 242.62 849.62 242.43 849.16 242.24 848.71 241.92 848.05 241.71 847.61 241.62 847.37 241.51 846.92 241.37 846.22 241.22 845.51 241.14 844.93 241.11 844.76 240.94 843.8 240.86 843.36 240.77 843.01 240.67 842.68 240.58 842.43 240.25 841.79 239.8 841.07 239.4 840.58 238.91 840.07 238.35 839.5 237.93 838.99 237.81 838.81 237.54 838.38 237.1 837.7 236.13 838.2 235.93 838.3 235.4 838.56 234.58 838.98 234.35 839.1 234.32 839.15 234.28 839.29 234.18 839.59 234.09 839.92 233.96 840.29 233.81 840.62 233.69 840.87 233.63 840.96 233.55 841.02 233.22 841.13 232.61 841.31 231.92 841.53 231.19 841.77 230.64 841.96 230.02 842.21 228.91 842.68 228.51 842.85 227.99 843.05 227.02 843.36 226.48 843.54 226.27 843.62 226.11 843.7 225.8 843.9 225.37 844.17 225.1 844.35 224.73 844.64 224.07 845.17 223.47 845.68 223.15 845.96 222.96 846.13 222.58 846.54 222.53 846.59 222.23 846.9 221.92 847.1 221.61 847.28 221.39 847.37 221.04 847.48 220.88 847.5 219.97 847.58 219.13 847.57 218.82 847.56 218.1 847.43 217.65 847.34 217.48 847.3 217.22 847.22 216.98 847.14 216.82 847.07 216.69 847 216.58 846.93 216.52 846.89 216.36 846.79 216.13 846.66 215.91 846.53 215.73 846.46 215.56 846.39 215.19 846.27 214.5 845.99 214.28 845.93 214.09 845.9 213.89 845.89 213.61 845.89 212.98 845.89 211.97 845.86 211.21 845.83 210.85 845.82 210.49 845.84 210.16 845.86 209.95 845.86 209.71 845.82 209.7 845.82 209.49 845.79 209.48 845.79 209.13 845.73 208.89 845.67 208.5 845.56 208.21 845.47 207.9 845.41 207.69 845.38 207.53 845.36 207.33 845.39 207.12 845.44 206.96 845.5 206.71 845.6 206.28 845.75 205.73 845.96 205.36 846.09 205.22 846.11 205.1 846.11 204.96 846.1 204.56 846.01 204.16 845.93 203.8 845.84 203.53 845.8 203.11 845.77 202.52 845.71 201.92 845.66 201.57 845.64 201.37 845.64 201.16 845.71 200.59 845.89 200.24 846.02 199.73 846.19 199.34 846.3 199.14 846.33 198.8 846.33 198.32 846.38 197.65 846.43 196.85 846.5 196.51 846.56 196.11 846.61 195.85 846.68 195.41 846.84 194.84 847.05 194.39 847.22 194.09 847.33 193.88 847.4 193.64 847.45 193.27 847.5 192.78 847.51 192.33 847.52 192.05 847.54 191.82 847.58 191.61 847.65 191.48 847.72 191.29 847.89 189.79 847.53 188.6 847.23 187.93 847.09 187.73 846.95 187.65 846.38 187.6 846.13 187.39 845.06 187.37 844.79 187.27 844.68 187.11 844.62 185.12 844.37 184.97 844.32 184.92 844.17 184.83 842.89 184.79 842.13 184.77 841.92 184.71 841.82 184.49 841.73 183.94 841.66 182.88 841.53 182.07 841.47 181.85 841.52 181.05 841.74 180.14 842.01 179.35 842.19 179.13 842.22 178.93 842.18 178.41 841.85 177.38 841.14 176.09 840.23 175.46 839.75 174.92 839.14 174.22 838.3 173.81 837.92 172.63 837.08 171.99 836.7 171.01 836.08 169.82 835.3 169.43 835.06 169.27 834.98 169 834.98 168.37 834.95 166.62 834.92 165.4 834.92 165.29 834.98 165.17 835.09 165.05 835.14 164.81 835.17 164.48 835.26 164.21 835.31 163.88 835.4 163.56 835.42 162.98 835.43 162.8 835.46 162.7 835.54 162.61 835.72 162.6 835.95 162.56 836.22 162.49 836.44 162.43 836.52 162.32 836.59 161.79 836.64 160.72 836.76 160.58 836.78 160.45 836.87 160.25 837.03 159.2 837.85 158.78 838.14 158.69 838.25 158.65 838.33 158.65 838.63 158.7 840.13 158.7 840.69 158.7 840.75 158.7 840.96 158.65 841.09 158.55 841.17 158.43 841.24 158.06 841.3 157.64 841.35 157.33 841.37 157.08 841.37 156.93 841.4 156.72 841.49 156.59 841.54 156.41 841.61 155.08 841.71 151.63 842.11 149.32 842.32 147.15 842.53 146.29 842.61 145.18 842.76 143.98 843.07 141.37 843.76 140.56 844 139.14 844.42 135.07 845.63 133.45 846.04 130.55 846.98 128.54 847.55 127.67 847.74 126 848.03 125.64 848.07 125.22 848.05 124.37 848.01 123.61 847.97 122.98 848.02 122.37 848.11 119.54 848.75 117.1 849.24 116.9 847.64 116.67 846.68 116.25 845.56 116.11 845.29 115.87 844.81 115.86 844.8 115.84 844.75 115.8 844.7 115.66 844.49 115.25 843.92 114.57 843.19 114.03 842.71 113.37 842.27 112.89 842.06 112.68 841.97 112.48 841.89 111.96 841.77 111.86 841.75 111.26 841.68 110.72 841.68 110.09 841.76 109.17 841.98 109 842.03 105.91 842.84 104.35 843.25 103.74 843.41 103.58 843.46 103.32 843.49 102.48 843.6 101.49 843.73 98.88 844.27 98.65 844.31 98.3 844.36 97.99 844.4 97.27 844.41 96.65 844.39 96.49 844.37 96.08 844.31 95.66 844.19 95.35 844.1 94.48 843.65 93.9 843.21 93.77 843.12 93.48 842.84 92.81 842.18 91.73 840.99 91.23 840.39 90.82 839.76 90.52 839.25 90.41 839.05 90.2 838.63 90.2 838.62 89.65 836.89 89.63 836.78 89.54 836.41 89.45 836.08 89.42 835.93 89.31 835.34 89.07 833.98 88.82 832.58 88.43 830.08 88.2 828.91 87.79 827.33 87.58 826.51 87.18 824.91 87.06 823.98 87.04 823.73 87.01 823.37 87.05 821.18 87.05 821.01 87.05 820.08 86.99 819.76 86.98 819.7 86.86 819.3 86.67 819 86.44 818.73 86.1 818.46 85.72 818.24 85.4 818.12 85.15 818.09 84.89 818.07 84.44 818.09 84.33 818.1 82.65 818.28 82.2 818.32 82.02 818.33 81.51 818.34 81.2 818.33 81.05 818.32 77.9 817.92 76.91 817.77 76.12 817.65 74.86 817.45 71.23 816.88 70.24 816.69 66.99 816.08 64.74 815.55 64.08 815.36 63.75 815.26 63.69 815.24 63.67 815.24 63.22 815.06 62.88 814.94 62.64 814.81 61.76 814.35 61.7 814.32 60.84 813.81 60.74 813.74 60.67 813.67 60.31 813.33 59.99 812.94 59.93 812.87 59.65 812.35 59.51 811.99 59.43 811.61 59.39 811.29 59.43 810.81 59.5 810.5 59.51 810.47 59.59 810.12 59.81 809.39 60.2 808.15 60.2 808.14 60.26 807.94 60.63 806.74 60.81 806.15 61.24 804.57 61.29 804.38 61.62 803.1 61.84 802.4 61.93 802.14 62.04 801.83 62.23 801.27 62.5 800.53 62.77 799.84 62.81 799.76 63.13 799.07 63.7 797.89 64.27 796.59 64.72 795.55 65.36 794.2 65.36 794.19 66.09 792.76 66.2 792.56 66.92 791.25 66.94 791.22 67.27 790.64 67.31 790.59 67.32 790.57 67.37 790.46 67.6 789.99 68.18 788.58 68.42 787.89 68.73 787.02 69.12 786.05 69.5 785.26 70.14 784.06 70.69 783.05 71.12 782.04 71.43 781.2 71.48 781.03 71.56 780.79 72.3 778.77 72.38 778.37 72.41 778.05 72.41 776.69 72.39 775.79 72.38 774.99 72.45 773.49 72.48 773.2 72.61 771.6 72.63 771.27 72.71 770.33 72.71 770.21 72.71 769.77 72.71 769.52 72.65 769 72.57 768.31 72.2 767.16 72.11 766.88 72.04 766.61 71.36 763.21 71.13 761.75 71.02 760.22 71.01 760.03 71 759.94 71 759.14 71.05 757.78 71.18 756.73 71.33 755.52 71.43 754.84 71.67 753.2 71.79 752.38 71.87 752.02 72.14 750.83 72.23 750.51 72.3 750.27 72.59 749.38 72.73 748.97 73.24 747.82 74.1 746.37 75.03 745.16 75.22 744.91 75.24 744.89 76.33 743.57 77.04 742.8 77.64 742.16 78.38 741.3 78.75 740.88 78.79 740.83 79.68 739.8 80.92 738.46 81.03 738.34 81.09 738.28 82.75 736.97 84.5 735.78 86.3 734.42 86.31 734.42 86.69 734.13 86.78 734.05 86.82 734.01 88.15 732.71 88.42 732.45 88.61 732.27 90.08 730.65 91.46 729.31 91.7 729.07 91.73 729.04 93.29 727.53 93.47 727.34 93.87 726.95 95.01 725.8 95.6 725.05 95.73 724.86 95.73 724.85 96.16 724.24 96.34 723.83 96.44 723.62 96.51 723.41 96.75 722.76 96.88 722.41 96.88 722.41 96.88 722.4 97.11 721.46 97.15 721.12 97.2 720.58 97.19 720.5 97.12 719.77 97.1 719.67 96.97 718.99 96.97 718.99 96.93 718.78 96.82 718.37 96.8 718.29 96.69 717.89 96.63 717.73 96.53 717.43 96.19 716.68 95.53 715.6 94.91 714.67 93.7 712.74 92.72 711.41 91.7 709.95 91.68 709.91 91.58 709.72 91.41 709.42 91.13 708.88 91.11 708.82 91.02 708.55 91.02 708.54 90.95 708.26 90.91 707.98 90.88 707.7 90.87 707.41 90.88 707.13 90.9 706.98 90.91 706.84 90.93 706.76 90.94 706.68 90.96 706.56 91.03 706.28 91.12 706.01 91.14 705.97 91.16 705.89 91.26 705.61 91.29 705.53 91.66 704.54 92.16 703.45 92.22 703.36 92.3 703.24 92.31 703.22 92.45 703.03 93.87 701.69 94.89 700.48 94.98 700.36 95.33 699.89 95.44 699.75 95.56 699.59 95.86 699.05 96.1 698.51 96.23 697.88 96.29 697.29 96.34 696.49 96.38 695.68 96.41 695.14 96.34 693.9 96.24 693.23 96.07 692.56 95.44 690.14 95.04 688.46 94.94 687.85 94.75 686.69 94.61 685.82 94.61 685.81 94.53 685.17 94.4 683.53 94.42 682.94 94.44 682.73 94.48 682.55 94.61 681.95 94.8 681.45 95.1 680.9 95.96 679.85 96.33 679.47 98.12 678.13 99.26 677.27 100.13 676.56 100.52 676.16 100.99 675.55 102.63 673.46 103.22 672.67 103.43 672.19 103.59 671.79 103.66 671.61 103.71 671.5 103.82 671.09 103.84 671.01 103.86 670.95 103.97 670.31 104.05 669.75 104.05 669.3 104.05 668.87 104.08 668.38 104.1 668.16 104.14 667.51 104.15 666.98 104.1 666.51 103.98 665.81 103.95 665.65 103.93 665.56 103.77 664.9 103.62 664.16 103.6 664.03 103.58 663.93 103.51 663.72 103.37 663.29 102.98 662.35 102.92 662.18 102.57 661.56 101.76 660.36 101.37 659.91 100.25 659 100.02 658.85 98.58 657.95 97.56 657.11 95.48 655.37 95.21 655.09 94.34 654.37 93.19 653.14 92.4 652.21 91.7 651.45 91.33 651.06 90.78 650.36 90.53 649.96 90.41 649.7 90.35 649.56 90.26 649.05 90.26 648.53 90.27 648.13 90.32 647.92 90.62 646.68 90.84 645.79 90.87 645.66 90.88 645.61 91.05 645.19 91.14 644.97 91.28 644.72 91.55 644.23 91.93 643.66 92.18 643.33 92.35 643.17 92.69 642.84 93.12 642.49 95.04 640.93 95.32 640.71 95.72 640.38 95.81 640.31 96.25 639.99 97.73 638.9 99.07 637.93 99.15 637.87 100.21 636.93 100.24 636.9 100.36 636.77 100.81 636.19 101.14 635.67 101.54 635.01 101.92 634.29 102.2 633.66 102.38 633.3 102.72 632.81 103.01 632.4 103.58 631.77 104.12 631.26 104.16 631.22 104.43 630.97 104.7 630.79 105.46 630.3 105.78 630.15 106.06 630.01 106.46 629.82 106.88 629.67 107.96 629.37 108.24 629.3 108.51 629.19 108.56 629.17 109.29 628.74 109.31 628.74 109.4 628.63 109.81 628.19 109.85 628.15 109.95 628.04 110.02 627.96 110.7 626.95 111.03 626.19 111.52 624.74 111.85 622.85 111.97 622.11 112 621.15 111.99 620.93 111.95 620.31 111.91 619.73 111.89 619.4 111.87 618.17 111.87 617.95 111.87 617.62 111.85 617.44 111.79 617.06 111.77 616.95 111.48 616.26 111.03 615.5 110.63 614.99 110.56 614.93 110.41 614.82 110.04 614.5 109.28 614.02 109 613.9 108.51 613.68 108.19 613.58 107.95 613.5 107.58 613.43 107.46 613.42 107.3 613.41 106.46 613.35 106.21 613.33 106.01 613.32 104.98 613.31 104.91 613.3 104.56 613.3 104.5 613.29 103.37 613.2 103.12 613.15 101.88 612.9 101.1 612.77 99.16 612.5 98.34 612.37 97.44 612.21 96.9 612.12 96.49 612.14 96.19 612.21 95.85 612.3 95.43 612.42 95.42 612.42 95.29 612.47 95.08 612.56 94.72 612.72 93.95 613.04 93.26 613.34 93.18 613.37 93.09 613.41 92.01 613.84 91.74 613.95 91.25 614.15 91.04 614.26 90.23 614.67 90 614.79 89.62 614.98 88.61 615.48 88.5 615.53 88.45 615.56 88.13 615.77 87.63 616.1 86.93 616.6 86.93 616.6 86.79 616.7 86.56 616.87 85.9 617.34 85.36 617.64 85.26 617.7 85.19 617.73 84.64 617.95 84.41 618.02 83.53 618.26 82.76 618.42 82.69 618.43 82.49 618.47 82.41 618.48 81.77 618.49 81.51 618.46 81.45 618.46 81.44 618.45 80.41 618.39 80.35 618.39 80.23 618.37 78.62 618.18 77.66 618.03 77.49 618 76.95 617.86 76.72 617.8 76.51 617.75 75.46 617.39 75.17 617.27 74.68 617.02 73.63 616.35 72.59 615.51 72.31 615.19 71.97 614.82 71.39 614.18 71.24 614.01 70.47 613.05 70.4 612.97 70.34 612.9 69.72 612.03 69.44 611.57 69.25 611.28 69.1 611 68.6 610.09 68.42 609.64 68.4 609.58 68.3 609.29 68.1 608.62 68.01 608.11 67.82 606.14 67.75 605.36 67.63 604.06 67.59 603.8 67.45 602.62 67.41 602.32 67.28 601.48 67.26 601.42 67.08 600.62 66.97 600.13 66.9 599.87 66.89 599.82 66.65 598.97 66.44 598.27 66.19 597.62 65.97 597.13 65.89 597 65.62 596.58 65.46 596.29 65.37 596.12 65.24 595.82 65.2 595.63 65.02 594.87 64.97 594.71 64.86 594.31 64.7 593.64 64.66 593.48 64.55 592.64 64.51 592.36 64.51 592.1 64.51 591.89 64.53 591.69 64.55 591.57 64.59 591.17 64.6 591 64.55 590.2 64.53 590.11 64.45 589.57 64.45 589.48 64.45 588.45 64.5 588.16 64.52 588.09 64.54 587.96 64.7 587.57 64.7 587.55 64.84 587.22 64.99 586.83 65.02 586.76 65.05 586.71 65.73 585.53 65.76 585.47 66.03 585.07 66.81 584.19 67.06 583.91 67.57 583.48 68 583.21 68.09 583.17 68.12 583.16 68.41 583.03 68.51 582.98 68.71 582.92 69.11 582.8 69.7 582.7 70.88 582.56 71.21 582.54 71.36 582.53 71.74 582.56 71.82 582.57 71.86 582.57 71.93 582.58 73.11 582.74 73.51 582.78 74.13 582.81 74.25 582.82 74.54 582.84 74.72 582.85 75.08 582.85 75.88 582.82 76.5 582.76 76.99 582.66 77.39 582.55 77.74 582.46 77.85 582.42 79.37 581.85 80.08 581.61 80.7 581.44 80.72 581.43 80.8 581.42 81.66 581.26 82.45 581.14 83.03 581.11 83.07 581.1 84.01 581.08 84.75 581.11 85.03 581.14 85.47 581.17 85.92 581.19 86.22 581.18 86.64 581.11 86.82 581.05 87.55 580.85 88.92 580.28 89.36 580.1 89.6 579.91 90.03 579.45 90.45 578.73 90.62 578.39 90.82 577.98 91.27 577.05 91.73 576.15 92.07 575.59 92.29 575.27 92.4 575.11 92.56 574.88 92.66 574.77 93.21 574.12 94 573.38 94.07 573.34 94.42 573.1 94.9 572.85 96.37 572.14 96.76 571.92 97.7 571.4 97.88 571.3 98.37 571.12 98.37 571.12 98.78 571.01 99.11 570.94 99.31 570.89 100.33 570.74 100.67 570.68 100.96 570.64 101.33 570.59 101.87 570.48 102.49 570.32 102.97 570.19 103.58 570.02 104.42 569.74 106.07 568.97 106.17 568.91 106.35 568.8 106.88 568.49 106.94 568.47 107.01 568.45 107.59 568.23 107.7 568.19 109.98 567.21 111.29 566.61 111.29 566.6 110.12 563.98 109.77 563.18 109.18 561.88 108.16 559.67 107.52 558.37 106.96 557.32 106.71 556.85 106.43 556.34 106.17 555.83 106.02 555.42 105.95 555.14 105.88 554.8 105.85 554.4 105.85 553.82 105.55 553.89 105.54 553.9 105.52 553.9 105.39 553.94 105.24 553.98 105.07 554.05 105.01 554.09 104.84 554.18 104.49 554.39 104.29 554.5 103.6 554.8 103.39 554.89 103.14 555 102.6 554.15 102.59 554.12 101.96 553.43 101.46 552.97 101.36 552.9 98.17 551.13 95.38 549.68 94.6 549.38 93.19 548.94 92.3 548.69 91.63 548.54 91.08 548.49 90.68 548.47 90.28 548.49 89.81 548.61 89.31 548.81 87.57 549.71 83.05 552.06 80.8 553.22 80.47 552.97 80.25 552.88 80.13 552.87 80.01 552.88 79.81 552.93 79.45 553.06 78.97 553.31 78.12 553.73 77.41 554.05 77.04 554.18 76.33 554.38 75.65 554.56 72.42 555.53 67.83 556.89 64.59 557.8 61.45 558.67 58.02 559.59 57.43 559.73 56.84 559.88 56.26 560 53.53 560.5 49.86 561.11 48.91 561.28 48.43 561.39 48.09 561.49 47.83 561.58 47.27 561.84 46.02 562.51 43.91 563.46 41.87 564.2 41.56 564.29 40.96 564.44 38.35 564.9 36 565.32 34.98 565.43 34.59 565.47 34.41 565.47 34.2 565.46 34.02 565.43 32.92 565.09 30.65 564.17 29.58 563.73 27.84 562.88 25.91 561.76 22.9 559.95 20.6 558.65 19.43 558.09 18.16 557.53 15.24 556.2 14.29 555.77 14.08 555.66 13.8 555.46 13.49 555.23 13.18 554.92 12.98 554.66 12.79 554.33 12.65 554.01 12.55 553.7 12.5 553.48 12.46 553.21 12.45 552.94 12.48 552.42 12.8 550.3 13.22 547.77 13.26 547.51 13.28 547.33 13.28 547.04 13.25 546.66 13.2 546.43 13.09 545.96 12.42 543.67 12.27 543.17 12.15 542.67 12.07 542.11 12.03 541.71 12.02 539.16 12.08 535.24 12.11 533.82 12.25 531.56 12.48 529.21 12.62 526.91 12.61 525.6 12.61 525.38 12.58 525.19 12.53 524.96 12.41 524.51 12.22 524 11.81 523.23 11.37 522.52 10.42 521.11 9.55 519.93 9.01 519.27 8.39 518.59 7.91 518.09 6.97 517.2 6.47 516.76 5.05 515.56 4.2 514.86 3.8 514.48 3.54 514.19 3.11 513.63 2.95 513.33 2.8 512.99 2.65 512.61 2.58 512.35 2.5 511.93 2.45 511.42 2.44 511.16 2.44 510.8 2.44 510.44 2.48 510.05 2.74 508.09 3.25 504.75 3.37 503.78 3.41 503.18 3.41 502.88 3.41 502.56 3.39 502.24 3.17 500.33 2.91 498.57 2.87 498.36 2.82 498.12 2.41 496.69 1.56 493.72 1.42 493.15 1.19 491.72 1.01 489.95 1 489.1 1.02 488.69 1.1 488.09 1.2 487.66 1.3 487.33 1.89 485.7 2.3 484.75 2.55 484.37 2.8 484.06 3.06 483.79 3.36 483.55 3.68 483.34 4.3 483.07 6.28 482.48 7.82 481.96 8.11 481.87 8.63 481.64 9.18 481.39 9.72 481.06 11.02 480.09 12.36 479.11 12.6 478.98 12.79 478.89 12.99 478.82 13.32 478.73 14.5 478.45 18.42 477.67 20.31 477.3 20.61 477.28 20.85 477.26 21.24 477.26 21.54 477.27 23.63 477.45 28.16 477.93 31.51 478.11 31.86 478.1 32.08 478.08 33.07 477.88 33.68 477.73 34.71 477.41 35.7 477.09 38 476.12 39.3 475.41 39.72 475.16 40.69 474.47 42.47 473.02 43.35 472 43.47 471.85 43.55 471.72 43.63 471.53 43.67 471.31 44.14 468.99 44.71 466.12 44.85 465.61 44.98 465.15 45.13 464.72 45.42 463.92 45.59 463.51 46.89 460.81 49.19 457.01 50.98 453.9 51.87 452.37 52.63 450.78 52.89 450.18 53.93 446.79 54.77 443.26 55.04 441.98 55.1 441.67 55.13 441.34 55.2 440.12 55.27 437.76 55.24 436.43 55.24 436.4 59.5 435.54 59.66 435.57 59.79 435.74 60.16 436.75 64.03 436.37 70.2 435.73 72.53 435.74 76.05 435.88 81.68 435.91 88.07 436.07 91.89 436.75 99.69 436.79 144.23 440.31 144.48 440.49 144.7 440.71 144.84 440.85 145.22 441.08 145.56 441.22 145.89 441.28 146.27 441.29 146.59 441.31 146.98 441.48 147.08 441.8 147.19 442.21 147.33 442.55 147.35 443 147.31 443.39 147.45 443.61 147.65 443.83 148.03 443.98 148.17 444.08 148.27 444.52 148.29 444.83 148.32 445.45 148.32 445.63 148.28 446.07 148.46 446.52 149.03 446.64 149.35 446.6 149.47 446.58 149.49 446.58 149.77 446.59 149.79 446.59 149.78 446.59 149.96 446.74 150.14 447.19 150.2 447.3 150.39 447.61 151.35 448.73 151.85 448.91 152.19 448.91 152.46 448.91 153.11 449.13 154.14 449.83 155.07 450.36 156.08 450.98 158.25 451.73 158.97 451.81 159.48 451.74 160.3 451.85 160.7 452.05 161.16 452.27 161.81 452.56 162.35 452.56 162.38 452.56 163.13 452.56 163.71 452.57 164.1 452.88 164.12 453.11 164.13 453.2 164.17 453.72 164.09 454.42 163.87 455.49 164.62 455.63 164.82 455.67 166.18 455.93 166.98 456.08 168.77 456.43 170.65 456.79 175.36 457.68 180.21 458.45 182.62 458.64 184.6 458.67 185.79 458.69 186.82 458.65 188.07 458.61 188.25 458.6 189.14 458.57 190.33 458.48 191.28 458.41 192.9 458.34 193.29 458.32 195.12 458.2 195.93 458.24 196.97 458.45 198.26 458.75 199 459.01 199.37 459.16 199.68 459.37 200.31 459.97 200.37 460.04 200.8 460.46 201.09 460.68 201.42 460.92 201.45 460.94 202.07 461.41 202.59 460.91 203.4 460.18 203.95 459.69 205.59 458.33 207.92 456.44 209.64 454.87 210.35 454.28 210.74 454 211.35 453.63 212.04 453.17 212.72 452.57 212.89 452.36 213.13 452.06 213.28 451.75 213.42 451.39 213.51 450.78 213.52 450.54 213.53 450.26 213.4 449.09 213.39 449.01 213.17 447.65 212.99 446.32 212.92 445.77 214.05 445.77 214.69 445.79 214.99 445.8 216.2 445.79 217.42 445.74 218.45 445.61 219.41 445.4 219.96 445.3 220.48 445.27 221.38 445.3 222.11 445.24 222.58 445.18 222.86 445.08 223.37 444.82 223.76 444.61 224.19 444.35 224.45 444.19 224.66 444.15 225.1 444.19 225.85 444.29 226.37 444.33 226.59 444.3 226.83 444.24 227.04 444.26 227.37 444.32 227.67 444.33 228.25 444.34 229.07 444.37 229.73 444.35 230.35 444.3 231.05 444.15 232.01 444.02 232.53 443.86 233.43 443.47 234 443.11 234.57 442.84 234.98 442.69 235.18 442.7 235.42 442.75 235.8 442.87 236.24 442.93 236.88 442.99 237.48 443.07 237.77 443.11 238.02 443.23 238.3 443.35 238.67 443.43 239.2 443.42 239.9 443.43 240.26 443.46 240.55 443.56 240.85 443.68 241.38 443.81 242.12 443.92 242.69 444.07 243.31 444.16 243.71 444.16 244.1 444.08 245.07 443.79 245.57 443.61 247.07 442.91 249.41 441.73 250.94 441.24 252.29 440.8 252.61 440.66 253.54 440.25 255.37 439.39 255.82 439.15 256.08 438.97 257.05 438.21 257.68 437.7 258.49 437.07 259.29 436.54 260.27 435.82 261.21 435.12 262.15 434.48 263.66 433.55 264.08 433.34 264.5 433.22 265.91 432.99 267.08 432.87 267.69 432.76 268.62 432.63 270.08 432.39 271.15 432.17 271.88 431.99 272.79 431.71 273.88 431.34 274.62 431.04 274.75 430.94 274.86 430.82 275.04 430.67 275.41 430.47 276.66 429.9 277.45 429.52 278.02 429.2 278.44 428.99 278.74 428.87 278.45 428.28 278.28 427.98 278.13 427.77 278 427.65 277.81 427.53 277.44 427.32 277.03 427.08 276.54 426.81 276.25 426.62 276.1 426.5 275.94 426.3 275.66 425.82 275.46 425.38 275.36 425.02 275.31 424.75 275.32 424.55 275.37 424.31 275.46 424.13 275.72 423.6 275.99 422.99 276.1 422.53 276.18 422.13 276.23 421.59 276.29 420.93 276.34 420.61 276.43 420.44 276.54 420.29 276.69 420.21 277.07 420.13 277.25 420.05 277.42 419.94 277.56 419.77 277.64 419.6 277.72 419.37 277.77 419.12 277.78 418.75 277.7 418.18 277.63 417.73 277.56 417.49 277.47 417.34 277.37 417.17 277.31 416.95 277.2 416.36 277.06 415.88 276.91 415.3 276.89 414.84 276.93 414.21 277.05 413.26 277.11 412.73 277.08 412.49 277.06 412.27 276.92 411.96 276.78 411.62 276.73 411.51 276.54 410.83 276.3 409.85 276.24 409.22 276.25 408.48 276.31 407.57 276.28 406.95 276.2 406.22 276.16 405.48 276.12 405.14 276.09 404.78 275.99 404.3 275.89 403.87 275.88 403.5 275.97 402.96 276.14 402.08 276.18 401.45 276.1 400.61 275.92 399.28 275.57 397.32 275.3 395.74 275.2 395.43 275.29 395.23 277.71 394.34 278.34 394.13 278.38 394.01 278.08 393.16 277.46 391.56 277.43 391.14 277.36 390.8 276.59 388.39 276.2 386.41 276.06 386.3 275.93 386.3 275.48 386.43 275.37 386.34 275.32 384.42 275.2 382.84 275.38 381.52 275.47 380.34 275.47 380.15 275.58 380.15 276.28 380.17 277.14 379.84 277.86 379.34 279.54 378.48 280.99 377.9 281.36 377.8 283.51 377.2 284.73 376.66 285.84 376.01 285.84 375.91 283.96 374.3 283.21 373.43 282.61 371.97 282.53 370.83 282.3 370.05 282 369.57 281.35 368.99 280.92 368.82 280.57 368.82 279.51 368.85 279.07 368.77 278.9 368.52 277.97 364.3 278.15 364 278.28 363.64 278.22 363.18 277.94 362.19 279.63 362.26 279.31 361.4 278.26 360.08 279.33 359.27 278.21 357.28 277.86 356.72 276.3 354.24 274.67 351.51 271.48 346.17 271.4 345.66 271.45 344.66 271.85 342.69 272.1 340.99 272.54 338.53 272.83 333.6 271.32 333.11 270.08 332.67 268.61 332.09 267.65 331.67 266.98 331.58 266.29 331.54 265.62 331.78 264.93 332.12 264.21 333.01 262.69 335.08 262.13 335.98 261.63 336.41 260.87 336.95 260.27 337.14 259.62 337.22 258.74 337.32 257.86 337.37 256.55 337.45 255.63 337.52 255.14 337.55 254.83 337.57 253.97 337.64 252.4 337.74 252.06 337.75 251.27 337.81 250.94 337.81 250.6 337.79 250.25 337.75 249.95 337.72 249.61 337.66 249.27 337.58 248.88 337.48 248.54 337.39 248.15 337.23 247.88 337.12 247.23 336.79 246.75 336.54 246.02 336.17 245.21 335.77 244.86 335.57 244.64 335.42 244.34 335.14 244.05 334.78 243.97 334.65 243.86 334.46 243.78 334.28 243.73 334.12 243.66 333.86 243.61 333.6 243.59 333.36 243.59 333.11 243.62 332.64 243.66 331.94 243.72 330.92 243.8 330.41 243.95 329.58 244.15 328.62 244.39 327.55 244.64 326.48 244.76 325.94 244.54 325.89 244.21 325.89 243.99 325.88 243.83 325.86 243.74 325.82 243.71 325.77 243.72 325.7 243.79 325.5 243.84 325.31 243.85 325.08 243.82 324.83 243.69 324.4 243.54 324.03 243.22 323.32 242.82 322.7 242.37 322.11 242.02 321.71 241.63 321.37 241.19 321.05 240.46 320.58 239.73 320.02 239.42 319.66 239.16 319.32 238.9 319.02 238.68 318.82 238.19 318.44 237.35 317.89 235.97 316.96 234.98 316.27 234.6 315.96 234.41 315.74 234.26 315.46 233.95 314.78 233.65 314.14 233.41 313.67 233.05 312.91 232.82 312.29 232.65 311.71 232.3 310.56 232.06 309.87 232.04 309.82 231.82 309.27 231.62 308.86 231.53 308.69 231.11 307.95 230.46 306.85 230.18 306.36 230.04 306.13 229.88 305.85 229.79 305.65 229.73 305.48 229.67 305.11 229.52 304.22 229.31 303.06 229.11 302.16 228.89 301.53 228.89 301.52 228.42 300.23 228.08 299.35 227.94 298.97 227.77 298.39 227.65 297.85 227.61 297.32 227.52 296.2 227.4 295.14 227.26 294.13 227.09 293.11 226.98 292.4 226.91 291.8 226.89 291.45 226.85 290.68 226.81 290.37 226.76 289.95 226.73 289.83 226.62 289.4 226.42 288.92 226.18 288.48 225.87 288.09 225.83 288.03 225.36 287.61 224.63 287.06 223.64 286.4 222.8 285.93 221.79 285.5 220.47 285.03 219.59 284.81 218.7 284.69 218.11 284.65 217.38 284.66 216.39 284.7 215.48 284.77 214.52 284.87 213.77 284.95 213.35 285.02 212.92 285.13 212.9 285.14 212.56 285.24 212.11 285.4 211.66 285.58 211.61 285.6 211.24 285.75 210.85 285.88 210.44 285.96 209.92 286.04 209.16 286.15 208.62 286.26 208.02 286.44 207.41 286.65 207 286.85 206.51 287.1 206.4 287.17 205.87 287.51 205.28 287.91 204.69 288.37 204.12 288.91 203.65 289.45 203.1 290.13 202.71 290.64 202.44 291.01 202.24 291.38 202.07 291.67 201.86 292.04 201.63 292.47 201.46 292.76 201.29 292.99 201.06 293.27 200.78 293.57 200.31 293.98 199.89 294.33 199.4 294.7 198.87 295.04 198.35 295.29 197.75 295.48 197.01 295.64 196.34 295.73 195.61 295.74 195.06 295.68 194.62 295.57 194.05 295.34 193.14 294.88 192.47 294.48 191.95 294.05 191.69 293.77 191.51 293.45 191.31 292.98 191.15 292.41 190.85 291.33 190.67 290.83 190.47 290.45 190.21 290.09 189.88 289.78 189.41 289.47 188.61 288.99 187.4 288.33 186.04 287.56 185.31 287.11 184.75 286.77 183.64 286.11 182.68 285.62 181.57 285.04 181.11 284.74 181.04 284.69 180.97 284.63 180.38 284.15 179.38 283.3 178.82 282.82 178.59 282.54 178.5 282.4 178.44 282.31 178.42 282.25 178.34 282.02 178.28 281.69 178.28 281.34 178.31 280.77 178.32 280.68 178.39 280.17 178.43 279.73 178.51 279.05 178.64 278.23 178.64 278.23 178.74 277.92 178.75 277.91 178.88 277.65 178.9 277.62 178.96 277.53 179.17 277.2 179.5 276.7 179.82 276.21 180.18 275.52 180.68 274.46 181.17 273.39 181.36 272.81 181.54 272.09 181.65 271.54 181.68 271.39 181.71 271.23 181.79 270.64 181.82 270.23 181.84 269.98 181.83 269.49 181.78 268.99 181.67 268.36 181.59 268.12 181.5 267.96 181.29 267.54 181.07 267.17 180.8 266.77 180.38 266.25 179.86 265.86 179.31 265.5 178.66 265.18 178.21 265.02 177.8 264.95 177.48 264.93 177.12 265.04 176.79 265.21 176.24 265.66 175.94 265.88 175.44 266.25 174.73 267 173.57 268.48 173.09 269.11 172.43 270.18 172.06 270.68 171.82 270.83 171.47 270.87 170.89 270.86 169.86 270.8 168.52 270.71 167.26 270.68 166.21 270.67 165.2 270.58 164.28 270.44 163.09 270.22 162.17 269.98 161.59 269.76 160.86 269.28 160.17 268.75 159.71 268.27 159.32 267.8 159.09 267.41 158.99 266.98 158.98 266.52 159.17 266 159.47 265.46 159.96 264.96 160.66 264.39 161.55 263.79 162.17 263.39 162.86 263.08 163.67 262.83 164.65 262.46 165.84 262.11 166.29 261.86 167.11 261.29 167.51 260.9 167.77 260.59 167.96 260.28 168.08 259.41 168.2 258.36 168.2 257.74 168.11 257.35 167.84 256.71 167.42 255.79 167.02 254.93 166.58 254.3 166 253.75 165.26 253.33 164.07 252.85 162.5 252.32 161.3 251.86 159.51 251.11 158.5 250.67 157.69 250.42 156.99 250.3 156.44 250.3 155.94 250.32 155.26 250.45 154.23 250.69 153.67 250.85 153.49 251.09 153.37 251.6 153.32 252.14 153.3 252.59 153.36 253.4 153.47 254.49 153.53 255.55 153.49 256.31 153.38 257.1 153.31 257.31 153.03 257.66 152.81 257.93 152.6 258.35 152.52 258.63 152.35 258.77 151.96 258.96 151.46 259.16 150.93 259.36 150.05 259.54 149.25 259.74 148.48 259.82 147.7 259.95 146.89 260.2 145.56 260.47 145.38 260.43 145.3 260.34 145.25 260.03 145.22 259.69 145.11 259.29 144.97 259.06 144.56 258.49 144.04 257.76 143.38 257.13 142.84 256.67 142.43 256.41 142.08 256.31 141.49 255.82 141.23 255.45 140.85 254.89 140.48 254.42 140.18 253.64 139.88 253.24 138.91 252.66 136.99 251.97 136.01 251.62 135.25 251.37 134.54 251.15 133.26 250.81 133.14 250.79 131.81 250.49 130.85 250.32 130.1 250.25 129.18 250.17 128 250.11 126.88 250.1 125.65 250.12 123.63 250.12 122.2 250.13 120.22 250.14 118.03 250.15 116.41 250.17 114.38 250.17 112.66 250.18 110.62 250.18 111.14 249.45 114.93 244.47 112.84 241.89 106.46 234.01 106.2 234.16 103.64 229.87 105.26 228.49 105.39 228.41 108.88 228.54 109.19 223.77 106.3 223.59 106.47 219.16 106.19 219.15 106.22 214.23 99.6 214.07 99.77 209.29 99.44 209.29 96.89 209.26 97.07 204.39 97.06 199.73 97.06 199.69 138.28 210.5 138.16 215.19 143.67 215.31 143.65 211.41 143.65 210.57 154.52 214.18 155.38 214.37 158.04 214.11 165.15 213.09 167.09 212.72 171.36 211.18 172.95 210.42 176.04 208.27 181.95 204 183.83 202.6 185.41 201.15 187.52 198.98 188.92 197.47 190.58 196.04 191.39 195.44 192.7 194.47 192.74 194.12 192.83 193.83 193.09 193.34 193.54 192.42 193.75 191.89 193.91 191.24 194.13 189.88 194.34 188.91 194.6 188.05 194.86 187.42 195.09 187.01 195.33 186.78 195.57 186.67 195.81 186.64 196.09 186.65 197.46 186.78 198.63 186.9 199.64 187.06 200.33 187.15 200.59 187.18 200.78 187.17 200.97 187.13 201.13 187.04 202.67 185.66 203.33 184.97 203.44 184.76 203.47 184.59 203.48 184.39 203.43 184.08 203.4 183.82 203.25 182.75 203.13 181.5 203.12 180.69 203.17 180.31 203.27 180.02 203.58 179.4 203.89 178.88 204.15 178.44 204.57 177.81 204.71 177.52 204.82 177.16 205.19 176.12 205.33 175.8 205.52 175.57 206.26 174.81 206.41 174.6 206.49 174.41 206.52 174.23 206.51 174.02 206.48 173.82 206.44 173.7 206.38 173.55 206.21 173.25 206.06 173.02 205.86 172.79 205.47 172.43 204.92 171.91 204.55 171.49 204.4 171.27 204.24 171.01 204.08 170.62 203.96 170.43 203.86 170.3 203.7 170.16 203.63 170.04 203.6 169.92 203.58 169.72 203.6 168.75 203.59 166.94 203.48 161.85 203.5 161.57 209.48 161.23 215.44 158.88 235.58 150.07 239.01 148.31 241.67 146.9 242.13 146.62 242.6 146.32 242.95 146.13 243.19 146.04 243.27 146.03 243.43 146.02 243.91 146.08 244.32 146.12 244.56 146.12 244.77 146.06 245.07 145.89 245.63 145.33 246.2 144.7 246.59 144.43 247.45 143.99 249.98 142.68 250.22 142.62 250.4 142.63 250.55 142.7 250.66 142.83 250.96 143.19 251.76 144.1 253.18 145.76 254.84 147.49 254.97 147.61 255.74 148.31 255.96 148.46 256.26 148.67 256.3 148.69 256.39 148.72 256.74 148.87 257.25 148.95 257.67 148.96 258.16 148.88 258.65 148.64 258.94 148.35 259.15 147.96 259.27 147.65 259.33 147.52 259.5 147.28 259.78 147.09 260.17 146.95 260.67 146.88 261.1 146.88 262.67 147.01 263.46 147.06 263.87 147.05 263.9 147.05 264.36 146.98 265.66 146.62 268.58 145.64 270.6 144.97 271.74 144.68 272.8 144.37 273.82 144.11 275.17 143.88 276.9 143.69 278.19 143.48 278.76 143.39 279.01 143.38 279.19 143.41 279.35 143.53 279.49 143.74 279.65 143.95 279.78 144.13 280.01 144.43 280.28 144.64 280.67 144.87 281.16 145.05 281.18 145.05 281.83 145.22 282.02 145.25 282.81 145.37 283.42 145.42 284.04 145.55 285.48 145.93 287.09 146.4 287.97 146.65 288.58 146.76 289.21 146.81 292.07 146.91 292.18 145.93 292.26 145.2 292.39 144.11 292.65 142.54 292.85 141.51 293.19 140.42 293.88 138.39 294.22 137.26 294.39 136.71 294.67 135.43 294.82 134.1 294.82 132.84 294.67 131.27 294.5 129.83 294.23 128.42 293.9 127.35 293.61 126.6 292.89 125.11 292.25 123.85 291.78 123.04 291.29 122.21 289.82 120.03 288.8 118.57 287.66 117.12 285.95 115.11 285.82 114.95 287.31 113.12 287.7 112.65 287.88 112.43 288.57 111.77 289.39 110.98 290.23 110.3 291.11 109.69 291.15 109.66 292.02 109.14 292.41 108.83 292.63 108.53 292.76 108.21 292.77 107.9 292.73 107.63 292.59 107.4 292.32 107.14 291.99 106.83 291.75 106.51 291.62 106.2 291.57 105.91 291.52 105.44 291.46 105.03 291.41 104.71 291.33 104.44 291.32 104.41 291.18 104.08 291.02 103.73 290.82 103.3 290.78 102.93 290.89 102.56 291.16 102.05 291.32 101.85 291.4 101.78 291.78 101.48 292.14 101.23 292.52 101.06 292.92 100.96 293.23 100.89 293.37 100.85 293.69 100.72 293.92 100.53 294.29 100.11 294.45 99.94 294.91 99.47 295.29 99.13 295.83 98.81 296.56 98.33 297 98 297.37 97.69 297.67 97.34 297.81 97.1 298.18 96.5 298.79 95.37 299.14 94.84 299.42 94.56 299.98 94.19 300.91 93.84 302.45 93.49 302.8 93.38 303.31 93.16 303.75 92.92 304.08 92.68 304.4 92.36 304.85 91.93 305.37 91.52 305.79 91.27 306.29 91.1 306.69 91 307.11 90.97 307.61 91.03 308.2 91.13 308.85 91.24 309.41 91.33 310.04 91.39 310.53 91.38 311.44 91.28 312.49 91.19 313 91.2 313.33 91.25 313.7 91.41 313.72 91.42 314.33 91.74 314.54 91.82 314.73 91.87 314.87 91.86 314.99 91.81 315.09 91.72 315.14 91.56 315.19 91.19 315.29 90.64 315.34 90.49 315.48 90.09 315.71 89.72 315.81 89.55 316.27 89.08 316.56 88.92 316.81 88.88 317.17 88.93 317.47 89.06 318.19 89.46 318.74 89.73 319.03 89.87 319.63 90.13 320.15 90.29 320.64 90.35 321.07 90.41 321.85 90.51 322.26 90.63 322.66 90.81 322.93 90.88 323.21 90.89 323.52 90.84 324.05 90.74 324.51 90.67 325.05 90.64 325.42 90.57 325.85 90.44 326.02 90.35 326.27 90.23 326.84 89.91 327.07 89.78 327.67 89.41 328.09 89.17 328.55 88.96 328.92 88.86 329.78 88.6 331.22 88.22 332.84 87.81 334.28 87.47 335.14 87.24 335.82 87.04 335.87 87.03 336.24 86.93 336.89 86.79 337.3 86.69 337.45 86.63 337.6 86.54 337.79 86.36 337.9 86.24 338.14 85.89 338.24 85.75 338.25 85.74 338.7 85.15 339.05 84.7 339.16 84.59 339.32 84.49 339.51 84.44 339.91 84.39 340.55 84.3 340.86 84.24 341.05 84.18 341.13 84.15 341.17 84.14 341.41 84.04 341.61 83.92 341.71 83.81 341.73 83.79 341.79 83.69 341.85 83.6 341.99 83.38 342.13 83.24 342.3 83.13 342.5 83.04 342.69 83 342.81 82.97 343.2 82.89 343.77 82.78 344.74 82.61 345.46 82.48 345.83 82.41 345.96 82.38 346.06 82.35 346.18 82.29 346.3 82.23 346.36 82.21 346.41 82.21 346.45 82.23 346.51 82.29 346.57 82.35 346.61 82.38 346.67 82.4 346.72 82.39 346.77 82.37 346.81 82.34 347.03 81.98 347.32 81.46 347.63 80.88 347.99 80.16 348.14 79.88 348.35 79.49 348.56 79.09 348.63 78.94 348.72 78.72 348.76 78.62 348.87 78.33 349.09 77.84 349.3 77.41 349.36 77.32 349.43 77.22 349.5 77.17 349.6 77.13 350.23 77.01 350.63 76.91 351.01 76.8 351.32 76.72 351.46 76.67 351.64 76.61 352.18 76.42 352.69 76.21 353.38 75.94 354.31 75.63 355.24 75.36 355.46 75.3 355.77 75.21 356.59 74.97 357.47 74.74 358.36 74.54 359.1 74.36 359.97 74.12 360.63 73.93 361.05 73.8 361.22 73.72 361.31 73.64 361.35 73.56 361.38 73.46 361.38 73.34 361.34 73.05 361.27 72.61 361.21 72.11 361.19 71.78 361.18 71.62 361.18 71.62 361.19 71.47 361.25 71.24 361.41 70.92 361.65 70.51 361.85 70.26 362.2 69.86 362.58 69.5 363.12 69.01 363.63 68.61 363.93 68.42 364.53 68.18 365.03 67.98 365.84 67.61 366.63 67.24 367.34 66.9 367.9 66.57 368.23 66.35 368.5 66.12 368.94 65.79 369.37 65.48 369.92 65.07 370.51 64.6 371.26 64.06 371.71 63.71 371.83 63.59 372.03 63.39 372.16 63.22 372.33 62.98 372.45 62.83 372.68 62.61 373.06 62.3 373.25 62.16 373.38 62.07 373.64 61.92 373.89 61.75 374.41 61.35 375.1 60.77 375.75 60.22 376.39 59.7 376.91 59.3 377.52 58.87 378.22 58.4 378.68 58.09 379.21 57.78 379.8 57.39 380.35 57 380.6 56.82 381.12 56.44 381.7 56.02 382.22 55.62 382.77 55.18 383 55 383.34 54.69 383.8 54.3 384.34 53.87 385.14 53.25 385.83 52.72 386.46 52.24 387.48 51.49 388.29 50.93 388.99 50.43 389.56 49.99 390.11 49.6 390.94 49.01 391.69 48.46 392.36 47.96 392.95 47.51 393.43 47.12 394.18 46.55 394.81 46.05 395.69 45.41 396.5 44.82 397.19 44.3 398.03 43.67 398.71 43.16 399.44 42.59 400.22 41.99 400.92 41.44 400.94 41.42 401.32 41.15 401.5 41.03 401.67 40.91 401.89 40.75 402.07 40.62 402.31 40.4 402.68 40.06 403.06 39.71 403.48 39.4 404.08 38.94 404.8 38.37 406.08 37.37 407.41 36.33 408.27 35.65 408.5 35.47 409.48 34.7 410.49 33.9 410.87 33.57 411.15 33.28 411.4 32.97 411.7 32.54 411.91 32.3 412.61 31.77 413.91 30.74 414.17 30.52 418.06 27.16 418.69 26.59 420.05 25.25 421.21 24.09 422.62 22.67 423.85 21.39 424.99 20.22 425.87 19.39 426.64 18.8 427.47 18.19 428.55 17.36 429.66 16.48 430.69 15.67 431.1 15.33 431.62 14.9 432.54 14.05 433.78 13.02 434.32 12.56 434.73 12.21 435.4 11.7 436.52 10.96 437.75 10.17 438.02 10 439.2 9.26 440.05 8.72 440.76 8.27 441.44 7.79 442.11 7.28 442.56 6.93 443.1 6.51 443.4 6.33 444.33 5.65 446.24 4.3 447.25 3.59 447.69 3.28 448.08 3 450.16 1.56 450.89 1.07 451.03 1 451.16 1 451.24 1.05 451.69 2.05 453.22 5.37 454.22 7.52 454.47 7.99 454.63 8.22 454.69 8.34 454.72 8.51 454.64 9 454.22 11.31 454.1 11.9 452.27 22.04 450.69 31.47 449.85 36.1 448.22 44.97 447.68 48.13 447.32 50.26 447.26 51.05 447.31 52.15 447.46 53.16 448.39 55.97 449.13 57.88 451.23 63.05 462.8 68.49 472.25 73.15 477.68 76.94 479.49 78.07 483.26 79.9 486.07 81.02 488.82 82.12 490.57 82.89 493.29 84.09 496.81 85.66 501.24 87.86 504.04 89.25 506.59 91.01 513.74 96.47 520.69 101.56 526.18 105.34 527.9 106.53 532.69 109.69 546.67 119.71 548.87 121.3 549.04 121.42 580.59 144.04 581.02 144.35 583.27 145.96 593.95 153.62 596.91 155.74 604.46 161.16 629.72 178.25 633.09 180.53 633.52 180.12 634.29 179.39 635.05 178.64 635.75 178 636.47 177.31 636.56 177.23 641.06 155.9 689.43 170.62 691.16 171.14 691.92 171.97 693.29 173.5 695.03 175.44 696.56 177.15 697.75 178.49 699.02 179.91 700.38 181.42 701.78 182.99 703.64 185.02 704.88 186.39 705.78 187.4 706.45 188.14 707.98 189.81 709.51 191.58 711.18 193.45 712.36 194.79 713.48 196.03 714.9 197.58 716.41 199.25 718.04 201.09 719.81 203.05 721.3 204.76 722.42 206.03 724.18 207.98 725.44 209.38 727.16 211.26 728.51 212.78 729.52 213.93 731.05 215.66 732.68 217.49 734.42 219.42 735.73 220.87 737.59 222.96 738.98 224.46 740.72 226.41 742.12 227.97 743.72 229.76 745.2 231.47 745.63 232.02 746.08 232.63 746.34 232.98 746.77 233.56 747.16 234.18 747.58 234.91 747.95 235.62 748.49 236.7 748.85 237.52 749.2 238.42 749.52 239.33 749.82 240.34 750.1 241.39 750.33 242.48 750.5 243.55 750.57 244.22 750.63 245.1 750.65 246.16 750.65 247.15 750.62 247.98 750.6 248.47 750.54 248.96 750.4 249.91 750.24 250.9 750.05 251.77 749.84 252.57 749.56 253.64 749.22 254.63 748.82 255.69 748.51 256.52 748.1 257.63 747.69 258.68 747.34 259.69 746.86 260.95 746.4 262.21 745.87 263.59 745.38 264.92 744.84 266.43 744.39 267.62 743.79 269.18 743.4 270.23 742.84 271.74 742.34 273.06 741.83 274.41 741.41 275.52 740.91 276.86 740.35 278.35 739.95 279.39 739.37 281 738.92 282.21 738.52 283.25 737.96 284.79 737.4 286.27 736.95 287.46 736.58 288.46 736.12 289.64 735.51 291.29 734.96 292.77 734.49 294.01 734 295.26 733.56 296.48 733.08 297.81 732.63 299.02 732.15 300.28 731.7 301.45 731.28 302.55 730.68 304.06 730.25 305.2 729.87 306.2 729.48 307.21 729.17 308.04 729.03 308.41 729 308.47 728.96 308.51 728.9 308.54 728.83 308.52 728.82 308.52 728.61 308.49 728.33 308.47 727.98 308.49 727.5 308.54 726.7 308.65 726.05 308.73 725.49 308.79 725.22 308.82 724.93 308.81 724.62 308.78 724.21 308.68 723.55 308.46 722.59 308.19 721.47 307.88 720.66 307.61 719.79 307.33 718.95 307.11 718.09 306.95 716.98 306.78 715.33 306.58 712.89 306.36 711.31 306.21 710.36 306.14 710.06 306.12 709.5 306.08 709.14 306.05 708.69 306 708.42 305.96 708.26 305.92 708.2 305.9 708.11 305.85 708.08 305.83 708.05 305.8 707.92 305.7 707.78 305.63 707.61 305.58 707.42 305.55 706.37 305.58 706.13 305.56 704.95 305.32 703.27 304.93 702.96 304.89 702.7 304.89 702.25 304.93 701.72 305.01 701.05 305.18 699.96 305.43 699.75 305.45 699.44 305.44 699.11 305.44 698.82 305.5 697.47 305.78 697.19 305.84 696.9 305.86 696.3 305.86 695.61 305.91 695.03 305.97 694.77 306.05 694.45 306.19 694.1 306.36 693.9 306.44 693.47 306.49 692.92 306.56 692.49 306.66 692.1 306.74 691.77 306.78 691.68 306.8 691.61 306.82 691.64 306.9 691.66 307.08 691.69 307.37 691.78 309.51 691.86 311.39 692.04 314.66 692.44 319.7 692.53 322.91 692.56 323.22 692.69 323.45 692.02 323.71 691.21 324.03 686.66 325 685.04 325.49 684.75 325.58 688.93 333.1 691.4 339.28 693.29 343.46 695.05 346.68 696.88 349.46 698.1 351.29 698.52 351.91 698.89 352.87 699.36 354.1 700.01 355.9 700.84 359.63 701.44 364.72 701.53 365.47 701.67 366.6 702.57 373.66 702.96 375.4 704.37 382.32 704.46 383.17 704.44 383.34 704.22 383.52 703.86 383.58 703.29 383.63 701.67 383.68 701.65 383.68 701.25 383.73 701.12 383.78 700.97 383.95 700.96 384.15 701.18 384.95 701.98 387.4 701.99 387.45 702.26 388.64 702.21 388.93 702.12 388.96 700.65 389.5 700.54 389.65 701.4 394.98 701.44 395.56 701.56 396.03 701.52 396.92 701.31 396.95 701.03 397.02 700.93 397.2 700.91 397.27 700.87 397.59 700.88 398.42 700.84 399.54 700.84 400.03 700.79 400.97 700.78 401.31 700.8 401.56 700.97 402.15 701.14 402.98 701.42 404.48 701.67 406.04 701.81 407.2 701.92 408.47 702 409.25 702.02 409.67 702 410.4 702.09 411 702.21 411.36 702.25 411.7 702.27 412.3 702.89 418.19 703.14 421.08 703.05 425.55 702.83 427.32 702.2 429.17 700.66 436.17 699.3 444.17 698.89 449.76 698.78 451.26 698.56 452.91 697.8 458.45 697.57 464.4 697.34 464.92 697.17 465.27 696.14 466.61 694.88 467.78 694.2 468.37 691.88 470 691.03 470.44 688.21 471.88 683.28 473.71 673.85 476.88 673.45 477.01 659.45 482.47 650.29 486.61 645.87 488.7 639.78 491.57 633.41 494.25 625.08 497.53 624.89 497.6 624.88 497.85 624.88 497.94 624.82 498.25 624.63 498.67 623.17 501.15 622.02 503.5 621.76 504.13 621.65 504.39 621.46 505.17 621.64 506.88 621.85 507.98 621.94 508.48 621.99 508.73 622.24 509.5 622.96 511.73 625.56 518.39 626.76 517.26 628.27 520.95 628.59 522.08 628.64 522.71 628.63 523.09 628.56 525.39 628.56 525.5 628.5 526.24 628.51 526.88 628.53 527.5 628.54 527.93 628.72 529.83 628.75 530.18 628.83 530.83 628.88 531.13 628.97 531.48 629.16 532.03 629.17 532.06 629.22 532.19 629.32 532.48 629.37 532.62 629.39 532.76 629.38 532.83 629.38 532.91 629.36 533.21 629.28 533.59 629.1 534.54 629.07 534.82 629.06 534.86 629.06 534.92 629.06 535.13 629.05 535.21 629.05 535.31 629.07 535.53 629.13 535.87 629.17 536.22 629.2 536.7 629.21 537.46 629.22 538.63 629.2 538.72 629.08 538.75 628.69 538.82 628.68 538.83 628.67 538.83 628.28 538.86 628.04 538.88 627.95 538.91 627.87 538.94 627.8 538.98 627.75 539.03 627.72 539.08 627.71 539.1 627.65 539.22 627.59 539.43 627.56 539.53 627.49 540 627.48 540.09 627.42 540.33 627.38 540.45 627.19 541.03 627.06 541.35 626.87 541.86 626.72 542.35 626.55 543.01 626.28 543.76 627.03 544 628.19 544.28 628.21 544.28 628.26 544.29 628.27 544.3 628.32 544.33 628.36 544.39 628.38 544.45 628.39 544.53 628.27 545.92 628.23 546.28 628.23 546.29 628.19 546.49 628.25 546.66 628.7 547.84 628.74 547.9 628.76 548.01 628.8 548.2 628.83 548.35 628.85 548.47 628.86 548.49 628.88 548.67 628.9 548.87 628.9 549.02 628.9 549.11 628.91 549.37 628.93 549.63 628.94 549.85 628.97 550.09 628.98 550.42 628.97 550.79 628.97 551.01 629.01 551.39 629.06 551.67 629.11 552.08 629.13 552.38 629.12 552.55 629.11 552.78 629.12 553.06 629.11 553.32 629.1 553.37 629.1 553.4 629.08 553.54 629.05 553.67 629.02 553.78 628.99 553.88 628.94 554.01 628.86 554.14 628.73 554.33 628.6 554.55 628.48 554.81 628.37 555.06 628.35 555.12 628.25 555.38 628.21 555.55 628.19 555.64 628.01 556.43 627.92 556.78 627.84 557.06 627.71 557.47 627.67 557.59 627.59 557.77 627.53 557.94 627.39 558.24 627.25 558.49 627.24 558.5 627.06 558.76 626.97 558.88 626.86 559 626.76 559.09 626.67 559.17 627.25 559.93 627.34 560.08 627.41 560.24 627.46 560.4 627.51 560.72 627.51 560.9 627.51 561.21 627.49 561.52 627.47 561.58 627.4 561.79 627.27 562.02 627.07 562.42 626.95 562.76 626.92 563.11 626.99 563.71 627.03 564.43 627.04 564.8 627.08 565.27 627.09 566.24 627.27 566.31 627.41 566.33 627.71 566.34 628.14 566.32 628.16 566.32 629.43 566.16 629.79 566.12 629.88 566.12 630.24 566.12 630.73 566.16 630.89 566.19 630.99 566.21 631.32 566.28 631.51 566.35 631.82 566.45 632.22 566.62 632.51 566.78 632.89 567.05 632.96 567.11 633.16 567.32 633.39 567.65 633.7 568.19 633.98 568.77 634.11 569.12 634.23 569.52 634.36 570.15 634.45 570.63 634.47 570.77 634.66 572.31 634.76 573.18 634.85 573.85 634.84 574.54 634.8 574.84 634.73 575.33 634.72 575.41 634.64 575.69 634.37 576.69 633.37 579.8 633.71 581.15 634.13 582.61 634.65 583.42 635 583.75 635.23 583.93 636.68 585.03 637.75 585.79 638.2 586.52 638.55 587.22 638.74 588.08 639.04 592.05 639.22 592.78 641.64 598.13 644.14 603.67 643.89 603.83 642.96 604.31 642.69 604.47 642.03 604.85 640.86 605.63 639.61 606.02 639.25 606.16 639.67 606.8 640.75 608.37 640.93 608.66 640.96 608.79 640.96 608.91 640.93 609.05 640.71 609.18 640.66 609.33 640.63 609.47 640.65 609.77 640.73 610.4 640.73 611.08 640.65 611.36 640.58 611.65 640.52 612.12 640.43 612.41 640.26 612.74 639.81 613.25 639.67 613.37 639.67 613.5 639.91 614.05 640.34 614.83 641.07 616.25 642.09 618.06 648.35 626.6 648.66 626.43 648.76 626.39 648.89 626.38 649.07 626.38 649.25 626.38 649.41 626.39 649.56 626.37 649.71 626.35 649.99 626.28 651.19 625.95 651.81 625.75 652.01 625.67 652.2 625.58 652.86 625.23 653.05 625.12 653.16 625.03 653.36 624.84 653.99 624.27 654.14 624.15 654.15 624.15 654.26 624.07 654.39 623.98 654.51 623.9 654.62 623.85 654.71 623.81 654.77 623.79 654.86 623.77 654.97 623.76 655.09 623.75 655.21 623.75 655.35 623.76 655.44 623.78 655.56 623.79 655.85 623.86 656.05 623.9 656.15 623.91 656.23 623.91 656.31 623.9 656.38 623.89 656.39 623.88 656.46 623.85 656.51 623.82 656.54 623.77 656.57 623.72 656.6 623.66 656.63 623.59 656.65 623.48 656.72 623.08 656.78 622.85 656.81 622.72 656.84 622.66 656.88 622.59 656.93 622.54 656.99 622.48 657.03 622.44 657.06 622.42 657.11 622.39 657.14 622.38 657.22 622.35 657.29 622.33 657.37 622.31 657.48 622.3 657.58 622.29 657.65 622.29 657.76 622.3 657.85 622.3 658.28 622.31 658.45 622.32 658.54 622.31 658.69 622.3 658.76 622.28 658.9 622.25 659.02 622.21 659.25 622.15 659.33 622.11 659.44 622.07 659.54 622.02 659.95 621.81 660.08 621.73 660.42 621.51 660.52 621.44 660.65 621.34 660.82 621.2 660.9 621.14 661.04 621.05 661.19 620.98 661.26 620.95 661.49 620.87 662.4 622.76 663.54 625.09 665.19 627.29 665.92 628.69 666.05 628.64 666.21 628.56 668.88 627.26 669.28 627.18 669.59 627.15 669.92 627.19 670.23 627.22 671.24 627.32 671.41 627.34 671.84 627.47 672.15 627.64 672.57 628.01 672.84 628.46 673.07 629.04 673.12 629.15 673.26 629.62 673.32 630.19 673.33 630.23 673.28 630.76 673.08 631.49 672.87 631.99 672.87 632 672.87 632 671.16 635.08 670.94 635.35 670.67 635.46 670.14 635.53 670.13 635.53 669.59 635.55 668.92 635.54 668.89 635.81 669.49 638.57 669.6 638.73 670.1 638.87 671.47 639.15 672.58 639.32 673.6 639.44 674.29 639.47 674.71 639.47 675.31 639.47 676.33 639.41 676.69 639.45 677.12 639.58 677.65 639.77 678.24 640.01 678.77 640.24 679.35 640.5 679.99 640.82 680.95 641.3 681.54 641.56 682.04 641.7 682.49 641.74 682.92 641.73 683.3 641.7 683.78 641.63 684.2 641.51 684.67 641.25 685.05 641.01 685.47 640.69 685.8 640.37 686.07 640.03 686.34 639.71 686.57 639.43 686.82 639.2 687.11 639.01 687.57 638.78 688.21 638.48 688.66 638.36 688.96 638.31 689.28 638.29 689.77 638.3 690.41 638.32 690.8 638.38 691.06 638.44 691.29 638.54 691.5 638.66 691.73 638.87 692.11 639.19 692.6 639.63 693.07 640.05 693.41 640.32 693.96 640.7 694.38 640.94 695.03 641.19 695.37 641.28 695.74 641.3 696 641.29 696.32 641.24 696.62 641.16 696.85 641.13 697.26 641.15 698.08 641.21 699.24 641.33 699.61 641.37 700.28 641.45 700.73 641.49 702.36 641.58 702.97 641.59 703.39 641.66 703.93 641.78 704.03 641.85 704.03 641.93 703.85 642.65 703.66 642.65 702.86 642.68 702.07 642.69 700.32 642.65 699.73 642.66 699.22 642.67 698.91 642.69 698.78 642.71 698.64 642.74 698.54 642.77 698.44 642.81 698.35 642.87 698.28 642.93 698.23 642.99 698.17 643.1 697.84 643.94 697.04 645.88 696.32 647.69 695.74 649.08 695.28 650.08 695.24 650.22 695.2 650.3 695.12 650.39 695.03 650.48 694.93 650.6 694.83 650.72 694.75 650.85 694.64 651.02 694.54 651.19 694.45 651.35 694.35 651.51 694.29 651.61 694.24 651.73 694.2 651.85 694.14 652.04 694.09 652.23 694.05 652.54 694.01 652.76 693.99 652.9 693.96 653.01 693.88 653.24 693.73 653.59 693.24 654.71 693.15 654.9 693.11 654.97 693.03 655.03 692.91 655.11 691.74 655.62 691.39 655.77 691.17 655.86 691.06 655.93 690.96 656.07 690.83 656.29 690.72 656.36 689.49 657.06 689.31 657.15 691.74 662.07 692.03 662.88 692.46 664.95 692.49 665.48 692.48 665.93 692.41 666.36 692.34 666.6 689.72 666.81 689.7 666.81 689.68 666.99 689.69 667.6 689.71 667.88 689.74 668.19 689.72 668.35 689.66 668.65 689.64 668.76 689.61 668.88 689.59 668.95 689.07 670.61 689 670.82 688.9 671.12 688.81 671.34 688.71 671.51 688.59 671.66 688.54 671.72 688.42 671.88 688.33 672.01 688.3 672.05 688.17 672.24 688.08 672.39 688.01 672.52 687.94 672.69 687.88 672.91 687.82 673.17 687.78 673.44 687.77 673.68 687.76 673.89 687.78 674.22 687.82 675.4 687.86 675.69 687.93 676.25 687.93 676.3 688.24 678.66 688.42 679.76 688.49 680.1 688.6 680.64 688.76 681.29 688.87 681.69 688.94 682 689.06 682.41 689.07 682.43 689.2 682.9 689.29 683.17 689.42 683.48 689.66 684.06 689.8 684.37 689.89 684.55 690 684.7 690.1 684.81 690.26 684.97 690.42 685.09 690.56 685.18 690.61 685.21 690.72 685.27 691.1 685.4 691.4 685.51 691.61 685.59 691.78 685.66 691.99 685.79 692.42 686.07 692.7 686.24 693.61 686.8 693.73 686.87 693.85 686.93 693.99 686.98 694.21 687.02 694.46 687.06 695.11 687.12 696.45 687.16 696.65 687.16 696.84 687.15 697.07 687.12 697.1 687.12 697.34 687.07 697.5 687.04 697.64 687.03 697.79 687.02 697.95 687.03 698.16 687.07 698.61 687.18 698.62 687.19 698.94 687.25 699.13 687.27 699.35 687.27 699.95 687.28 700.62 687.26 701.82 687.22 703.36 687.17 703.72 687.17 704.48 687.19 705.44 687.2 705.77 687.21 708.76 687.24 708.93 687.25 709.07 687.27 709.28 687.31 709.5 687.36 709.51 687.36 710.08 687.55 710.35 687.63 710.58 687.68 710.79 687.71 710.98 687.71 711.15 687.7 711.34 687.67 711.63 687.61 712.51 687.35 712.76 687.28 713.76 686.97 714.62 686.73 715.16 686.61 715.51 686.56 715.83 686.5 717.32 686.24 717.46 686.22 717.61 686.23 717.78 686.25 718.11 686.31 718.62 686.46 719.07 686.62 719.48 686.78 719.87 686.96 720.1 687.11 720.3 687.24 720.54 687.4 720.58 687.44 720.66 687.52 720.75 687.61 721.01 687.91 721.06 687.96 721.07 687.98 721.3 688.25 721.6 688.62 721.74 688.81 721.77 688.88 721.8 688.93 721.86 689.05 722.03 689.39 722.43 690.2 722.62 690.59 722.74 690.84 722.85 691.03 722.94 691.23 723 691.39 723.04 691.56 723.09 691.74 723.13 692.03 723.21 692.86 723.26 693.88 723.27 694.26 723.28 694.72 723.3 694.97 723.32 695.15 723.35 695.38 723.39 695.52 723.43 695.71 723.6 696.25 723.91 697.26 724 697.49 724.04 697.68 724.12 698.08 724.14 698.31 724.16 698.54 724.23 699.48 724.26 699.95 724.27 700.11 724.27 700.36 724.27 702.32 724.25 702.48 724.2 702.69 724.11 702.95 724.09 702.99 723.97 703.32 723.9 703.54 723.67 704.18 723.58 704.44 723.57 704.47 723.51 704.65 723.47 704.87 723.23 706.27 723.19 706.51 723.14 706.7 723.02 707.14 722.65 708.26 722.6 708.52 722.42 709.31 722.27 709.95 722.21 710.22 722.1 710.72 722.02 711.03 721.92 711.6 721.85 712.04 721.79 712.5 721.77 712.69 721.76 712.95 721.73 713.91 721.71 714.09 721.66 714.84 721.61 715.47 721.58 715.62 721.57 715.66 721.53 715.77 721.35 716.34 721.25 716.63 721.22 716.8 721.22 716.92 721.24 717.09 721.32 717.48 721.38 717.68 721.47 717.89 721.6 718.12 721.72 718.28 721.85 718.42 721.99 718.53 722.02 718.55 722.13 718.61 722.27 718.69 722.32 718.72 722.48 718.79 722.61 718.87 722.71 718.97 722.79 719.11 723.58 720.8 723.69 720.98 723.82 721.12 724.48 721.98 724.7 722.32 724.89 722.63 724.98 722.78 725.08 722.93 724.7 723.27 723.34 724.69 721.99 725.96 719.89 727.82 719.65 727.93 719.39 727.9 718.98 727.81 718.87 727.84 718.56 728.67 718.36 729.35 718.23 729.77 718.12 730.31 717.94 730.85 717.6 731.59 717.15 732.61 716.87 733.26 716.69 733.7 716.56 733.91 716.41 734.11 715.53 734.96 714.56 736.05 714.02 736.72 713.92 736.78 713.79 736.77 713.22 736.67 713.15 736.69 713.11 736.77 713 737.7 713 738.14 712.95 738.73 712.89 739.06 713.59 739.39 713.62 739.5 712.1 742.93 713.14 743.24 714.18 743.54 715.3 743.72 716.07 743.84 716.17 743.94 716.29 744.51 716.41 744.61 717.31 744.61 716.4 747.55 716.28 748.02 716.4 749.4 716.52 749.86 716.34 750.87 716.87 750.58 717.84 750.23 718.56 750.06 719.05 750 719.66 750.03 722.97 751.11 723.85 751.39 724.8 751.7 725.68 752 726.55 752.27 727.3 752.37 727.37 752.39 727.57 752.45 727.62 752.52 727.7 753.99 727.78 754.07 728.02 754.07 728.37 754.1 728.41 754.2 728.42 754.92 728.42 754.92 728.42 755.96 728.42 756.16 728.42 757.07 734.98 758.07 735.34 758.24 735.5 758.42 735.55 758.73 735.56 759.12 735.64 759.24 736.96 759.65 737.92 760.1 738.67 760.55 739.47 761.03 740.39 761.83 739.56 763.16 739.53 763.25 739.55 763.4 740.07 763.71 740.55 764.03 740.82 764.21 740.81 764.27 740.12 765.47 740.05 765.58 740.08 765.6 740.27 765.7 741.11 766.12 741.56 766.32 741.1 767.24 740.54 767.89 740.32 768.16 739.55 770.53 739.49 770.56 739.12 770.51 739.01 770.51 738.92 771.4 738.88 772.43 738.84 773.65 738.77 774.07 738.5 774.62 738.2 775.02 737.92 775.4 737.69 775.59 737.59 775.67 737.46 775.79 736.96 776.11 736.73 776.33 736.7 776.48 736.82 776.93 737.1 777.61 737.32 778.01 737.46 778.29 737.6 778.55 737.98 779.25 738.39 779.8 737.76 780.97 737.15 782.06 736.77 782.74 737.08 782.87 737.12 782.89 740.81 784.42 743.22 785.38 749.91 788.06 753.21 790.43 757.4 793.37 762.31 796.55 764.2 797.72 767.88 799.91 767.92 799.94 770.84 801.53 772.57 802.34 774.38 803.09 775.81 803.62 784.75 806.85 774.15 818.9 773.95 819.13 772.16 821.17 769.52 823.98 768.36 825.09 765.83 827.65 762.86 831.06 760.54 833.67 759.7 834.53 758.53 835.5 758.43 835.59 758.25 835.74 758.11 835.87 757.55 836.37 755.58 837.94 754.56 838.21 754.48 838.23 753.55 838.37 753.12 838.43 752.64 838.48 752.41 838.5 752.22 838.51 752.13 838.51 751.97 838.49 751.89 838.48 751.83 838.46 751.75 838.42 751.59 838.33 751.43 838.28 751.37 838.27 751.29 838.26 751 838.25 750.82 838.25 750 838.3 749.73 838.34 749.65 838.36 749.53 838.4 749.47 838.43 749.39 838.48 749.32 838.54 749.2 838.65 748.96 838.95 748.71 839.23 748.42 839.53 748.3 839.63 747.69 839.96 747.61 839.99 747.59 840.02 747.57 840.05 747.56 840.08 747.56 840.13 747.57 840.2 747.59 840.44 747.59 840.52 747.59 840.56 747.57 840.58 747.55 840.61 747.27 840.9 747.21 840.98 748.88 842.44 749 842.56 749.12 842.68 749.21 842.82 749.32 842.98 749.44 843.2 749.56 843.46 749.64 843.68 749.7 843.91 749.75 844.17 749.78 844.34 749.8 844.56 749.8 844.58 749.81 844.8 749.79 845.09 749.75 845.39 749.71 845.58 749.69 845.73 749.67 845.88 749.67 846.02 749.67 846.11 749.69 846.27 749.74 846.55 749.8 846.76 749.84 846.88 749.91 847.02 750.01 847.21 750.33 847.68 750.46 847.85 750.82 848.26 751.37 848.86 751.94 849.39 752.01 849.45 752.14 849.53 752.27 849.6 752.38 849.65 752.5 849.7 752.7 849.75 753.02 849.81 753.17 849.84 753.31 849.87 753.44 849.91 753.55 849.96 753.64 850.01 753.73 850.06 753.91 850.17 754.05 850.27 754.19 850.38 754.33 850.49 754.52 850.67 755.27 851.44 755.35 851.52 755.55 851.68 755.64 851.75 755.84 851.87 756 851.96 756.2 852.05 756.52 852.2 756.59 852.22 756.77 852.29 756.84 852.32 756.9 852.38 756.94 852.43 756.98 852.5 757 852.6 757 852.68 756.99 852.76 756.96 852.84 756.93 852.9 756.87 852.99 756.69 853.24 756.4 853.64 755.7 854.53 755.04 855.26 754.87 855.48 754.79 855.6 754.7 855.75 754.63 855.88 754.57 856.01 754.53 856.14 754.51 856.17 754.48 856.34 754.46 856.44 754.44 856.58 754.43 856.76 754.43 856.86 754.43 856.97 754.45 857.09 754.48 857.21 754.53 857.32 754.6 857.47 754.65 857.55 755.14 858.27 755.3 858.53 755.39 858.68 755.66 859.16 755.79 859.38 755.85 859.53 756.21 860.4 756.29 860.55 756.38 860.69 756.46 860.81 756.54 860.91 756.63 861 756.75 861.11 756.86 861.19 757.13 861.36 757.26 861.44 757.34 861.51 757.38 861.59 757.42 861.7 757.44 861.79 757.44 861.93 757.43 862.1 757.41 862.22 757.37 862.38 757.3 862.58 757.21 862.75 757.13 862.86 757.11 862.9 757 863.02 756.9 863.09 756.79 863.15 756.65 863.21 755.29 863.75 754.51 864.03 754.42 864.04 754.4 864.05 754.31 864.06 754.29 864.06 754.18 864.06 753.32 864.04 752.93 864.04 752.74 864.03 752.6 864.04 752.48 864.07 752.38 864.12 752.26 864.19 752.16 864.28 752.02 864.48 751.66 865 751.59 865.1 751.47 865.26 751.38 865.38 751.22 865.6 751.08 865.8 750.95 866.01 750.87 866.18 750.77 866.45 750.69 866.68 750.59 867.09 750.52 867.38 750.52 867.41 750.5 867.53 750.48 867.68 750.48 867.81 750.49 867.93 750.52 868.04 750.57 868.15 750.62 868.24 750.71 868.35 750.89 868.56 750.97 868.67 751.03 868.79 751.08 868.89 751.13 869.01 751.18 869.18 751.23 869.47 751.28 869.79 751.31 869.97 751.35 870.1 751.4 870.22 751.48 870.35 751.58 870.47 751.68 870.58 751.78 870.64 751.89 870.69 753.06 871.06 753.81 871.3 754.34 871.48 754.41 871.51 754.47 871.55 754.5 871.6 754.54 871.69 754.58 871.85 754.62 872.07 754.65 872.27 754.68 873.08 754.7 873.17 754.73 873.26 754.77 873.34 754.85 873.43 754.95 873.53 755.11 873.67 755.21 873.74 755.73 874.06 756.32 874.51 756.55 874.71 756.84 874.97 756.89 875.04 756.93 875.12 756.95 875.21 756.97 875.33 756.99 876.04 756.99 876.11 756.93 876.5 756.89 876.63 756.84 876.74 756.78 876.86 756.71 876.94 756.63 877.02 756.57 877.06 756.54 877.08 756.39 877.18 756.27 877.26 756.15 877.33 756.07 877.4 756.04 877.45 755.97 877.55 755.77 877.78 755.7 877.9 755.63 878.03 755.58 878.15 755.54 878.26 755.53 878.3 755.5 878.38 755.47 878.5 755.44 878.63 755.42 878.76 755.41 879.05 755.41 879.18 755.42 879.27 755.43 879.36 755.46 879.43 755.5 879.51 755.59 879.65 755.71 879.8 755.85 879.95 756.48 880.54 756.77 880.78 756.95 880.92 758.09 881.82 758.17 881.89 758.26 881.92 758.39 881.98 758.54 882.03 758.65 882.09 758.78 882.15 758.92 882.23 759.06 882.33 759.25 882.48 759.67 882.87 759.92 883.12 760.29 883.5 760.39 883.62 761.25 884.66 761.59 885.07 761.95 885.56 762.02 885.69 762.05 885.79 762.07 885.94 762.07 886.13 762.05 886.23 762.02 886.32 761.97 886.41 761.75 886.79 761.63 886.98 761.59 887.08 761.58 887.1 761.32 887.78 761.27 887.92 761.24 888.04 761.22 888.16 761.19 888.37 761.18 888.41 761.15 888.67 761.1 889.26 761.09 889.47 761.08 889.59 761.07 889.9 761.08 890.21 761.08 890.51 761.09 890.68 761.1 890.8 761.12 890.92 761.16 891.23 761.19 891.47 761.26 891.86 761.32 892.32 761.47 892.99 761.6 893.54 761.67 893.86 761.68 893.92 761.7 894 761.76 894.35 761.77 894.56 761.76 894.81 761.76 894.83 761.74 895.09 761.74 895.1 761.71 895.36 761.7 895.45 761.63 895.67 761.54 895.93 761.37 896.31 761.13 896.73 761.1 896.78 761.01 896.98 760.93 897.21 760.92 897.27 760.86 897.49 760.74 897.97 760.71 898.21 760.67 898.45 760.66 898.71 760.65 899.12 760.63 899.43 760.6 899.64 760.57 899.78 760.56 899.8 760.57 899.93 760.58 899.97 760.58 899.98 760.58 900.02 760.63 900.27 760.77 900.74 760.93 901.2 761.07 901.6 761.13 901.73 761.79 902.95 762.17 903.56 762.29 903.77 762.81 904.77 763.46 905.94 763.92 906.74 764.08 906.97 764.34 907.31 764.63 907.7 765.04 908.18 765.37 908.51 765.84 908.92 766.37 909.41 766.53 909.56 765.58 909.99 764.43 910.2 762.76 910.37 762.06 910.47 761.82 910.59 761.43 911.08 761.04 911.29 759.08 912.02 758.46 912.13 757.99 912.24 757.6 912.4 755.84 914.06 755.65 914.44 755.68 914.64 755.92 915.24 756 915.58 755.95 916.07 755.99 916.52 756.18 916.84 757.73 918.17 757.73 918.17 757.92 918.02 758.1 917.9 758.43 917.74 758.76 917.61 759.27 917.4 759.83 917.16 760.36 916.95 760.82 916.77 761.08 916.7 761.42 916.66 761.71 916.64 761.95 916.65 762.2 916.67 762.51 916.71 762.78 916.77 762.95 916.83 763.08 916.9 763.17 916.97 763.24 917.06 763.27 917.16 763.3 917.35 763.36 917.8 763.42 918.1 763.47 918.24 763.56 918.38 763.63 918.47 763.73 918.53 763.86 918.56 764.08 918.58 764.45 918.59 764.78 918.61 764.93 918.63 765.06 918.66 765.16 918.7 765.24 918.77 765.28 918.83 765.3 918.92 765.3 919.08 765.28 919.3 765.25 919.68 765.23 919.97 765.23 920.45 765.25 920.79 765.3 920.99 765.35 921.15 765.45 921.35 765.55 921.51 765.68 921.67 765.71 921.7 766 921.87 766.46 922.14 767.18 922.23 767.3 922.24 768.25 922.28 769.08 922.5 769.97 922.84 770.8 923.14 771.61 923.44 772.34 923.8 772.63 923.88 772.72 924.9 772.74 926.07 772.63 926.84 772.54 927.23 772.23 927.46 771.5 927.52 771.09 927.43 770.82 927.05 770.56 926.9 769.85 926.79 767.58 927.16 766.39 927.43 765.65 927.61 765.11 927.67 764.43 927.67 763.65 927.66 763.42 927.69 763.39 927.7 763.26 927.75 763.15 927.88 763.08 928.13 763.03 928.89 762.95 929.98 762.92 930.57 762.92 931.34 762.92 931.53 762.91 931.68 762.86 931.8 762.78 931.89 762.7 931.93 762.6 931.99 762.32 932.15 762.27 932.17 762.09 932.23 761.99 932.27 761.8 932.33 761.5 932.39 761.11 932.45 760.85 932.49 760.4 932.55 760.36 932.56 760.28 932.57 760.18 932.59 760.08 932.63 760.01 932.66 759.9 932.75 759.88 932.77 759.81 932.86 759.78 932.91 759.75 932.95 759.53 933.33 759.23 933.81 758.97 934.24 758.73 934.64 758.64 934.85 758.48 935.25 758.47 935.26 758.43 935.37 758.39 935.62 758.35 935.85 758.28 936.12 758.26 936.19 758.36 936.26 759.59 937.11 762.15 938.71 763.21 939.37 766.75 940.95 770.55 942.55 774.13 943.62 779.38 944.85 783.51 946.22 786.73 947.98 789.07 949.54 790.59 951.14 792.52 953.24 793.37 954.72 793.78 955.44 795.03 957.87 795.45 958.68 796.45 961.97 797.11 965.64 797.29 966.61 797.45 967.08 798.28 969.44 798.67 970.56 799 971.5 798.82 971.77 798.24 972.64 797.51 973.81 797.38 974.07 797.31 974.19 797.23 974.29 795.83 975.97 795.75 976.06 795.51 976.31 795.32 976.45 795.14 976.57 794.98 976.66 794.84 976.72 794.69 976.77 794.62 976.8 794.59 976.81 794.48 976.83 794.35 976.84 794.13 976.85 793.83 976.85 793.69 976.85 793.55 976.84 793.25 976.82 792.26 976.68 792.08 976.65 791.95 976.64 791.84 976.63 791.66 976.65 791.36 976.69 791.03 976.75 790.84 976.8 790.69 976.87 790.57 976.95 790.4 977.09 790.17 977.31 789.91 977.57 789.8 977.67 789.63 977.79 789.47 977.88 789.3 977.96 789.17 978.03 789.03 978.08 788.81 978.16 788.64 978.22 788.52 978.26 788.34 978.34 787.59 978.79 787.44 978.92 786.69 979.62 786.56 979.76 786.3 980.06 786.16 980.27 786.06 980.44 785.99 980.62 785.94 980.79 785.9 980.95 785.87 981.12 785.86 981.27 785.86 981.5 785.89 981.69 785.94 981.99 786.04 982.39 786.1 982.6 786.24 983.05 786.4 983.48 786.76 984.44 786.78 984.5 786.88 984.83 787.01 985.26 787.08 985.54 787.57 988.06 787.63 988.26 787.68 988.4 788.1 988.56 788.49 988.73 788.63 988.8 788.73 988.85 788.9 988.94 789.08 989.08 789.26 989.27 789.48 989.52 789.7 989.81 789.89 990.1 790.02 990.39 790.15 990.73 790.16 990.75 790.27 991.26 790.32 991.66 790.37 992.04 790.38 992.8 790.37 993.16 790.34 993.46 790.3 993.71 790.24 993.95 790.12 994.22 789.98 994.47 789.78 994.74 789.59 994.97 789.37 995.17 788.85 995.62 788.31 996.08 787.35 996.73 786.93 997.02 786.41 997.37 786.2 997.48 785.94 997.59 785.82 997.62 785.43 997.71 785.04 997.79 784.71 997.83 783.14 997.86 782.62 997.88 782.16 997.89 781.51 997.85 781.07 997.78 780.75 997.73 780.45 997.66 780.15 997.57 779.67 997.4 779.54 997.35 778.77 997 777.91 996.6 777.28 996.31 777.03 996.18 776.78 996.08 776.51 996 775.91 995.86 775.26 995.75 774.83 995.71 774.46 995.71 774.21 995.72 773.97 995.76 773.72 995.86 773.06 996.19 772.17 996.65 771.7 996.95 771.42 997.16 771.21 997.34 771.21 997.34 771.02 997.54 770.85 997.79 770.69 998.04 770.55 998.33 770.34 998.84 770.29 998.97 769.79 1000.33 769.73 1000.54 769.7 1000.64 769.61 1001.08 769.5 1001.8 769.41 1002.5 769.39 1002.81 769.39 1002.87 769.43 1003.53 769.46 1003.75 769.49 1003.88 769.53 1004.08 769.56 1004.26 769.78 1005.15 769.85 1005.32 769.88 1005.38 769.94 1005.47 770.03 1005.59 770.27 1005.89 770.59 1006.32 770.61 1006.34 770.83 1006.63 771.03 1006.94 771.65 1008.1 771.8 1008.39 771.87 1008.6 771.93 1008.82 771.95 1009.03 771.94 1009.24 771.93 1009.44 771.89 1009.62 771.82 1009.87 771.81 1009.9 771.68 1010.22 771.53 1010.5 771.4 1010.71 771.22 1010.92 771.03 1011.14 770.8 1011.34 770.73 1011.39 770.52 1011.56 770.25 1011.74 770.01 1011.88 769.89 1011.95 769.46 1012.18 768.97 1012.41 768.62 1012.55 768.29 1012.67 766.75 1013.09 765.38 1013.46 765.02 1013.55 764.72 1013.63 764.15 1013.78 763.69 1013.92 763.3 1014.08 762.98 1014.22 762.6 1014.45 762.28 1014.68 762.05 1014.86 761.77 1015.13 761.55 1015.35 761.51 1015.4 761.36 1015.6 761.21 1015.84 761.06 1016.15 760.93 1016.45 760.83 1016.78 760.74 1017.08 760.73 1017.13 760.66 1017.39 760.61 1017.68 760.59 1017.95 760.59 1018.09 760.59 1018.17 760.6 1019.84 760.63 1020.12 760.66 1020.39 760.73 1020.66 760.73 1020.67 760.8 1020.91 760.85 1021.06 760.87 1021.11 760.96 1021.28 761.13 1021.5 761.23 1021.61 761.24 1021.63 762.08 1022.59 764 1024.82 764.07 1024.93 764.21 1025.28 764.29 1025.54 764.58 1026.58 764.62 1026.75 764.66 1027.01 764.71 1027.31 764.96 1028.79 765.1 1029.83 765.24 1030.87 765.27 1031.1 765.4 1032.12 765.54 1032.92 765.66 1033.56 765.73 1034.06 765.77 1034.53 765.79 1035.17 765.78 1035.24 765.74 1035.52 765.72 1035.61 765.45 1036.4 765.42 1036.46 765.26 1036.76 765.13 1036.95 765.01 1037.1 764.66 1037.55 764.6 1037.61 763.98 1038.18 763.87 1038.28 763.69 1038.4 762.61 1038.93 762.49 1038.97 762.36 1039.01 762.24 1039.03 761.79 1039.08 761.46 1039.1 761.33 1039.09 760.81 1039.06 760.69 1039.04 760.54 1039.02 760.24 1038.97 759.72 1038.88 759.54 1038.83 759.39 1038.79 759.18 1038.73 758.86 1038.61 758.45 1038.49 758.21 1038.4 757.95 1038.32 757.77 1038.25 757.52 1038.15 757.42 1038.1 757.28 1038.04 757.25 1038.03 756.63 1037.81 756.43 1037.75 756.3 1037.72 756.1 1037.68 755.95 1037.66 755.81 1037.65 755.68 1037.64 755.29 1037.67 754.57 1037.7 754.45 1037.72 754.31 1037.75 754.1 1037.8 753.95 1037.85 753.81 1037.9 753.69 1037.95 753.54 1038.03 753.43 1038.1 753.36 1038.16 753.26 1038.24 753.17 1038.32 753.09 1038.41 752.97 1038.55 752.69 1038.88 752.31 1039.31 752.08 1039.61 751.9 1039.84 751.74 1040.07 751.65 1040.14 751.58 1040.18 751.54 1040.21 751.41 1040.27 751.23 1040.31 751.02 1040.32 750.78 1040.32 750.65 1040.34 750.54 1040.37 750.48 1040.39 750.4 1040.45 750.35 1040.5 750.15 1040.51 750.01 1040.51 749.94 1040.48 749.85 1040.4 749.71 1040.24 749.47 1039.84 749.12 1039.07 748.98 1038.74 748.93 1038.55 748.86 1038.27 748.77 1037.66 748.75 1037.53 748.75 1037.48 748.76 1037.43 748.78 1037.4 748.83 1037.37 749 1037.29 749.1 1037.25 749.14 1037.22 749.15 1037.18 749.16 1037.11 749.15 1037.03 749.13 1036.92 749.04 1036.63 748.94 1036.37 748.75 1036 748.55 1035.65 748.37 1035.36 748.35 1035.31 748.21 1035.11 748.05 1034.94 747.89 1034.78 747.67 1034.62 747.53 1034.53 747.32 1034.44 747.15 1034.37 746.82 1034.26 746.4 1034.15 745.88 1034.03 744.63 1033.76 743.45 1033.51 742.82 1033.39 742.66 1033.35 742.46 1033.26 742.29 1033.17 742.11 1033.05 741.98 1032.95 741.77 1032.77 741.58 1032.62 741.39 1032.5 741.17 1032.35 740.83 1032.14 740.4 1031.93 739.9 1031.7 739.34 1031.48 738.6 1031.11 737.62 1030.65 737.21 1030.41 736.45 1029.96 735.84 1029.62 735.58 1029.46 735.36 1029.37 735.17 1029.31 734.98 1029.26 734.77 1029.24 734.59 1029.23 734.41 1029.24 734.2 1029.28 734.01 1029.36 733.78 1029.5 733.49 1029.74 733.07 1030.1 732.59 1030.55 732.27 1030.9 732.01 1031.26 731.67 1031.82 731.46 1032.16 731.34 1032.31 731.01 1032.58 730.19 1033.27 729.61 1033.77 729.42 1034 729.23 1034.3 729.01 1034.67 728.91 1034.92 728.82 1035.27 728.67 1035.94 728.55 1036.39 728.34 1037.03 728.16 1037.41 728.06 1037.61 727.58 1038.04 726.27 1039.02 724.68 1040.03 723.01 1040.98 721.71 1041.49 720.42 1041.96 720.3 1041.99 719.85 1042 718.48 1041.92 717.04 1041.83 714.97 1041.54 714.11 1041.41 711.78 1041.18 710.17 1040.94 709.63 1040.89 709.57 1040.9 707.06 1041.31 705.28 1041.43 704.97 1041.31 704.58 1041.02 704.43 1040.99 704.05 1041.11 703.24 1041.36 701.66 1041.95 701.51 1041.93 701.41 1041.86 700.58 1040.16 700.55 1040.11 700.33 1039.81 700.23 1039.74 699.52 1039.27 699.2 1038.95 698.19 1037.4 696.2 1033.18 696.08 1032.86 695.9 1032.86 695.36 1032.9 693.57 1033.35 692.22 1033.63 691.35 1033.8 691.32 1033.37 689.88 1033.62 688 1033.95 687.1 1034.17 686.62 1034.21 685.64 1034.02 684.2 1033.42 683.38 1033.09 682.67 1032.71 681.85 1032.07 680.17 1030.82 679.87 1030.63 679.69 1030.41 679.63 1030.25 679.62 1030.21 679.5 1029.97 679.43 1029.9 679.32 1029.88 679.06 1029.88 678.63 1029.86 678.03 1029.8 677.39 1029.7 676.62 1029.5 676.26 1029.44 675.31 1029.24 674.66 1029.15 673.03 1029.13 671.76 1029.28 670.54 1029.67 669.96 1029.68 668.31 1029.86 668 1029.89 667.88 1029.39 667.67 1027.31 667.5 1025.68 667.45 1025.15 667.39 1024.52 667.25 1024.52 665.5 1024.73 663.95 1024.72 661.15 1024.6 657.16 1024.21 656.95 1024.19 653.58 1024.46 652.06 1024.32 649.19 1024.08 647.59 1023.75 645.92 1023.49 644.37 1023.51 642.08 1023.84 640.52 1023.97 640.45 1023.98 640.36 1024.01 640.27 1024.05 640.05 1024.12 639.88 1024.17 639.74 1024.19 639.58 1024.21 639.34 1024.21 639.07 1024.22 638.89 1024.23 638.58 1024.25 638.18 1024.33 638.07 1024.35 637.95 1024.4 637.82 1024.47 637.8 1024.48 637.57 1024.58 637.37 1024.69 637.19 1024.75 637.04 1024.8 636.86 1024.83 636.65 1024.85 636.25 1024.86 636.07 1024.86 635.96 1024.88 635.89 1024.91 635.85 1024.96 635.81 1025.03 635.76 1025.14 635.7 1025.28 635.66 1025.34 635.6 1025.38 635.54 1025.4 635.35 1025.43 635.09 1025.47 634.95 1025.48 634.87 1025.48 634.79 1025.46 634.72 1025.45 634.66 1025.44 634.59 1025.44 634.4 1025.44 633.96 1025.38 633.61 1025.34 633.14 1025.23 632.75 1025.14 632.4 1025.05 632.13 1024.98 632.01 1024.96 631.7 1024.85 631.45 1024.76 631.15 1024.62 630.97 1024.53 630.69 1024.41 630.46 1024.28 630.21 1024.18 629.87 1024.04 629.76 1023.94 629.71 1023.81 629.68 1023.65 629.63 1023.47 629.57 1023.31 629.5 1023.15 629.39 1023 629.28 1022.89 629.15 1022.77 629 1022.65 628.81 1022.52 628.69 1022.45 628.58 1022.43 628.45 1022.44 628.11 1022.53 627.92 1022.61 627.74 1022.71 627.36 1022.97 627.15 1023.14 626.88 1023.33 626.7 1023.45 626.49 1023.59 626.37 1023.72 626.21 1023.88 626.09 1024.02 625.97 1024.09 625.85 1024.13 625.7 1024.17 625.53 1024.23 625.46 1024.27 625.41 1024.32 625.4 1024.38 625.41 1024.46 625.42 1024.55 625.41 1024.62 625.36 1024.65 625.1 1024.76 624.43 1025.1 623.88 1025.35 623.27 1025.62 622.7 1025.88 622.05 1026.17 621.42 1026.37 621.13 1026.49 620.96 1026.59 620.84 1026.69 620.72 1026.82 620.71 1026.86 620.62 1027.05 620.52 1027.29 619.74 1027.37 619.69 1027.39 619.59 1027.47 619.49 1027.59 619.38 1027.75 619.24 1027.84 619.07 1027.88 618.92 1027.87 618.76 1027.8 618.56 1027.64 618.52 1027.6 618.47 1027.55 618.4 1027.47 618.26 1027.29 618.1 1027.12 617.92 1027.01 617.63 1026.97 617.17 1027.01 616.88 1027.15 616.7 1027.25 616.55 1027.39 616.34 1027.66 616.16 1027.87 615.86 1028.09 615.48 1028.3 615.15 1028.41 614.87 1028.47 614.66 1028.47 614.48 1028.42 614.33 1028.34 614.13 1028.62 613.84 1029.04 613.21 1029.76 612.51 1030.51 612.4 1030.58 612.28 1030.6 612.17 1030.56 611.93 1030.33 611.52 1029.88 611.36 1029.59 611.24 1029.34 611.16 1029.05 611.07 1028.63 610.82 1028.16 610.64 1027.87 610.57 1027.64 610.53 1027.3 610.46 1026.68 610.39 1026.47 610.2 1026.26 610.02 1026.14 609.4 1025.8 608.35 1025.13 608.26 1025.07 608.77 1024.16 609.12 1023.4 609.22 1023.2 609.58 1022.33 609.76 1021.81 609.93 1021.32 610.41 1019.8 610.9 1018.14 611.16 1017.29 611.38 1016.59 611.55 1016.11 611.85 1015.31 612.07 1014.6 612.23 1013.78 612.29 1013.2 612.29 1012.82 612.3 1012.69 612.25 1012.14 612.16 1011.57 612.15 1011.51 612.03 1010.91 611.94 1010.24 611.92 1009.35 611.89 1008.71 611.83 1008.23 611.61 1007.52 611.31 1006.86 610.95 1006.28 610.79 1006.09 610.69 1005.95 610.6 1005.85 610.16 1005.46 609.42 1005.03 609.07 1004.87 608.26 1004.52 607.5 1004.18 607.15 1004.02 606.21 1003.59 605.78 1003.37 605.41 1003.08 605.08 1002.67 604.8 1002.14 604.52 1001.46 604.31 1000.76 604.18 1000.03 604.04 999.22 603.96 998.57 603.97 998.14 604 997.69 604.08 997.25 604.17 996.89 604.3 996.53 604.5 996.19 604.84 995.73 604.87 995.69 605.29 995.25 605.85 994.77 606.61 994.21 607.67 993.49 608.38 993.03 608.65 992.85 608.76 992.76 609.31 992.38 610.11 991.72 610.72 991.03 611.17 990.43 611.52 989.97 611.57 989.9 611.91 989.33 612.32 988.39 612.66 987.28 612.79 986.6 612.82 985.71 612.75 984.86 612.73 984.73 612.49 983.22 612.27 982.25 612.03 981.54 611.71 980.84 611.34 980.2 611.23 980.02 610.71 979.12 609.78 977.05 609.34 976.01 609.28 975.89 609.04 975.32 608.91 974.95 608.85 974.7 607.87 972.73 606.94 970.85 604.93 966.96 602.49 961.78 601.67 960.01 601.22 959.31 601.12 959.27 600.73 959.02 599.95 958.56 599.77 958.47 598.36 957.76 596.57 956.78 595.89 956.41 594.88 955.95 593.88 955.54 592.46 955 591.92 954.79 590.55 954.19 588.3 952.95 587.95 952.74 586.4 951.79 585.85 951.41 585.36 951.06 585.23 950.97 584.52 950.37 583.87 949.78 583.85 949.75 583.74 949.62 583.69 949.55 583.43 949.22 583.4 949.19 583.08 948.68 582.73 947.95 582.43 947.19 582.15 946.39 581.83 945.36 581.66 944.88 581.54 944.54 581.51 944.44 581.32 944.08 581.02 943.65 580.65 943.33 580.57 943.29 580.04 942.99 579.31 942.71 579.14 942.67 578.45 942.5 577.69 942.42 576.93 942.35 576.9 942.47 576.48 944.05 576.09 945.27 575.86 945.81 575.74 946.04 575.59 946.24 575.18 946.55 575.03 946.67 574.9 946.87 574.83 947.14 574.79 947.55 574.72 948.69 574.66 950.22 574.65 951.06 574.62 951.37 574.53 951.59 574.38 951.79 574.03 952.04 572.97 952.72 571.92 953.46 571.4 953.84 570.57 954.45 568.93 955.64 568.73 955.78 568.57 955.99 568.52 956.18 568.52 956.44 568.6 956.79 568.71 957.13 568.88 957.45 569.01 957.76 569.17 958.21 569.33 958.84 569.4 959.11 569.61 959.94 569.72 960.52 569.76 960.95 569.73 961.52 569.61 962.16 569.4 962.82 569.4 962.84 569.03 963.64 568.59 964.37 568.15 964.95 567.91 965.24 567.81 965.36 567.37 965.78 566.42 966.71 565.79 967.37 565.15 968.03 563.82 969.37 562.84 970.39 562.27 970.97 560.42 972.95 559.32 974.19 558.93 974.61 557.94 975.7 556.59 977.14 555.67 978.12 554.74 979.17 554.19 979.78 554.1 979.84 554 979.87 553.88 979.89 553.83 979.89 553.57 979.88 553.45 979.9 553.34 979.93 553.24 979.99 553.23 980 553.09 980.09 552.97 980.14 552.82 980.15 552.66 980.14 552.53 980.11 552.43 980.09 552.34 980.1 552.26 980.14 552.18 980.23 552.03 980.51 551.96 980.67 551.92 980.92 551.93 981.22 551.92 981.46 551.89 981.61 551.82 981.72 551.69 981.83 551.29 982.04 551 982.12 550.83 982.16 550.73 982.22 550.64 982.32 550.48 982.62 550.43 982.69 550.37 982.74 550.24 982.75 550.03 982.74 547.85 982.43 547.77 982.44 547.72 982.48 547.68 982.53 547.66 982.64 547.64 982.7 547.58 982.74 547.51 982.74 546.81 982.65 545.41 982.49 544.93 982.46 544.3 982.37 544.05 982.35 543.74 982.33 543.22 982.33 542.33 982.39 541.69 982.43 541.47 982.45 540.9 982.5 540.37 982.58 539.87 982.7 539.51 982.8 539.19 982.9 538.9 982.98 538.24 983.16 538.11 983.2 537.76 983.25 537.23 983.26 536.79 983.24 536.24 983.19 535.6 983.19 535.49 983.19 535.42 983.16 535.38 983.13 535.37 983.1 535.36 983.08 535.35 982.98 535.35 982.68 535.35 982.65 535.34 982.61 535.29 982.58 535.22 982.57 534.34 982.62 533.93 982.65 533.83 982.65 533.76 982.62 533.73 982.59 533.72 982.58 533.7 982.51 533.69 982.44 533.65 982.37 533.56 982.33 532.98 982.27 532.07 982.15 531.44 982.1 530.89 982.09 530.63 982.1 530.43 982.1 529.96 982.13 529.81 982.15 529.45 982.19 528.98 982.21 527.99 982.22 527.11 982.18 526.42 982.13 525.88 982.05 525.78 982.04 525.46 981.98 525.21 981.94 524.58 981.91 524.55 982.79 523.77 982.79 523.61 984.53 521.81 984.53 521.52 984.69 521.42 984.87 519.36 985.13 518.77 982.17 518.31 980.56 517.82 978.61 517.43 976.99 517.15 976.09 516.32 974.32 516.06 974.4 515.96 974.23 515.37 973.16 514.94 972.33 514.06 970.89 513.28 969.74 512.68 968.8 512.48 968.52 512.35 968.26 512.03 967.1 511.55 965.06 511.17 963.27 511.15 963.2 511.05 963.14 509.73 963.15 508.42 963.17 508.31 963.13 508.29 963.03 508.29 963.03 508.3 959.88 508.29 959.71 508.25 959.67 508.12 959.68 508.1 959.68 506.43 960.03 505.11 960.34 504.9 960.34 504.81 960.29 504.77 960.19 504.74 959.94 504.66 958.53 504.62 958.27 504.58 958.18 504.41 957.35 504.39 956.93 504.31 956.38 504.3 956.3 504.22 956.27 503.39 956.17 503.36 956.1 503.37 955.56 503.4 954.39 503.43 954.14 504.03 951.49 504.06 950.99 504.03 950.91 503.87 950.84 501.98 950.25 501.95 950.15 502.38 948.35 502.41 948.06 502.34 946.92 502.32 946.76 502.23 946.69 501.54 946.33 500.79 946.05 500.1 945.69 499.77 945.2 499.21 943.62 498.63 942.36 498.22 941.55 498.07 941.24 497.9 941.04 497.65 940.83 496.47 939.73 496.27 939.41 496.04 938.49 495.69 936.54 495.42 935.02 495.01 932.6 494.96 932.56 494.88 932.54 493.57 932.69 492.22 932.73 490.59 932.73 489.67 932.66 489.15 932.63 488.96 932.65 488.54 932.7 488.22 932.72 487.92 932.71 487.65 932.68 487.34 932.61 487.02 932.54 486.77 932.5 486.41 932.51 484.97 932.67 482.69 932.92 482.44 932.97 482.34 933.03 482.25 933.12 482.17 933.19 482.07 933.23 481.57 933.25 481.06 933.28 480.36 933.32 478.9 933.56 478.13 933.67 477.85 933.47 477.44 933.34 477.04 933.32 476.46 933.36 476.05 933.36 475.3 933.41 474.67 933.46 473.72 933.66 471.43 934.2 469.16 935.05 467.55 935.71 465.75 936.25 462.73 936.69 459.64 937.5 458.66 937.57 458.18 937.52 457.39 937.44 456.19 937.31 455.25 937 454.63 936.61 454.09 935.95 453.34 934.71 452.8 933.74 451.11 930.37 448.85 925.56 447.18 922.16 445.95 919.41 445.39 918.17 444.96 917.34 444.67 916.98 444.38 916.75 443.89 916.52 443.35 916.36 442.72 916.19 441.94 916.05 440.88 915.85 439.9 915.7 439.25 915.59 438.83 915.41 438.44 915.07 438 914.63 437.37 913.65 436.6 912.36 435.81 911.1 435.4 910.48 434.95 909.26 434.72 908.62 434.59 907.87 434.56 907.03 434.6 906.16 434.75 905.59 435.06 905.03 435.41 904.63 436 904.1 436.65 903.65 437.16 903.13 437.66 902.64 437.9 902.1 438.14 901.64 438.34 901.04 438.44 900.4 438.55 899.55 438.44 898.81 438.27 898.25 437.96 897.73 437.58 897.32 437.06 896.81 436.72 896.35 436.43 895.87 436.23 895.39 436.15 893.99 436.14 893.04 436.18 892.31 436.33 891.6 436.4 890.93 436.34 890.19 436.18 889.75 435.94 889.18 435.61 888.79 Z" id="1"/>
</g>
</svg>