<?xml version="1.0"?>
<svg xmlns="http://www.w3.org/2000/svg" version="1.2" baseProfile="tiny" width="800" height="968" viewBox="0 0 800 968" stroke-linecap="round" stroke-linejoin="round">
<g id="สมุทรสงคราม">
<path d="M 688.65 384.92 688.49 385.52 688.36 386.15 688.27 386.78 688.18 387.42 688.11 388.06 688.02 388.7 687.91 389.33 687.83 389.83 687.54 390.26 686.78 391.18 686.73 391.32 686.7 391.48 686.65 391.78 686.6 392.06 686.47 392.43 686.32 392.75 686.1 393.03 685.68 393.58 685.03 394.43 684.47 395.37 683.78 396.45 683.43 396.95 682.96 397.63 682.85 397.73 682.78 397.76 682.64 397.81 682.48 397.82 682.33 397.79 682.11 397.69 682.03 397.68 681.98 397.7 681.94 397.73 681.92 397.76 681.92 397.79 681.92 397.81 681.96 397.94 682.06 398.16 682.46 398.61 682.48 398.66 682.48 398.73 682.48 398.79 682.46 398.85 682.4 398.9 682.33 398.94 682.02 399.02 681.9 399.08 681.78 399.16 681.06 399.89 680.58 400.52 680.12 401.2 679.54 402.12 679.38 402.43 678.83 402.58 678.27 402.89 677.75 403.28 677.27 403.7 676.79 404.14 676.33 404.6 675.88 405.06 675.47 405.55 675.1 406.08 674.74 406.61 674.35 407.13 673.96 407.64 673.61 408.18 673.36 408.75 673.16 409.36 672.97 409.98 672.76 410.58 672.55 411.19 672.34 411.79 672.12 412.4 671.9 413 671.67 413.59 671.41 414.17 671.04 414.69 670.56 415.16 670.28 415.7 670.18 416.31 670.16 416.96 670.17 417.61 670.17 418.25 670.22 418.89 670.22 418.94 669.7 419.22 669.32 419.51 669.06 419.84 668.91 420.28 668.88 420.72 668.96 421.48 669.08 422.13 669.09 422.17 669.09 422.23 669.15 422.73 668.97 422.82 668.34 422.94 668.29 422.95 667.85 423.31 667.79 423.64 667.73 423.98 667.85 424.59 668.1 425.18 668.23 425.55 667.84 426.12 667.51 426.59 667.03 427.14 666.5 427.66 666.22 427.84 665.98 427.93 665.16 428.22 664.71 428.32 664.29 428.42 663.51 428.54 663.32 428.54 662.18 429.54 662.38 429.88 662.53 430.13 662.63 430.41 662.68 430.6 662.62 430.61 662.35 430.64 661.72 430.78 661.49 431.34 661.41 432.01 661.41 432.67 660.81 432.8 660.37 433.14 660.29 433.79 660.38 434.42 660.63 435.01 660.89 435.6 661 436.24 661.01 436.88 660.92 437.39 660.9 437.5 660.85 437.56 660.48 437.97 659.98 438.38 659.58 438.85 659.38 439.46 659.24 440.11 659.31 440.72 659.57 441.3 659.88 441.86 660.23 442.41 660.58 442.96 660.95 443.49 661.34 444 661.46 444.19 661.58 444.37 661.52 444.58 661.49 444.77 661.48 444.92 661.5 445.06 661.58 445.23 661.76 445.57 661.73 445.79 661.67 446.43 661.59 447.06 661.48 447.69 661.47 447.73 661.33 448.31 661.1 448.89 660.77 449.45 660.44 450 660.17 450.58 659.93 451.19 659.79 451.81 659.8 452.44 659.87 453.07 659.96 453.71 659.98 453.95 660 454.27 659.87 454.46 659.83 454.62 659.83 454.77 659.88 455.06 659.88 455.19 659.86 455.28 659.8 455.35 659.7 455.39 659.55 455.37 659.37 455.34 659.21 455.31 658.98 455.33 658.8 455.39 658.71 455.43 658.41 455.54 657.3 456.06 657.19 456.13 657.06 456.31 657 456.45 656.86 456.83 656.72 457.26 656.59 457.54 656.44 457.69 656.22 457.84 655.98 458.01 655.96 458.02 655.86 458.13 655.1 460.04 655.5 460.28 656 460.64 656.28 460.89 656.21 461.31 656.13 461.94 656.06 462.58 656.01 463.22 655.97 463.86 655.93 464.5 655.91 465.14 655.9 465.78 655.89 466.42 655.9 467.06 655.94 467.69 656.01 468.32 656.09 468.95 656.17 469.59 656.26 470.23 656.34 470.86 656.41 471.49 656.43 471.8 656.46 472.12 656.48 472.76 656.49 473.4 656.49 474.04 656.48 474.67 656.47 475.31 656.45 475.88 656.38 476 656.09 476.52 655.87 477.08 655.05 479.98 652.33 487.71 651.41 489.45 650.13 492.26 649.71 493.16 649.48 493.34 648.96 493.74 648.73 493.94 648.48 494.16 648.02 494.62 647.57 495.08 647.14 495.55 646.7 496.02 646.27 496.5 645.84 496.98 645.39 497.45 644.9 497.9 644.41 498.35 644.03 498.86 643.83 499.43 643.71 500.04 643.63 500.67 643.58 501.3 643.55 501.95 643.53 502.6 643.51 503.25 643.46 503.89 643.38 504.52 643.28 505.15 643.17 505.79 643.05 506.42 642.89 507.04 642.69 507.64 642.44 508.23 642.17 508.8 641.87 509.37 641.56 509.93 641.24 510.48 640.9 511.03 640.55 511.58 640.19 512.11 640.16 512.16 639.83 512.64 639.48 513.13 637.01 515.51 636.19 516.29 635.48 517.16 635.23 517.38 634.97 517.55 634.62 517.71 634.16 517.77 633.95 517.83 633.53 518.02 632.13 518.84 631.59 519.16 629.48 520.17 629.12 520.38 628.8 520.6 625.49 523.3 625.14 523.54 625.01 523.69 624.51 524.09 624.25 524.3 624.13 524.4 622.97 525.32 618.72 530.22 616.35 533.11 615.68 533.8 614.7 534.71 610.92 538.23 609 539.79 607.87 540.71 607.79 540.78 607.42 541.09 607.18 541.28 605.57 542.29 604.84 542.74 604.64 542.7 604.45 542.63 604.38 542.62 604.31 542.63 604.26 542.65 604.21 542.69 604.03 542.86 603.82 542.99 603.7 543.04 603.52 543.11 603.07 543.29 603 543.31 602.96 543.34 602.94 543.37 602.92 543.42 602.91 543.49 602.92 543.6 602.97 543.82 602.56 543.96 600.12 544.77 599.51 544.8 599.46 544.64 599.41 544.59 599.34 544.57 599.24 544.56 599.1 544.58 598.57 544.78 598.3 544.87 597.39 544.93 597.32 544.89 595.12 543.95 594.38 543.64 593.91 543.44 593.27 543.18 592.04 542.64 590.54 541.92 590.04 541.73 588.68 541.41 588.56 541.39 588.45 541.41 588.35 541.45 588.29 541.53 588.24 541.66 588.22 541.73 588.18 541.83 588.12 541.91 588.04 541.98 587.93 542.04 587.84 542.04 587.71 542 587.1 541.65 586.55 541.41 586.07 541.25 585.32 541.07 583.83 540.75 582.6 540.49 582.57 540.49 581.68 540.27 581.33 540.17 580.4 539.64 578.17 537.4 575.88 534.6 574.39 533.4 572.48 533.05 570.92 533.4 567.5 533.82 567.43 533.81 564.79 533.04 563.23 532.66 562.05 532.32 558.93 530.73 555.14 528.78 552.18 527.87 548.15 527.32 544.83 526.74 541.13 526.3 538.52 525.91 534.82 525.38 533.22 525.26 527.32 523.99 521.69 522.67 521.42 522.67 521.32 522.69 521.2 522.74 521.12 522.8 520.81 523.44 520.76 523.5 520.71 523.54 520.61 523.55 520.47 523.54 518.61 522.89 518.57 522.88 518.52 522.9 518.49 522.92 518.46 522.95 518.33 523.15 518.22 523.32 513.96 530.43 513.69 530.88 513.25 530.96 510.98 531.16 509.21 531.22 511.15 535.11 507.42 541.34 507.65 541.44 508.07 541.64 508.4 541.89 509.04 542.45 511.89 546.32 512.01 546.48 512.85 547.63 519.97 557.13 523.27 561.59 525.98 565.52 526.56 567.27 526.74 568.84 526.99 570.13 526.59 574.12 525.62 577 524.95 579.09 524.68 579.7 523.9 581.47 523.08 582.58 521.75 584.06 519.35 586.21 519.12 586.55 519.01 586.91 519.01 587.36 519.13 587.84 519.33 588.21 520.13 589.48 520.34 589.77 520.44 590 520.44 590.22 520.37 590.42 520.09 591.07 519.21 593.09 519.11 593.25 518.74 593.83 518.15 595.03 518.1 595.12 517.94 595.15 516.97 595.15 516.86 595.19 516.75 595.27 516.63 595.36 516.5 595.41 516.31 595.43 516.16 595.44 516.02 595.48 515.91 595.55 515.78 595.73 515.65 596.02 515.55 596.45 515.51 596.69 515.38 597 515.13 597.41 514.98 597.68 514.83 597.89 514.7 598 514.46 598.08 514.35 598.09 514.15 598.1 513.77 598.13 513.55 598.17 513.32 598.38 512.47 599.32 512.19 599.53 512.16 599.55 511.83 599.78 511.79 599.8 511.36 600.03 510.67 600.28 510.52 600.39 510.36 600.56 510.24 600.81 510.15 601 510.11 601.2 510.13 601.38 510.22 602 510.34 602.78 510.39 603.3 510.39 603.99 510.38 604.3 510.37 605.22 510.34 605.88 510.24 606.71 510.24 606.71 510.13 606.96 509.94 607.18 509.68 607.43 509.55 607.77 509.53 608.05 509.57 608.31 509.64 608.5 510.52 610.02 510.54 610.05 510.52 610.06 509.85 611.02 509.54 612.41 509.07 612.55 508.52 612.62 508.13 612.66 507.88 614.95 507.9 615.12 507.94 615.33 508.07 615.53 508.47 616.08 508.67 616.27 508.87 616.48 509.15 616.64 509.46 616.77 510.35 616.93 511.06 617.16 511.55 617.34 511.97 617.6 512.31 617.99 513.77 620.5 514.26 623.49 514.76 628.34 515.6 632.05 515.84 634.05 515.89 634.48 515.89 637.84 515.87 637.91 513.88 646.39 512.45 650.38 511.2 652.49 509.42 654.87 506.61 657.85 506.44 658.01 505.97 658.45 505.49 658.89 504.99 659.29 504.47 659.67 503.92 660 503.35 660.31 502.77 660.59 502.18 660.87 501.58 661.13 500.98 661.39 500.39 661.64 499.78 661.88 499.15 662.06 498.52 662.18 497.88 662.28 497.23 662.34 496.58 662.4 495.93 662.45 495.29 662.5 494.64 662.54 493.98 662.56 493.33 662.57 492.67 662.59 492.02 662.62 491.38 662.67 490.74 662.74 490.11 662.86 489.5 663.08 488.9 663.35 488.35 663.58 488.3 663.61 487.19 664.11 486.57 664.22 485.92 664.21 485.27 664.16 484.62 664.06 483.97 663.93 483.34 663.78 482.71 663.58 482.1 663.34 481.54 663.03 481.07 662.49 480.68 661.85 480.34 661.71 480.05 662.18 479.8 662.91 479.55 663.56 479.32 664.16 479.1 664.75 478.89 665.36 478.69 665.97 478.49 666.57 478.3 667.18 478.08 667.78 477.75 668.33 477.36 668.85 476.91 669.31 476.37 669.65 475.74 669.87 475.11 669.96 474.45 669.95 473.8 670.01 473.15 670.09 472.52 670.24 471.89 670.41 471.28 670.61 470.68 670.86 470.1 671.13 469.52 671.43 468.95 671.74 468.37 672.04 467.28 672.43 466.66 672.64 466.05 672.87 465.46 673.12 464.9 673.43 464.42 673.86 463.98 674.34 463.48 674.75 462.92 675.08 462.34 675.36 461.73 675.61 461.12 675.83 460.49 675.97 459.85 676.09 459.21 676.2 458.58 676.35 457.95 676.52 457.33 676.71 456.71 676.89 456.09 677.09 455.47 677.28 454.86 677.51 454.24 677.75 453.63 677.96 453.01 678.09 452.36 678.15 451.71 678.14 451.05 678.09 450.41 678 449.77 677.88 449.14 677.72 448.51 677.55 447.89 677.36 447.26 677.17 446.65 676.97 446.03 676.76 445.42 676.54 444.82 676.3 444.22 676.05 443.64 675.76 443.08 675.43 442.58 675.01 442.14 674.45 441.74 674.08 441.49 674.7 441.66 675.3 441.9 675.91 442.15 676.51 442.4 677.1 442.59 677.7 442.65 678.33 442.61 678.97 442.52 679.61 442.42 680.24 442.28 680.86 442.01 681.44 441.69 682 441.32 682.53 440.92 683.03 440.48 683.49 440 683.92 439.5 684.34 438.99 684.73 438.45 685.1 437.91 685.45 437.36 685.8 436.82 686.15 436.29 686.51 435.76 686.88 435.23 687.25 434.69 687.62 434.16 687.97 433.61 688.32 433.06 688.66 432.51 688.99 431.95 689.32 431.39 689.65 430.82 689.96 430.25 690.27 429.67 690.55 429.08 690.82 428.48 691.08 427.86 691.31 427.22 691.49 426.59 691.62 425.95 691.66 425.32 691.6 424.68 691.44 424.05 691.24 423.43 691.02 422.82 690.7 422.28 690.37 421.81 690.7 421.42 691.3 421.15 691.87 420.94 692.48 420.72 693.08 420.42 693.64 419.99 694.12 419.52 694.57 419.04 695 418.54 695.41 418.01 695.77 417.44 696.08 416.87 696.38 416.31 696.71 415.74 697.03 415.19 697.37 414.65 697.72 414.12 698.09 413.6 698.47 413.08 698.85 412.56 699.24 412.05 699.64 411.55 700.04 411.05 700.45 410.57 700.88 410.09 701.31 409.61 701.74 409.14 702.18 408.67 702.62 408.19 703.05 407.7 703.47 407.21 703.89 406.73 704.32 406.25 704.75 405.76 705.18 405.26 705.59 404.75 705.99 404.23 706.36 403.69 706.71 403.13 707.03 402.55 707.33 401.96 707.61 401.36 707.87 400.75 708.1 400.13 708.31 399.51 708.49 398.89 708.64 398.25 708.76 397.6 708.85 396.95 708.91 396.29 708.96 395.64 708.98 394.99 708.99 394.35 708.95 393.7 708.87 393.06 708.75 392.42 708.61 391.79 708.46 391.15 708.29 390.53 708.08 389.94 707.82 389.39 707.49 388.86 707.13 388.34 706.73 387.84 706.32 387.36 705.89 386.88 705.45 386.44 704.94 386.02 704.41 385.59 703.92 385.14 703.54 384.52 703.5 384.02 703.95 383.94 704.55 384 705.22 384.1 705.87 384.22 706.51 384.37 707.14 384.59 707.73 384.91 708.27 385.35 708.74 385.81 709.2 386.22 709.7 386.22 709.71 386.58 710.24 386.91 710.79 387.21 711.36 387.49 711.94 387.75 712.53 387.95 713.14 388.04 713.75 387.99 714.39 387.86 715.02 387.7 715.64 387.52 716.26 387.27 716.86 386.93 717.39 386.54 717.89 386.11 718.38 385.67 718.85 385.23 719.32 384.78 719.79 384.34 720.25 383.88 720.71 383.42 721.15 382.94 721.59 382.45 722.01 381.96 722.42 381.46 722.83 380.95 723.23 380.44 723.62 379.91 724 379.38 724.36 378.85 724.73 378.31 725.09 377.77 725.45 377.23 725.8 376.67 726.14 376.11 726.46 375.55 726.77 374.97 727.06 374.38 727.32 373.78 727.57 373.16 727.78 372.54 727.98 371.92 728.17 371.29 728.34 370.66 728.5 370.02 728.64 369.38 728.75 368.74 728.83 368.09 728.87 367.44 728.87 366.79 728.85 366.14 728.81 365.49 728.75 364.84 728.69 364.2 728.62 363.55 728.52 362.91 728.41 362.27 728.3 361.63 728.2 360.99 728.11 360.34 728.02 359.7 727.93 359.06 727.84 358.41 727.75 357.77 727.67 357.12 727.57 356.48 727.47 355.83 727.38 355.19 727.3 354.55 727.23 353.9 727.18 353.25 727.16 352.6 727.16 351.95 727.19 351.3 727.22 350.65 727.25 350 727.28 349.34 727.27 348.66 727.24 347.97 727.19 347.31 727.18 346.7 727.2 346.31 727.47 346.47 728.18 346.63 728.81 346.85 729.4 347.22 729.91 347.74 730.33 348.29 730.66 348.88 730.92 349.47 731.19 350.03 731.53 350.25 731.68 350.56 731.9 351.07 732.31 351.51 732.76 351.9 733.27 352.23 733.83 352.5 734.41 352.71 735.01 352.89 735.62 353.07 736.24 353.26 736.85 353.46 737.46 353.62 738.07 353.63 738.11 353.72 738.7 353.77 739.34 353.8 739.97 353.8 740.61 353.81 741.25 353.79 741.89 353.77 742.53 353.74 743.16 353.71 743.8 353.68 744.43 353.65 745.07 353.63 745.71 353.6 746.35 353.58 746.99 353.57 747.62 353.59 748.26 353.63 748.89 353.7 749.52 353.77 750.16 353.86 750.79 353.96 751.42 354.07 752.05 354.18 752.67 354.31 753.3 354.45 753.92 354.59 754.54 354.76 755.16 354.93 755.77 355.11 756.38 355.31 756.99 355.52 757.6 355.73 758.2 355.94 758.8 356.13 759.41 356.31 760.02 356.5 760.64 356.7 761.26 356.89 761.87 357.05 762.49 357.19 763.11 357.28 763.74 357.32 764.36 357.31 765 357.26 765.62 357.13 766.17 356.53 768.05 354.89 772.2 354.76 772.5 354.68 772.75 354.62 772.94 354.62 772.96 354.3 774 354.28 774.32 354.35 774.75 354.34 774.75 352.47 774.96 350.33 775.36 350 775.46 349.72 775.6 347.96 776.5 347.34 776.71 346.84 776.83 346 776.97 345.34 777.02 344.77 777.02 344.22 777.01 343.69 776.95 343.28 776.87 342.71 776.7 340.86 775.98 340.42 775.87 340.07 775.83 339.62 775.84 338.02 775.94 335.14 775.93 334.84 775.91 333.04 775.53 332.5 775.5 332.07 775.5 331.7 775.53 331.29 775.62 328.66 776.53 326.83 777.14 326.32 777.24 325.71 777.29 324.91 777.34 324 777.37 323.03 777.41 321.06 777.49 320.3 777.58 319.14 777.82 317.43 778.29 315.73 778.8 314.49 779.27 312.33 780.27 309.65 781.5 308.97 781.76 308.77 781.82 306.82 782.16 306.36 782.26 306.03 782.36 305.51 782.6 303.98 783.55 303.72 783.68 303.33 783.84 301.06 784.76 300.84 784.91 300.65 785.03 300.47 785.21 299.88 786.2 299.79 786.34 299.51 786.56 299.28 786.63 298.85 786.71 297.53 786.97 295.94 787.4 295.35 787.61 295.08 787.8 294.8 788.03 294.54 788.31 294.37 788.59 293.83 789.68 293.12 791.4 292.54 793.46 292.25 794.61 291.35 796.76 291.26 796.99 290.9 798.46 290.8 798.7 290.67 798.89 290.53 799.05 289.47 799.76 289.35 799.88 289.26 800.04 289.16 800.23 288.23 802.52 287.97 803.02 286.8 804.62 286.73 804.76 286.66 804.99 286.61 805.2 286.64 805.46 286.99 806.78 287.72 809.45 287.76 809.64 287.75 809.81 287.75 809.99 287.71 810.1 287.5 810.8 287.52 810.99 287.59 811.18 289.51 813.93 289.69 814.3 289.71 814.46 289.71 814.65 289.66 814.82 289.54 815.04 289.36 815.26 289.11 815.43 288.79 815.6 288.4 815.74 287.99 815.81 287.48 815.78 286.24 815.62 286.08 815.64 285.89 815.77 285.75 815.9 285.62 816.09 285.19 817.13 285.04 817.3 284.92 817.38 284.76 817.44 284.54 817.46 282.71 817.26 282.44 817.3 282.26 817.38 282.06 817.51 281.81 817.76 280.98 818.74 279.32 819.88 278.14 820.89 277.7 821.48 277.18 822.47 276.83 823.14 276.62 823.48 276.15 823.77 275.49 824.07 274.79 824.29 274.52 824.44 274.18 824.91 274.06 825.17 273.64 825.65 273.26 825.99 272.3 826.22 271.98 826.24 270.97 826.03 270.46 825.96 270.05 826.03 269.73 826.29 269.39 826.7 269.21 826.78 269.04 826.79 268.89 826.8 268.71 826.77 268.37 826.64 268.23 826.57 268.03 826.55 267.7 826.67 267.1 826.74 266.02 826.73 265.57 826.71 263.57 826.59 262.88 826.7 261.93 826.82 260.27 827.13 255.8 828.39 255.13 828.74 254.6 829.1 254.31 829.26 254.1 829.26 253.84 829.18 253.67 829.05 253.49 829.07 253.25 829.13 250.15 832.22 249.96 832.36 244.53 825.84 239.48 819.91 234.89 815.53 234.66 815.44 234.45 815.48 234.18 815.62 233.91 815.97 233.78 816.29 233.34 817.74 233.25 818.01 233.17 818.16 233.05 818.31 232.93 818.44 232.75 818.58 232.55 818.71 231.01 819.38 230.79 819.47 230.6 819.56 230.45 819.66 230.33 819.75 230.2 819.89 230.05 820.06 229.73 820.56 228.95 821.72 228.53 822.28 228.33 822.49 228.2 822.61 227.77 822.97 227.64 823.05 227.5 823.11 227.35 823.15 227.16 823.21 225.98 823.45 225.82 823.49 225.67 823.55 225.48 823.64 225.27 823.73 225.13 823.81 225.02 823.88 224.89 823.96 224.47 824.29 223.1 825.43 222.31 826.02 222.21 826.08 222.14 826.12 221.06 826.59 220.96 826.62 220.84 826.64 220.41 826.74 219.66 826.88 219.58 826.88 219.48 826.88 218.64 826.89 218.54 826.89 218.47 826.89 217.74 826.8 217.03 826.72 216.86 826.71 216.76 826.71 216.61 826.73 216.26 826.8 216.2 826.82 216.14 826.84 215.04 827.3 214.36 827.59 214.2 827.63 214.04 827.65 213.91 827.66 213.8 827.67 213.73 827.67 213.47 827.66 213.25 827.66 213.13 827.67 213.01 827.69 212.85 827.75 212.64 827.85 212.49 827.92 212.38 828.01 212.29 828.09 212.19 828.19 211.93 828.49 211.02 829.63 210.77 829.86 210.55 830.02 210.35 830.15 210.14 830.25 209.98 830.3 209.83 830.33 209.72 830.33 209.59 830.32 209.48 830.31 209.35 830.28 209.22 830.24 209.13 830.2 209.01 830.12 208.64 829.78 208.21 829.29 207.89 828.96 207.8 828.88 207.68 828.8 207.56 828.73 207.42 828.66 206.76 828.39 206.63 828.31 206.53 828.23 206.42 828.11 206.32 827.96 206.21 827.74 206.14 827.57 206.08 827.37 206.05 827.16 206.04 827 206.03 826.77 206.03 826.65 206.08 825.82 206.06 825.71 206.02 825.6 205.98 825.5 205.89 825.41 205.78 825.33 205.64 825.26 205.49 825.2 205.37 825.19 205.24 825.17 205.03 825.16 204.89 825.18 204.75 825.2 204.62 825.23 204.5 825.27 204.16 825.42 203.31 825.82 203.29 825.84 203.28 825.88 203.27 825.96 203.25 826.1 203.22 826.16 203.19 826.23 203.13 826.36 203.1 826.46 203.09 826.49 203.1 826.54 203.12 826.62 203.14 826.68 203.18 826.74 203.25 826.82 203.37 826.92 203.45 826.97 203.5 826.99 203.57 827 203.76 827.02 203.8 827.03 203.83 827.05 203.86 827.09 203.94 827.27 203.98 827.36 203.99 827.39 204.02 827.43 204.2 827.61 204.24 827.67 204.26 827.72 204.26 827.77 204.25 827.82 204.23 827.88 204.12 828.12 204.08 828.25 204.08 828.36 204.09 828.47 204.12 828.56 204.16 828.64 204.22 828.73 204.44 828.98 204.48 829.03 204.49 829.06 204.49 829.1 204.5 829.54 204.49 829.56 204.48 829.6 204.26 829.85 204.25 829.88 204.24 829.93 204.24 829.97 204.25 830 204.25 830.03 204.27 830.07 204.32 830.12 204.55 830.31 204.57 830.36 204.58 830.41 204.57 830.46 204.55 830.51 204.08 831.21 204.04 831.28 204.02 831.33 204.01 831.39 204.01 831.45 204.02 831.84 204.02 831.89 203.94 832.23 203.9 832.29 203.86 832.34 203.81 832.38 203.77 832.4 203.73 832.41 203.67 832.41 203.4 832.37 203.33 832.34 202.95 832.22 202.75 832.16 202.67 832.14 202.58 832.13 202.42 832.13 202.13 832.14 201.93 832.16 201.8 832.19 201.64 832.25 201.41 832.36 201.33 832.41 201.28 832.45 201.22 832.53 201.11 832.68 201 832.82 200.97 832.88 200.95 832.94 200.93 833.04 200.94 833.41 200.93 833.47 200.91 833.51 200.87 833.59 200.8 833.66 200.6 833.83 200.48 833.96 200.34 834.13 200.3 834.2 200.29 834.23 200.29 834.27 200.29 834.31 200.32 834.45 200.4 834.77 200.42 834.83 200.42 834.87 200.43 835.44 200.42 835.47 200.42 835.51 200.4 835.55 200.38 835.58 200.35 835.63 200.19 835.81 200.15 835.85 200.13 835.89 200.09 835.98 200 836.28 199.98 836.33 199.91 836.44 199.67 836.72 199.56 836.8 199.49 836.83 199.44 836.85 199.38 836.87 199.21 836.92 199.06 836.97 198.98 836.99 198.72 837.03 198.51 837.06 198.45 837.08 198.39 837.11 198.36 837.15 198.34 837.18 198.33 837.22 198.33 837.26 198.34 837.3 198.36 837.33 198.5 837.55 198.52 837.61 198.53 837.67 198.53 837.72 198.53 837.78 198.52 837.84 198.5 837.9 198.48 837.95 198.43 838.03 198.29 838.21 198.18 838.36 198.15 838.42 198 838.77 197.99 838.78 197.97 838.8 197.81 838.9 197.69 838.98 197.62 839.04 197.6 839.06 197.57 839.1 197.56 839.13 197.54 839.18 197.52 839.25 197.51 839.3 197.5 839.34 197.48 839.39 197.2 839.83 196.88 840.24 196.73 840.47 196.33 841.15 196.26 841.25 196.21 841.34 196.17 841.42 196.13 841.49 196.1 841.53 196.02 841.62 195.96 841.69 195.94 841.76 195.92 841.81 195.89 842.21 195.85 842.71 195.86 842.75 195.87 842.8 195.94 842.83 196.07 842.87 197.89 843.11 198.05 843.22 198.15 843.33 198.22 843.48 198.24 843.6 198.14 844.65 198.17 844.93 198.25 845.15 198.44 845.5 199.54 847.11 199.73 847.54 199.75 847.68 199.75 847.84 199.72 848.06 199.63 848.3 199.5 848.54 198.6 849.69 198.28 850.16 198.15 850.46 198.09 850.68 198.09 850.82 198.13 850.97 198.19 851.11 198.31 851.26 198.46 851.4 198.74 851.58 199.06 851.77 200.66 852.32 201.15 852.58 201.74 852.96 201.99 853.2 202.19 853.54 202.25 853.77 202.26 853.95 202.26 854.14 202.11 854.37 201.95 854.5 201.64 854.6 201.17 854.75 200.88 854.88 200.69 855.01 200.53 855.15 200.4 855.28 199.7 856.23 199.39 856.62 199.17 856.87 198.85 857.18 198.06 857.74 197.73 858.01 197.5 858.27 197.33 858.54 197.28 858.69 197.24 858.85 197.23 859.02 197.26 859.25 197.4 859.54 198.01 860.93 198.17 861.65 198.2 862.05 198.18 862.22 198.14 862.31 197.85 862.92 197.71 863.2 197.65 863.48 197.66 863.69 197.81 864.24 197.92 864.52 198.06 864.67 198.25 864.78 198.46 864.78 198.82 864.75 199.13 864.66 199.97 864.17 200.28 864.06 200.52 864 200.79 864 201.13 864.07 201.98 864.41 202.91 864.96 204.57 866.24 204.77 866.57 204.82 866.83 204.82 867.08 204.7 869.02 204.83 871.07 204.85 871.28 204.96 871.53 206.46 874 207.32 875.22 207.37 875.5 207.39 875.86 207.35 876.19 207.22 876.48 206.88 877.07 204.87 880.32 204.58 880.78 204.04 881.67 203.81 881.85 203.52 881.93 203.23 881.96 202.88 881.96 202.51 882.05 202.05 882.24 201.69 882.54 201.06 883.3 198.22 888.7 197.73 889.33 196.96 889.9 196.08 890.28 195.27 890.38 194.39 890.39 193.09 890.12 191.86 889.65 189.21 888.23 184.52 885.08 181.69 882.81 177.27 879.96 175.93 879.5 173.78 879.09 169.56 878.53 166.46 878.34 163.57 878.49 161.47 878.79 160.31 879.12 158.57 879.77 156.51 880.71 153.25 882.29 151.41 882.92 150.39 883.12 149.48 883.17 148.65 883.09 147.75 882.88 146.44 882.29 145.77 883.56 145.65 884.16 145.51 884.94 145.43 885.5 145.26 886.1 145.07 886.53 144.81 887.1 144.22 888.03 143.69 888.8 142.88 889.61 142.54 889.92 142.32 890.04 142.07 890.13 141.86 890.2 141.65 890.23 141.28 890.2 140.84 890.1 140.61 890.04 140.31 889.9 139.38 889.18 136.95 887.48 135.41 886.63 134.79 886.44 134.48 886.4 134.32 886.42 134.15 886.46 133.98 886.57 133.83 886.75 133.76 886.87 133.71 887.02 133.69 887.24 133.86 888.44 133.86 888.65 133.84 888.8 133.75 889.01 133.61 889.14 133.38 889.21 132.66 889.33 131.51 889.5 131.29 889.55 131.02 889.66 130.81 889.79 130.62 889.95 130.14 890.53 129.25 891.74 129.03 891.88 128.75 891.95 128.43 891.98 128.04 891.95 127.66 891.87 127.38 891.72 127.24 891.56 127.13 891.37 126.88 889.93 126.79 889.62 126.69 889.42 126.47 889.24 126.24 889.12 126.06 889.08 125.81 889.06 125.46 889.07 124.84 889.18 123.95 889.4 122.51 889.93 122.27 890.06 122.13 890.18 121.99 890.38 121.94 890.58 121.9 890.86 121.89 891.08 121.94 891.26 122.04 891.48 123.84 893.83 123.96 894.11 123.98 894.29 123.96 894.53 123.89 894.73 123.79 894.91 123.67 895 123.5 895.07 123.32 895.08 123.1 895.03 122.92 894.91 121.88 893.78 121.72 893.67 121.54 893.64 121.37 893.63 121.25 893.7 121.13 893.81 121.06 893.97 121.04 894.17 121.08 894.46 121.35 895.35 121.44 895.8 121.45 896.14 121.43 896.51 121.39 896.76 121.29 897.05 121.04 897.31 119.65 898.52 119.57 898.63 119.55 898.76 119.55 898.9 119.55 899.02 119.59 899.14 119.71 899.25 119.9 899.38 121.19 899.94 121.35 900.05 121.44 900.17 121.49 900.34 121.48 900.56 121.44 900.79 121.35 901.03 121.14 901.22 120.7 901.49 120.1 901.82 119.83 901.92 119.63 901.95 119.44 901.96 119.23 901.96 118.95 901.85 118.69 901.65 118.44 901.23 117.76 899.99 117.61 899.84 117.45 899.77 117.27 899.71 117.07 899.69 116.9 899.7 116.73 899.74 116.53 899.83 116.31 899.94 115.94 900.17 115.74 900.28 115.49 900.34 115.21 900.33 114.8 900.28 114.27 900.21 114.1 900.22 113.9 900.26 113.78 900.32 113.71 900.43 113.68 900.57 113.68 900.72 113.73 900.95 113.89 901.4 113.94 901.69 113.91 901.92 113.79 902.17 113.61 902.4 113.31 902.59 112.75 902.89 110.75 903.76 110.3 903.91 110.01 904 108.48 904.34 108.21 904.43 108.04 904.52 107.92 904.61 107.83 904.71 107.62 904.95 107.27 905.52 106.96 905.96 106.73 906.24 105.51 907.51 104.26 908.86 104.24 908.95 104.26 909.04 104.29 909.15 104.46 909.66 104.53 909.74 104.6 909.82 104.7 909.9 104.84 909.94 105.12 909.98 105.23 910.04 105.3 910.13 105.4 910.38 105.59 910.92 105.68 911.06 106.04 911.41 106.36 911.72 107.08 912.72 107.68 913.78 107.83 913.99 107.91 914.09 108.75 914.72 108.88 914.86 110.08 916.67 110.3 917.02 110.58 917.71 110.66 917.87 110.75 917.98 111.31 918.46 111.42 918.62 111.47 918.75 111.48 918.88 111.47 919.11 111.45 919.42 111.46 919.55 111.51 919.66 111.6 919.86 111.9 920.39 111.92 920.52 111.91 920.89 111.95 921.01 112.01 921.12 112.13 921.22 112.41 921.38 113.14 921.81 113.33 921.99 113.51 922.23 113.71 922.62 113.88 923.07 113.97 923.69 113.98 924.2 113.96 924.52 113.76 925.46 113.78 925.56 113.81 925.69 113.91 925.85 114.23 926.19 114.91 926.76 115.01 926.89 115.12 927.12 115.54 928.07 115.61 928.28 115.82 929.38 115.86 929.5 115.92 929.6 116.01 929.7 116.15 929.79 116.28 929.83 116.42 929.83 116.57 929.82 117.47 929.66 117.64 929.64 118.25 929.64 118.4 929.66 118.51 929.71 118.92 929.87 119.02 929.91 119.13 929.91 119.22 929.89 119.31 929.86 119.38 929.8 119.41 929.72 119.44 929.6 119.45 929.44 119.44 929.17 119.45 929.1 119.47 929.02 119.51 928.96 119.6 928.88 119.74 928.83 119.88 928.83 120 928.84 120.08 928.87 120.15 928.97 120.47 930.19 120.53 930.24 120.61 930.29 120.67 930.29 120.73 930.28 120.82 930.26 120.91 930.22 121 930.14 121.44 929.72 121.53 929.67 121.67 929.66 121.78 929.67 122.08 929.76 123.13 930.1 123.32 930.14 124.56 930.24 124.72 930.26 124.89 930.37 125.01 930.5 126.2 932.69 126.2 932.77 126.2 932.84 126.19 932.91 126.15 932.99 126.11 933.03 126.04 933.07 125.86 933.1 125.64 933.13 125.51 933.19 124.88 933.53 124.71 933.7 124.66 933.81 124.64 933.94 124.64 934.08 124.66 934.17 124.73 934.3 124.83 934.38 125.01 934.46 125.08 934.53 125.11 934.67 125.11 934.77 125.1 934.9 125.05 935.07 124.99 935.23 124.38 935.83 124.33 935.91 124.33 935.99 124.33 936.07 124.35 936.14 124.4 936.19 124.51 936.2 124.7 936.2 124.95 936.2 125.28 936.21 125.44 936.25 125.56 936.3 125.64 936.38 125.78 936.49 125.92 936.57 126.13 936.65 126.46 936.8 126.95 937.09 127.77 937.79 127.87 937.83 127.96 937.84 128.05 937.83 128.16 937.79 128.31 937.69 129.42 936.87 129.57 936.8 129.67 936.77 129.78 936.78 129.88 936.83 129.92 936.9 129.95 936.96 129.96 937.03 129.94 937.12 129.9 937.23 129.47 938.14 129.46 938.3 129.47 938.4 129.51 938.5 129.62 938.62 129.73 938.69 129.91 938.74 130.44 938.8 130.59 938.82 130.7 938.88 130.78 939.02 131.2 940.68 131.25 940.78 131.33 940.88 131.43 940.93 131.66 941.01 131.91 941.09 133.82 941.62 133.85 941.7 133.87 941.78 133.88 941.84 133.86 941.9 133.82 942 133.08 942.44 132.99 942.53 132.94 942.64 132.92 942.71 132.92 942.82 132.95 942.93 133.06 943.08 133.2 943.19 133.44 943.31 133.67 943.36 133.8 943.36 133.9 943.33 134.07 943.24 134.65 942.76 134.85 942.68 135.07 942.63 135.64 942.55 135.73 942.55 135.79 942.58 135.86 942.65 135.92 942.8 136.19 944.46 136.22 944.57 136.27 944.65 136.33 944.75 136.71 945.17 136.78 945.21 136.86 945.24 136.94 945.23 137.01 945.23 137.09 945.2 137.93 944.81 138.07 944.79 138.14 944.77 138.23 944.8 138.31 944.87 138.38 944.99 138.44 945.15 138.46 945.3 138.42 945.45 138.32 945.67 138.1 946.05 138.04 946.1 137.97 946.13 137.41 946.32 137.22 946.44 137.12 946.53 137.05 946.61 137.03 946.68 137.02 946.76 137.04 946.84 137.08 946.94 137.23 947.18 137.4 947.38 137.6 947.58 137.84 947.72 138.07 947.83 138.78 948.01 140.24 948.46 140.36 948.53 140.44 948.63 140.47 948.71 140.48 948.78 140.51 949.25 140.54 949.33 140.58 949.44 140.64 949.54 140.74 949.67 141.01 949.97 141.17 950.16 141.27 950.35 141.52 950.89 141.87 952.02 141.94 952.23 142.06 952.41 142.16 952.53 142.7 953.05 142.78 953.14 142.83 953.24 142.84 953.35 142.84 953.46 142.83 953.63 142.75 954 142.68 954.37 142.61 955.53 142.62 955.61 142.64 955.72 142.73 955.9 142.88 956.16 142.98 956.39 143.22 957.08 143.82 957.98 144 958.18 144.16 958.3 144.29 958.37 144.4 958.41 144.51 958.44 144.64 958.45 144.74 958.44 144.93 958.42 145.26 958.35 145.51 958.3 145.58 958.31 145.62 958.33 145.67 958.4 145.7 958.51 145.7 958.69 145.7 958.97 145.64 959.35 145.56 959.59 145.46 959.76 145.28 959.94 145.1 960.1 144.63 960.72 142.44 963.65 142.36 963.68 142.26 963.7 142.12 963.66 141.75 963.52 141.39 963.42 141.11 963.34 139.82 962.9 139.58 962.87 139.36 962.89 139.13 962.92 138.6 963.07 137.9 963.29 137.44 963.51 137.2 963.64 137.08 963.72 136.97 963.84 136.84 964.01 136.69 964.36 136.32 965.26 136.21 965.37 134.54 966.78 134.3 966.93 134.09 967 133.86 967 133.64 966.97 133.43 966.91 133.27 966.82 133.09 966.66 131.74 965.15 131.67 965.02 131.65 964.88 131.62 964.62 131.6 964.35 131.6 963.92 131.67 963.19 131.66 963.06 131.63 962.91 131.58 962.78 131.45 962.53 130.83 961.66 130.55 961.2 130.44 960.99 130.39 960.81 130.34 960.63 130.22 959.85 130.17 959.66 130.02 959.38 129.82 959.12 129.57 958.84 129.24 958.57 129.09 958.46 128.87 958.38 127.6 957.84 127.44 957.81 127.07 957.77 126.44 957.76 126.26 957.78 126.13 957.82 125.98 957.87 125.69 958.01 125.53 958.06 125.44 958.08 125.36 958.08 125.22 958.06 125.08 958.02 124.84 957.89 124.61 957.76 124.45 957.65 124.31 957.54 124.17 957.4 123.71 956.91 123.56 956.78 123.39 956.67 123.25 956.6 123.05 956.51 122.89 956.43 122.76 956.34 121.23 955.04 120.84 954.78 119.91 954.21 119.79 954.12 119.15 953.52 119.02 953.43 118.79 953.32 118.45 953.2 118.26 953.15 118.04 953.12 117.55 953.07 117.06 953.07 116.94 953.06 116.85 953.04 116.74 952.99 116.35 952.8 116.15 952.75 115.56 952.62 114.41 952.32 113.76 952.13 113.61 952.1 113.14 952.03 112.89 951.99 112.75 951.95 112.63 951.89 112.51 951.8 112.4 951.68 112.26 951.44 112.17 951.3 112.13 951.24 112.07 951.18 112.06 951.16 111.96 951.09 111.84 951.03 111.06 950.65 110.56 950.41 110.41 950.35 110.25 950.3 110.07 950.27 109.78 950.22 109.38 950.14 109.18 950.1 108.95 950.03 108.72 949.92 108.57 949.81 108.48 949.69 108.39 949.52 108.34 949.36 108.3 949.24 108.27 948.88 108.27 948.77 108.31 948.52 108.41 948.16 108.48 947.96 108.69 947.56 108.73 947.47 108.76 947.28 108.76 947.03 108.75 946.87 108.71 946.6 108.63 946.35 108.51 946.16 108.39 946.01 108.26 945.88 108.13 945.76 107.82 945.57 107.73 945.51 107.61 945.38 107.51 945.28 107.36 945.08 107.2 944.79 107.05 944.46 106.41 943.25 106.32 943.15 106.2 943.09 106.08 943.04 105.88 942.99 105.74 942.98 105.56 943 105.27 943.06 105.02 943.17 103.51 944.05 102.4 944.62 102.24 944.68 102.11 944.7 101.96 944.71 101.85 944.71 101.75 944.7 101.63 944.68 101.48 944.63 101.08 944.51 100.33 944.26 100.15 944.17 100.04 944.08 99.96 943.99 99.9 943.87 99.87 943.71 99.86 943.51 99.89 943.24 99.93 943.05 100.01 942.91 100.11 942.81 100.28 942.73 100.93 942.42 101.11 942.3 101.22 942.21 101.3 942.12 101.35 941.98 101.44 941.56 101.5 940.96 101.5 940.65 101.47 940.32 101.42 940.2 101.35 940.11 101.21 940.03 101.08 939.99 100.95 939.99 100.82 939.98 100.67 940.04 100.08 940.56 99.82 940.72 99.61 940.83 99.36 940.89 99.18 940.92 98.83 940.92 98.5 940.95 98.36 940.96 98.16 941.02 98.02 941.09 97.73 941.27 96.91 942 96.82 942.08 96.72 942.1 96.53 942.13 96.31 942.14 96.19 942.13 96.07 942.09 95.97 942.06 95.8 941.94 94.59 940.83 93.33 939.5 93.12 939.39 92.96 939.34 92.84 939.35 92.71 939.39 92.42 939.55 91.89 939.75 91.74 939.79 91.2 939.87 91.06 939.88 90.93 939.87 90.81 939.84 90.68 939.77 90.55 939.68 90.45 939.58 90.23 939.36 90.05 939.09 89.97 938.89 89.93 938.75 89.92 938.55 89.94 938.42 90 938.33 90.12 938.24 90.24 938.18 91.12 937.75 91.54 937.49 92.08 936.97 92.32 936.72 92.52 936.41 92.64 936.2 92.71 936.02 92.72 935.93 92.74 935.78 92.74 935.67 92.72 935.55 92.68 935.47 92.57 935.39 92.46 935.35 92.33 935.33 92.14 935.31 91.92 935.31 91.71 935.33 91.14 935.42 90.91 935.41 90.68 935.41 90.51 935.39 90.35 935.35 90.21 935.3 89.95 935.08 89.81 934.94 89.74 934.85 89.7 934.76 89.67 934.6 89.67 934.52 89.19 934.43 88.97 934.47 88.84 934.52 88.68 934.68 87.97 935.82 86.85 937.35 86.73 937.47 86.52 937.61 86.38 937.67 86.08 937.72 84.83 937.85 83.71 937.94 83.53 937.94 83.35 937.93 83.03 937.88 82.85 937.85 82.72 937.82 82.53 937.74 82.37 937.65 82.26 937.56 82.17 937.46 82.02 937.21 81.79 936.59 81.67 936.39 81.56 936.26 81.45 936.19 81.35 936.17 81.25 936.18 81.17 936.18 80.99 936.23 80.14 936.53 79.42 936.65 78.95 936.68 78.55 936.69 78.41 936.69 78.24 936.65 77.98 936.6 77 936.27 76.59 936.19 76.34 936.18 75.83 936.19 75.52 936.23 75.18 936.34 74.96 936.44 74.73 936.53 74.52 936.56 74.22 936.62 73.85 936.7 73.33 936.85 71.95 937.43 71.6 937.56 71.36 937.62 71.15 937.63 70.89 937.64 70.01 937.66 69.68 937.68 69.33 937.75 69.06 937.86 68.77 937.97 68.17 938.33 67.68 938.67 67.14 938.92 66.81 939.03 66.42 939.11 65.91 939.18 65.69 939.23 65.52 939.29 65.34 939.36 65.23 939.43 65.05 939.59 65 939.7 64.97 939.83 64.98 939.99 65.02 940.12 65.1 940.3 65.36 940.8 65.41 940.99 65.42 941.33 65.41 941.48 65.37 941.69 65.28 941.82 65.2 941.89 65.08 941.96 64.63 942.1 64.32 942.19 64.04 942.28 63.77 942.41 62.41 943.25 60.62 944.42 60.21 944.64 60 944.71 59.71 944.77 59.54 944.81 59.37 944.81 59.21 944.81 59.04 944.79 58.73 944.74 58.52 944.68 58.45 944.66 58.37 944.58 58.28 944.49 58.05 944.08 57.94 943.91 57.82 943.79 57.69 943.71 57.53 943.63 57.25 943.52 56.35 943.31 54.55 942.94 53.43 942.71 51.99 942.35 51.06 942.13 50.87 942.1 50.69 942.09 49.81 942.03 49.1 941.97 49.04 941.98 48.96 941.98 48.9 942.01 48.85 942.03 48.83 942.07 48.8 942.12 48.79 942.19 48.81 942.37 49.14 944.19 49.29 945.01 49.65 946.86 50.12 948.23 50.3 948.99 50.83 951.34 51.17 952.83 47.15 951.76 45.92 951.45 45.53 951.37 45.07 951.33 43 951.28 42.79 951.29 42.6 951.35 42.47 951.43 42.3 951.56 42.22 951.7 41.39 953.84 41.31 953.98 41.26 954.03 41.03 954.21 40.84 954.32 40.68 954.39 40.41 954.47 38.49 954.8 38.44 954.82 38.37 954.85 38.33 954.87 38.28 954.92 38.18 955.04 37.67 955.91 37.6 955.98 37.55 956.01 37.49 956.03 37.35 956.08 37.07 956.11 35.15 956.45 32.56 956.96 29.72 957.98 16.36 854.14 5.67 770.52 4.62 762.48 4.25 759.94 4.17 759.32 3.88 757.11 3.4 753.43 3.12 751.34 2.7 748.11 2.33 745.13 1.75 740.6 1.24 736.77 1 734.86 1 734.84 1.01 734.82 1.01 734.82 1.02 734.81 1.03 734.8 1.04 734.79 1.23 734.76 1.43 734.72 1.67 734.67 1.76 734.64 1.83 734.61 1.9 734.54 1.96 734.47 2 734.4 2.05 734.3 2.11 734.13 2.04 732.7 2.05 732.18 2.12 731.58 2.27 730.9 3.11 728.91 3.65 728.1 5.35 726.17 5.56 725.8 5.71 725.33 5.78 724.6 5.99 721.39 5.95 718.89 5.95 718.23 6.14 717.08 6.26 716.45 6.3 716.01 5.9 714.39 5.83 713.97 5.77 713.49 5.8 713.07 6.11 711.37 6.81 708.69 7.46 706.21 7.72 705.58 7.86 705.25 7.92 705 7.95 704.83 7.95 704.72 7.93 704.59 7.89 704.5 7.42 703.85 7.21 703.49 7.14 703.31 7.1 703.11 7.1 702.89 7.14 702.6 7.92 700.93 8.04 700.6 8.14 700.25 8.14 698.46 8.21 697.83 8.28 697.53 8.42 697.08 8.74 696.34 9.12 695.48 9.28 694.85 9.37 694.23 9.4 693.48 9.4 692.97 9.39 692.88 9 690.67 8.98 690.42 9.01 690.12 9.15 689.75 9.33 689.33 9.43 689.2 9.58 689.03 10 688.73 10.18 688.59 10.41 688.27 10.78 687.61 10.91 687.18 10.94 686.65 10.72 684.58 10.22 680.5 10.17 680.06 9.82 677.83 9.77 677.09 9.78 676.4 9.84 675.57 10.13 674.09 10.36 671.48 10.5 670.87 10.62 670.53 10.94 670.08 11.23 669.79 12.6 668.58 14.35 667.05 14.62 666.64 14.84 665.92 14.97 665.23 15.06 664.19 15.06 663.55 14.93 662.31 14.74 661.42 14.37 660.04 15.92 659.65 16.17 659.58 16.33 659.51 16.44 659.43 16.57 659.3 16.64 659.24 16.73 659.18 16.8 659.13 16.88 659.08 17.08 658.95 17.3 658.81 17.47 658.71 17.5 658.67 17.73 658.5 17.9 658.35 18.02 658.18 18.07 658.04 18.09 657.89 18.08 657.7 18.03 657.5 17.97 657.31 17.91 657.18 17.88 657.09 17.82 656.99 17.71 656.8 17.61 656.61 17.54 656.45 17.52 656.29 17.53 656.09 17.57 655.87 17.66 655.52 17.71 655.32 17.77 655.09 17.84 654.79 17.88 654.51 17.91 654.21 17.92 653.91 17.91 653.59 17.87 653.19 17.83 652.99 17.79 652.74 17.75 652.51 17.75 652.46 17.74 652.28 17.73 651.01 17.74 650.5 17.76 650.28 17.83 649.99 17.92 649.73 18.06 649.47 18.19 649.28 18.32 649.1 18.5 648.88 18.75 648.56 18.88 648.39 19.14 648.01 19.31 647.74 19.44 647.5 19.54 647.28 19.66 646.96 19.74 646.66 19.79 646.44 19.8 646.41 19.83 646.17 19.88 645.78 19.94 645.28 19.98 644.95 20.03 644.62 20.1 644.26 20.17 644.02 20.27 643.79 20.81 642.73 20.86 642.62 21.12 642.1 21.14 642.08 21.31 641.83 21.48 641.65 21.65 641.49 21.84 641.34 22.06 641.16 22.08 641.14 22.27 640.99 22.6 640.72 22.91 640.47 23.13 640.28 23.24 640.11 23.25 640.11 23.36 639.92 23.42 639.72 23.44 639.64 23.47 639.52 23.48 639.36 23.48 639.24 23.49 638.84 23.49 638.01 23.5 637.64 23.54 637.26 23.58 637.01 23.63 636.86 23.71 636.71 23.8 636.58 23.89 636.49 23.99 636.42 24.11 636.34 24.28 636.23 24.38 636.15 24.43 636.05 24.48 635.92 24.51 635.77 24.65 634.83 24.67 634.65 24.72 634.53 24.79 634.4 24.79 634.39 24.89 634.18 24.93 634.1 24.95 634.04 25.02 633.78 25.03 633.77 25.07 633.49 25.11 633.26 25.13 633.08 25.17 632.7 25.21 632.43 25.28 632.12 25.33 631.83 25.43 631.47 25.53 631.17 26.02 629.95 26.1 629.72 26.38 629.06 26.69 628.44 26.87 628.08 27.03 627.75 27.18 627.48 27.31 627.29 27.4 627.18 27.54 627.04 27.75 626.82 27.93 626.66 28.11 626.52 28.26 626.46 28.27 626.45 28.43 626.37 28.61 626.29 28.71 626.22 28.81 626.07 28.88 625.87 28.93 625.63 28.93 625.53 28.94 625.47 28.87 625.18 28.31 623.68 28.18 623.33 28.06 623.07 27.5 621.96 27.48 621.92 27.38 621.77 27.26 621.61 27.11 621.46 26.96 621.38 26.93 621.36 26.6 621.15 26.3 620.96 26.01 620.75 25.81 620.58 25.42 620.17 25.29 620.01 25.07 619.74 24.85 619.48 24.7 619.23 24.6 619.04 24.54 618.86 24.51 618.71 24.53 618.47 24.56 618.28 24.66 618.04 24.75 617.87 24.88 617.72 25.09 617.5 25.27 617.34 25.47 617.18 25.69 617.03 25.97 616.85 26.17 616.73 26.28 616.68 26.39 616.62 26.68 616.5 26.69 616.49 27.01 616.34 27.23 616.22 27.45 616.07 27.61 615.89 27.73 615.7 27.88 615.41 27.97 615.24 28.06 615.01 28.07 614.99 28.22 614.55 28.31 614.22 28.39 613.84 28.4 613.76 28.44 613.38 28.45 612.98 28.43 612.54 28.41 612.17 28.38 611.96 28.36 611.81 28.29 611.51 28.23 611.27 28.14 611 28.05 610.78 27.94 610.53 27.87 610.34 27.85 610.28 27.8 610 27.75 609.67 27.74 609.35 27.74 609.07 27.79 608.74 27.85 608.46 27.93 608.22 28.03 607.93 28.16 607.61 28.24 607.43 28.31 607.26 28.72 606.38 29 605.74 29.05 605.61 29.12 605.39 29.19 605.09 29.21 604.85 29.21 604.76 29.25 603.48 29.28 603.03 29.29 602.56 29.29 602.19 29.33 601.82 29.38 601.41 29.72 599.37 29.78 599.03 29.93 598.25 30.02 597.72 30.15 597.15 30.23 596.82 30.5 595.91 30.78 594.84 31.6 591.69 31.87 590.53 31.98 590.04 32.09 589.51 32.16 589.21 32.31 588.66 32.58 587.79 32.75 587.14 32.84 586.86 33.11 585.99 33.17 585.79 33.24 585.58 33.3 585.33 33.45 584.69 33.62 583.99 33.72 583.65 33.84 583.28 34.25 582.14 34.43 581.67 34.6 581.23 34.92 580.31 35.17 579.56 35.35 578.97 35.61 578.2 35.71 577.84 35.84 577.46 35.94 577.11 36.02 576.8 36.15 576.26 36.26 575.81 36.38 575.44 36.5 575.06 36.62 574.7 36.76 574.3 36.93 573.88 37.44 572.5 37.75 571.58 37.93 571.08 38.08 570.64 38.24 570.13 38.34 569.76 38.4 569.51 38.91 567.57 39.46 565.13 39.5 564.97 39.61 564.55 39.68 564.18 39.75 563.87 39.8 563.68 39.82 563.55 39.87 563.26 39.97 562.75 40.04 562.48 40.13 562.02 40.28 561.44 40.38 561.05 40.45 560.81 40.73 560.04 40.87 559.66 41.02 559.33 41.15 559.1 41.43 558.58 42.37 556.86 42.42 556.77 42.46 556.7 42.52 556.55 43.07 555.14 43.11 555.04 43.16 554.89 43.16 554.85 43.19 554.7 43.19 554.66 43.22 554.35 43.24 554.12 43.26 553.95 43.61 552.45 43.77 551.78 43.9 551.33 44.06 550.82 44.21 550.39 44.32 550 44.4 549.65 44.45 549.39 44.51 549.04 44.8 546.98 44.86 546.62 44.89 546.41 44.94 546.23 45.3 545.27 46.47 541.96 46.51 541.82 46.52 541.81 46.6 541.55 47.02 539.69 47.12 539.24 47.47 537.74 47.61 537.11 47.69 536.76 47.75 536.5 47.81 536.29 48.11 535.51 48.6 534.02 49.06 532.62 49.19 532.19 49.26 531.94 49.31 531.74 49.34 531.58 49.36 531.42 49.37 531.24 49.56 529.46 49.66 528.63 49.67 528.4 49.67 528.22 49.7 528.06 49.74 527.88 50.21 525.79 50.39 524.99 50.47 524.54 50.52 524.27 50.56 524.03 50.84 521.09 50.95 520.03 51 519.57 51.13 518.45 51.18 518.17 51.23 517.99 51.29 517.83 51.4 517.56 51.54 517.27 51.59 517.15 51.6 517.13 51.73 516.81 52.08 515.64 52.27 515.03 52.42 514.48 52.47 514.32 52.55 514 52.66 513.54 52.74 513.09 52.8 512.77 52.84 512.5 52.85 512.22 52.85 511.95 52.85 511.73 52.84 511.54 52.83 511.28 52.82 511.05 52.82 511.01 52.82 510.83 52.85 510.64 52.91 510.43 53.06 509.85 53.2 509.24 53.39 508.44 53.47 508.05 53.61 507.38 53.73 506.68 53.79 506.41 53.81 506.23 53.93 504.93 53.96 504.51 54.03 503.76 54.09 503.1 54.12 502.81 54.19 502.28 54.26 501.92 54.32 501.7 54.4 501.44 54.55 501 54.7 500.55 54.92 499.97 54.98 499.82 55.15 499.4 55.32 498.95 55.5 498.45 55.61 498.18 55.72 497.91 55.87 497.53 56.08 497.09 56.68 495.72 56.88 495.1 56.91 495 56.99 494.63 57.01 494.49 57.04 494.19 57.32 492.4 58.02 488.64 58.45 486.48 59.02 484 59.24 483.31 59.71 482.21 60.03 481.39 60.21 480.75 60.52 479.18 60.53 479.14 60.61 478.75 60.77 478.02 60.88 477.57 61.21 476.47 61.72 474.64 62.05 473.54 62.74 471.37 62.92 470.86 63.46 469.6 64.47 467.43 65.02 466.15 65.94 463.86 66.4 462.78 67.74 459.99 68.13 459.27 68.48 458.69 69.14 457.78 69.34 457.47 69.49 457.27 69.8 456.83 69.85 456.76 69.89 456.7 69.94 456.66 69.97 456.63 70.02 456.59 70.09 456.54 70.17 456.49 70.2 456.47 70.25 456.43 70.35 456.36 70.38 456.33 70.41 456.31 70.45 456.27 70.51 456.21 70.53 456.18 70.53 456.17 70.56 456.12 70.58 456.09 70.6 456.04 70.62 455.97 70.67 455.75 70.68 455.64 70.68 455.54 70.69 455.48 70.71 455.42 70.73 455.35 70.85 455.08 71.11 454.45 71.55 453.58 72.04 452.83 72.39 452.27 72.91 451.1 72.91 451.1 73.19 450.42 73.35 449.96 73.4 449.84 73.69 449.12 73.92 448.22 74.05 447.77 74.26 447.17 74.33 446.93 74.41 446.45 74.47 446 74.56 445.48 74.58 445.41 74.87 444.77 75.8 443 76.25 442.03 76.49 441.55 76.49 441.54 76.76 440.95 76.96 440.28 77.1 439.81 77.3 439.25 77.79 438.11 77.93 437.81 78.08 437.48 78.26 437.1 78.61 436.44 79.06 435.56 79.33 435.11 79.53 434.84 80.05 434 80.33 433.59 80.38 433.47 80.47 433.24 80.55 432.89 80.84 431.38 80.93 430.74 81 430 81.05 429.64 81.14 429.18 81.66 427.55 81.93 426.79 82.09 426.44 82.53 425.58 83.91 423 84.06 422.75 84.97 421.37 85.21 420.95 85.31 420.76 85.45 420.39 85.47 420.33 85.53 420.07 86.09 417.37 86.23 416.92 86.31 416.67 86.47 416.33 86.73 415.81 87.18 415.01 87.63 414.37 87.85 414.02 87.87 413.99 87.93 413.86 87.97 413.76 88.01 413.64 88.02 413.54 88.03 413.43 88.02 413.3 88.01 413.27 87.99 412.97 87.98 412.88 87.96 412.66 87.96 412.61 87.95 412.19 87.95 412.05 87.96 411.83 87.97 411.74 87.97 411.74 87.97 411.67 87.99 411.59 88.01 411.51 88.05 411.39 88.11 411.29 88.14 411.25 88.19 411.2 88.24 411.15 88.27 411.14 88.29 411.13 88.4 411.08 88.53 411.03 88.63 410.98 88.71 410.92 88.86 410.79 88.89 410.75 89.03 410.57 89.14 410.4 89.18 410.31 89.22 410.19 89.26 410.05 89.27 409.99 89.26 409.88 89.24 409.81 89.18 409.6 89.14 409.49 89.1 409.37 89.08 409.28 89.08 409.09 89.1 408.91 89.14 408.79 89.17 408.68 89.26 408.51 89.35 408.35 89.47 408.19 89.66 407.99 90.01 407.72 90.02 407.71 90.16 407.56 90.29 407.38 90.55 406.91 90.71 406.48 90.93 405.73 90.96 405.63 91.13 405.2 91.36 404.78 91.68 404.3 91.92 403.99 91.93 403.98 91.93 403.97 91.96 403.93 92.02 403.84 92.07 403.77 92.1 403.69 92.14 403.59 92.14 403.58 92.15 403.52 92.15 403.39 92.12 403.27 92.08 403.17 92.05 403.13 92.01 403.07 91.97 403.02 91.87 402.92 91.75 402.85 91.67 402.79 91.49 402.7 91.46 402.67 91.42 402.65 91.37 402.58 91.35 402.54 91.33 402.47 91.33 402.36 91.35 402.22 91.41 402.06 91.46 401.93 91.57 401.77 91.67 401.62 91.79 401.51 91.97 401.36 92 401.33 92.23 401.14 92.34 401.05 92.38 401.01 92.42 400.96 92.48 400.9 92.52 400.84 92.6 400.69 92.73 400.41 92.8 400.19 92.8 400.18 92.86 399.87 92.89 399.61 92.98 399.08 93.01 398.86 93.02 398.49 92.99 398.18 92.84 397.46 92.83 397.32 92.83 397.13 92.84 397.04 92.86 396.94 92.89 396.86 93.15 396.21 93.18 396.17 93.33 395.85 93.44 395.63 93.66 395.26 93.77 395.1 93.82 395.04 93.93 394.95 93.95 394.94 94.04 394.89 94.15 394.84 94.26 394.8 94.44 394.77 94.76 394.69 94.81 394.67 94.91 394.63 94.96 394.6 95 394.54 95.06 394.42 95.12 394.26 95.13 394.22 95.13 394.22 95.24 393.87 95.33 393.48 95.37 393.2 95.4 392.92 95.45 392.69 95.59 392.16 95.71 391.82 95.74 391.77 96.65 389.95 96.74 389.82 97.24 389.09 97.49 388.71 97.72 388.31 98.4 387.03 98.49 386.85 98.63 386.51 98.77 386.1 98.91 385.58 99.01 385.13 99.05 384.94 99.07 384.81 99.09 384.66 99.13 384.45 99.17 384.17 99.19 384.04 99.24 383.86 99.25 383.83 99.29 383.7 99.34 383.61 99.39 383.51 99.65 383.13 100.32 382.05 100.89 381.1 101.17 380.56 101.54 379.78 101.98 378.57 102.27 377.86 103.42 375.26 103.77 374.5 104.07 373.9 104.11 373.8 104.11 373.79 104.15 373.65 104.17 373.49 104.17 373.38 104.17 373.25 104.16 373.14 104.14 373.04 104.12 372.96 104.08 372.84 104.03 372.74 104.01 372.69 103.95 372.58 103.91 372.52 103.84 372.4 103.65 372.1 103.55 371.94 103.48 371.82 103.48 371.8 103.46 371.75 103.45 371.65 103.45 371.56 103.46 371.46 103.49 371.32 103.54 371.16 103.57 371.1 103.59 371.07 103.64 371 104.32 370.37 104.65 370.06 104.72 369.98 104.77 369.91 104.8 369.85 104.82 369.79 104.82 369.77 104.82 369.69 104.81 369.59 104.8 369.55 104.77 369.44 104.76 369.41 104.71 369.2 104.69 369.07 104.67 368.98 104.66 368.83 104.67 368.71 104.69 368.6 104.73 368.48 104.78 368.39 104.79 368.36 104.84 368.3 104.9 368.25 104.94 368.23 105.03 368.18 105.21 368.09 105.25 368.08 105.38 368.03 105.49 367.98 105.55 367.95 105.65 367.89 105.7 367.86 105.78 367.79 105.85 367.7 105.87 367.67 105.92 367.56 105.99 367.4 106.05 367.25 106.11 367.11 106.49 366.17 107.05 364.63 107.21 364.24 107.67 363 108.04 362.03 108.17 361.71 108.52 360.9 108.6 360.74 108.64 360.67 108.72 360.52 108.81 360.4 108.89 360.32 109 360.25 109.16 360.18 109.28 360.12 109.39 360.07 109.51 359.99 109.61 359.92 109.73 359.8 109.79 359.72 109.82 359.69 109.91 359.56 109.98 359.42 110.03 359.3 110.08 359.15 110.15 358.86 110.57 357.49 111.67 354.11 112.02 353.24 112.54 352.12 113.05 350.77 113.14 350.59 113.52 349.89 113.9 349.41 114.62 348.48 114.77 348.26 115.27 347.37 115.93 345.88 116.05 345.58 116.19 345.07 116.3 344.49 116.38 343.75 116.45 342.54 116.48 342.41 116.53 342.28 116.63 342.13 117.22 341.65 117.66 341.32 118.2 340.92 118.31 340.75 118.4 340.57 118.41 340.55 118.48 340.39 118.53 340.2 118.54 339.96 118.53 339.53 118.46 338.46 118.47 338.17 118.52 337.92 118.58 337.71 118.66 337.54 118.74 337.41 119.15 336.97 119.21 336.89 119.48 336.65 119.82 336.26 120.04 335.94 120.64 334.92 121.65 332.78 121.9 332.27 122.11 331.76 122.61 330.68 122.76 330.29 123.29 329.03 123.54 328.45 123.7 328.1 124.31 326.92 125.58 324.75 126.37 323.21 126.86 322.31 127.32 321.52 127.42 321.39 127.47 321.31 127.53 321.17 127.56 321.01 127.56 320.83 127.54 320.61 127.54 320.42 127.56 320.28 127.66 320 127.76 319.82 127.97 319.39 128.12 319.16 128.26 318.99 128.65 318.65 128.88 318.49 129.13 318.3 129.25 318.15 129.35 317.98 130.09 316.41 130.37 315.89 130.43 315.81 130.63 315.51 130.84 315.25 131.04 315 131.1 314.9 131.14 314.74 131.17 314.53 131.13 313.66 131.19 313 131.22 312.82 131.26 312.66 131.47 312.34 131.6 312.19 132.93 310.93 133.12 310.75 133.23 310.62 133.34 310.45 133.53 310.11 133.75 309.67 134.34 308.61 134.64 308.11 135.28 306.99 135.55 306.36 135.67 305.97 135.7 305.8 135.71 305.53 135.67 305.31 135.6 305.11 135.57 305.05 135.5 304.99 135.44 304.95 135.37 304.92 135.2 304.89 134.86 304.82 134.68 304.77 134.52 304.73 134.39 304.66 134.35 304.62 134.35 304.61 134.3 304.54 134.25 304.4 134.24 304.18 134.28 304.02 134.37 303.85 134.38 303.82 134.5 303.63 134.69 303.42 135.07 302.86 135.34 302.39 135.52 301.87 135.91 300.41 136.01 300.08 136.05 299.94 136.19 299.71 136.3 299.58 136.36 299.5 136.51 299.42 136.73 299.31 136.98 299.24 137.33 299.2 137.48 299.17 137.67 299.1 137.85 298.98 138.18 298.55 138.48 297.96 138.63 297.64 138.94 296.88 139.08 296.46 139.14 295.99 139.08 295.03 139.07 294.91 138.9 293.64 138.78 292.56 138.74 292.37 138.6 291.9 138.37 291.33 138.31 291.09 138.27 290.78 138.21 290.18 138.22 289.8 138.33 288.94 138.39 288.69 138.63 287.89 138.82 287.41 138.88 287.26 139.13 286.79 139.35 286.37 139.6 285.99 140.08 285.42 140.34 285.14 140.63 284.93 140.81 284.72 140.87 284.6 140.94 284.39 140.95 284.02 140.9 283.57 140.78 282.84 140.75 282.46 140.74 282.03 140.71 281.26 140.71 280.87 140.71 280.54 140.75 279.6 140.71 279.16 140.65 278.79 140.63 278.72 140.37 278.07 140.12 277.6 139.81 277.2 139.71 277.11 139.59 277.04 139.42 276.99 139.29 276.97 138.83 276.98 138.66 276.96 138.42 276.84 138.29 276.68 138.25 276.59 138.22 276.49 138.21 276.31 138.31 275.79 138.43 274.87 138.29 274.35 138.18 274.01 138.17 273.98 138.05 273.26 137.99 272.4 137.99 271.8 138.02 271.66 138.09 271.21 138.23 269.91 138.37 269.22 138.7 268.19 138.72 268.13 138.89 267.62 139.31 266.31 139.45 265.59 139.64 264.28 139.66 263.78 139.63 263.5 139.53 263.13 139.33 262.58 139.17 262.13 138.98 261.89 138.78 261.77 138.2 261.52 136.88 261.09 136.57 260.99 136.35 260.89 136.25 260.78 136.2 260.62 136.16 260.37 136.14 259.94 136.14 259.8 136.2 257.24 136.57 254.4 136.59 254.29 136.71 253.91 136.82 253.66 137.44 252.71 137.66 252.44 137.69 252.4 138.28 251.72 138.57 251.38 138.72 251.01 138.86 250.45 138.93 249.74 138.93 249.37 138.92 249.31 138.77 248.3 138.57 247.88 138.42 247.64 138.2 247.39 137.87 247.14 137.72 247.06 136.6 246.43 136.47 246.32 136.34 246.2 136.23 246.01 136.18 245.72 136.18 245.47 136.23 245.09 136.33 244.81 136.41 244.59 136.47 244.5 136.7 244.15 136.84 243.92 136.87 243.8 136.9 243.68 136.93 243.56 136.98 243.18 137.03 242.76 137.04 242.71 137 242.47 136.94 242.32 136.84 242.18 136.8 242.13 136.79 242.12 136.6 241.85 135.62 240.6 135.62 240.59 135.57 240.48 135.53 240.37 135.51 240.2 135.5 240.14 135.5 239.97 135.52 239.82 135.53 239.81 135.62 239.66 135.64 239.61 136 239.08 137.11 237.72 137.5 237.24 134.14 233.71 131.73 230.83 129.99 228.6 128.51 226.16 127.07 223.47 126.47 222.14 126.07 220.82 125.79 219.59 125.62 218.32 125.57 215.4 125.6 214.44 125.64 213.48 125.77 212.44 125.89 211.97 125.99 211.55 126.45 210.18 127.02 208.89 127.95 207.3 129.45 204.75 131.11 201.53 133.07 197.74 134.2 195.31 134.29 195.09 134.32 195.02 135.66 191.86 136.68 189.56 137.12 188.36 137.75 186.07 138.08 184.81 138.43 183.6 138.59 182.48 138.64 180.96 138.62 179.92 138.45 178.5 138.42 178.36 137.6 174.42 137.57 174.25 137.12 172.49 135.83 169.43 134.77 167.2 133.77 165.73 132.5 164.55 132.33 164.4 131.32 163.64 131.32 163.63 131.76 163.01 131.95 162.75 132.03 162.67 132.36 162.38 132.59 162.23 133.41 161.69 134.08 161.19 134.22 161.09 134.63 160.91 135.12 160.75 135.33 160.69 135.48 160.65 137.06 160.4 137.19 160.35 137.98 160.05 138.5 159.73 138.75 159.52 138.98 159.28 139.2 158.98 139.32 158.69 139.35 158.52 139.41 157.81 139.48 156.44 139.52 155.99 139.54 155.84 139.69 155.4 139.81 155.2 140.08 154.93 140.26 154.8 140.44 154.72 140.81 154.61 141.27 154.55 141.68 154.49 142.04 154.39 142.3 154.3 143 153.96 143.45 153.69 143.67 153.49 143.77 153.34 143.81 153.21 143.83 152.95 143.84 151.97 143.82 151.57 143.84 151.45 143.88 151.38 143.93 151.34 143.97 151.32 144.05 151.32 144.15 151.33 144.45 151.48 144.7 151.6 144.93 151.67 145.16 151.71 145.43 151.73 145.63 151.71 145.83 151.67 146 151.62 146.1 151.58 146.17 151.51 146.22 151.36 146.22 151.15 146.21 150.94 146.15 150.56 146.15 150.54 146.14 150.38 146.15 150.31 146.17 150.2 146.2 150.11 146.61 149.62 146.8 149.34 147.03 148.86 147.16 148.72 147.26 148.64 147.36 148.6 147.48 148.58 147.66 148.58 147.9 148.61 148.11 148.67 148.23 148.7 148.49 148.78 148.72 148.85 148.81 148.88 148.88 148.88 148.97 148.88 149.29 148.72 149.69 148.55 149.76 148.51 149.81 148.46 149.87 148.35 149.93 148.18 150.1 147.74 150.13 147.69 150.16 147.66 150.19 147.64 150.23 147.64 150.28 147.65 150.71 147.82 150.89 147.89 151.13 147.97 151.26 148 151.35 148.01 151.48 148 151.63 147.93 151.85 147.81 151.94 147.73 152.15 147.5 152.24 147.42 152.34 147.34 152.45 147.28 152.56 147.25 152.76 147.2 152.89 147.19 153.08 147.17 153.23 147.16 153.38 147.13 153.52 147.06 153.61 146.99 153.7 146.87 153.88 146.45 154.04 146.1 154.1 145.97 154.23 145.81 154.33 145.69 154.53 145.51 154.76 145.38 154.85 145.31 154.93 145.25 154.96 145.2 154.99 145.12 154.99 144.98 154.93 144.19 154.92 143.56 154.93 143.4 154.94 143.23 154.95 143.19 154.95 143.15 154.99 143.02 155.11 142.6 155.21 142.04 155.37 141.17 155.37 141.16 155.41 141 155.47 140.86 155.61 140.64 155.64 140.53 155.65 140.43 155.69 139.93 155.7 139.81 155.72 139.73 155.82 139.47 155.87 139.37 156.13 138.87 156.18 138.65 156.21 138.49 156.2 138.3 156.19 138.18 156.13 138.05 156 137.86 155.66 137.5 155.57 137.37 155.51 137.26 155.47 137.18 155.43 136.94 155.4 136.8 155.29 136.05 155.17 135.59 154.88 134.94 154.79 134.73 154.77 134.63 154.71 134.35 154.6 133.6 154.49 132.95 154.45 132.3 154.42 131.24 154.41 131.03 154.34 130.81 154.04 130 153.65 128.97 153.61 128.79 153.51 128.34 153.46 128.03 153.46 127.62 153.47 127.3 153.49 127.04 153.41 125.56 153.37 125.13 153.35 124.83 153.35 124.57 153.36 123.78 153.36 123.21 153.36 122.9 153.37 122.75 153.44 122.47 153.61 122.02 153.62 122 153.69 121.81 153.96 121.22 154.07 120.92 154.18 120.6 154.57 119.43 154.6 119.3 154.76 118.8 154.87 118.46 155.22 117.55 155.38 117.18 155.46 117.05 155.62 116.82 156.01 116.32 156.41 115.74 157.14 114.85 157.32 114.66 157.92 113.91 158.33 113.45 158.85 112.8 159.16 112.34 159.61 111.62 160.1 110.91 160.52 110.31 161.43 108.68 161.65 108.23 161.79 107.94 161.99 107.57 162.37 107.04 162.44 106.97 162.49 106.92 162.55 106.87 163.31 106.37 163.63 106.16 163.9 105.95 164.69 105.11 165.07 104.68 165.46 104.2 166.12 103.45 166.45 103.1 166.94 102.51 167.06 102.39 167.95 101.48 167.98 101.44 168 101.41 168.01 101.35 168.03 101.25 168.06 100.81 168.07 100.64 168.09 100.43 168.12 100.37 168.12 100.35 168.14 100.28 168.22 100.12 168.48 99.75 168.63 99.54 168.84 99.21 169.14 98.64 169.22 98.48 169.23 98.44 169.24 98.38 169.25 98.32 169.24 98.25 169.21 98.17 168.95 97.45 168.95 97.33 168.95 97.25 168.96 97.2 169 97.14 169.04 97.09 169.08 97.05 169.23 96.95 169.43 96.84 169.86 96.62 170.41 96.42 170.84 96.23 170.86 96.23 171.23 96.08 171.87 95.89 172.26 95.71 173.1 95.38 173.67 95.08 174.17 94.79 174.35 94.73 176.06 94.33 176.78 94.22 177.22 94.15 177.44 94.11 177.5 94.1 177.56 94.08 177.58 94.06 177.63 94.02 177.96 93.44 178.07 93.17 178.1 93.09 178.13 93.05 178.25 92.89 178.43 92.7 178.69 92.47 178.97 92.13 179.02 92.06 179.04 92.02 179.07 91.95 179.46 90.88 179.51 90.76 179.62 90.44 179.74 89.96 179.8 89.72 179.82 89.63 179.85 89.53 180.23 88.76 180.62 87.88 180.63 87.87 180.94 87.13 181.17 86.35 181.2 86.24 181.24 86.12 181.3 85.99 181.4 85.75 181.48 85.63 181.55 85.54 181.61 85.48 181.66 85.44 181.73 85.39 181.78 85.36 181.86 85.33 181.96 85.3 182.52 85.29 183.12 85.3 183.26 85.29 183.34 85.28 183.46 85.26 183.53 85.24 184.07 85 184.45 84.78 184.83 84.52 184.89 84.48 184.94 84.46 185.01 84.44 185.07 84.43 185.13 84.42 185.85 84.58 186.07 84.62 186.13 84.63 186.25 84.63 186.32 84.62 186.47 84.58 186.79 84.46 187.12 84.3 187.63 84.02 187.64 84.02 187.7 84 187.74 83.99 187.79 83.98 187.82 83.98 187.84 83.99 187.89 84.02 187.98 84.07 188.32 84.32 188.35 84.34 188.37 84.34 188.42 84.35 188.48 84.36 188.5 84.36 188.52 84.35 188.55 84.34 188.57 84.33 188.7 84.26 188.86 84.17 188.96 84.09 189.08 83.93 189.1 83.9 189.15 83.84 189.29 83.71 189.38 83.63 189.6 83.5 189.9 83.34 190.31 83.14 190.63 82.98 190.83 82.89 191.15 82.78 191.9 82.64 192.12 82.6 192.2 82.57 192.48 82.42 192.56 82.38 192.82 82.21 193.23 81.89 193.34 81.76 193.38 81.68 193.41 81.61 193.42 81.52 193.41 81.46 193.38 81.35 193.33 81.21 193.17 80.85 193.14 80.77 193.14 80.67 193.14 80.6 193.17 80.49 193.19 80.39 193.22 80.31 193.27 80.2 193.32 80.13 193.49 79.97 193.61 79.89 193.71 79.82 193.83 79.77 193.93 79.73 194.04 79.71 194.28 79.71 194.46 79.72 194.62 79.76 194.89 79.86 194.95 79.88 195.01 79.88 195.04 79.88 195.56 79.76 195.91 79.68 196.02 79.64 196.26 79.52 196.32 79.48 196.37 79.45 196.39 79.41 196.78 78.85 196.81 78.81 196.85 78.79 197.74 78.28 199.05 77.65 199.18 77.59 199.51 77.44 200.15 77.11 200.95 76.75 202.07 76.41 202.24 76.35 202.3 76.33 202.82 76 203.39 75.56 203.59 75.46 203.73 75.39 203.9 75.33 204.02 75.28 204.08 75.26 204.19 75.24 204.29 75.23 204.8 75.19 205.02 75.15 205.39 75.07 205.76 74.95 206.17 74.79 206.54 74.64 207.76 74.02 208.4 73.75 208.98 73.51 209.23 73.37 209.89 72.95 210.14 72.79 210.24 72.74 210.34 72.69 210.72 72.6 211.52 72.48 211.66 72.45 211.79 72.41 211.8 72.41 211.89 72.36 212 72.3 212.07 72.25 212.12 72.21 212.15 72.17 212.2 72.09 212.2 72.08 212.24 71.98 212.23 71.87 212.22 71.82 212.17 71.7 211.84 71.2 211.81 71.08 211.8 71.01 211.81 70.95 211.83 70.88 211.86 70.83 211.9 70.79 211.96 70.75 212.43 70.59 212.49 70.56 212.54 70.52 212.6 70.47 213.2 69.53 213.29 69.46 213.35 69.44 213.42 69.43 213.43 69.43 213.51 69.43 213.58 69.44 213.64 69.44 213.69 69.46 214.71 70.18 214.81 70.23 214.91 70.25 215 70.26 215.15 70.26 215.21 70.26 215.3 70.23 215.53 70.08 215.58 70.03 215.74 69.79 215.8 69.68 215.83 69.57 215.97 68.77 216.04 68.29 216.14 67.77 216.25 67.15 216.27 67.02 216.46 66.07 216.51 65.93 216.55 65.84 216.6 65.76 216.65 65.72 216.72 65.69 216.93 65.63 216.94 65.63 217.07 65.59 217.14 65.59 217.29 65.58 217.97 65.57 218.49 65.54 218.61 65.53 218.73 65.49 219.26 65.25 219.62 64.98 219.66 64.93 219.69 64.86 219.69 64.82 219.7 64.74 219.7 64.7 219.69 64.63 219.55 64.31 219.53 64.26 219.22 63.74 219.18 63.66 219.05 63.31 219.03 63.19 219.01 62.98 219.01 62.88 219.04 62.8 219.07 62.72 219.22 62.5 219.24 62.48 219.48 62.2 219.56 62.12 219.67 62.05 219.8 61.98 220.15 61.84 220.57 61.67 220.62 61.64 220.62 61.63 220.63 61.63 220.65 61.61 220.66 61.59 220.71 61.52 220.77 61.42 220.92 61.14 220.96 61.06 221.2 60.5 221.29 60.39 221.31 60.38 221.4 60.34 221.5 60.34 221.59 60.38 221.66 60.44 221.71 60.51 221.85 60.77 221.94 60.95 221.98 61.03 222.05 61.17 222.09 61.2 222.13 61.21 222.25 61.22 222.37 61.23 222.41 61.22 222.48 61.2 222.53 61.17 222.59 61.13 223.06 60.58 223.22 60.44 223.3 60.39 223.64 60.14 223.78 60.07 223.91 60.01 224.06 59.97 224.26 59.93 224.55 59.88 226.33 59.58 226.48 59.55 226.66 59.46 226.95 59.28 227.74 58.66 228.11 58.44 228.25 58.39 228.61 58.32 229.53 58.22 230.05 58.07 230.47 57.93 230.99 57.67 231.29 57.5 231.56 57.37 231.73 57.33 232.08 57.33 232.59 57.28 233.19 57.27 233.47 57.19 234.22 56.81 236.51 55.83 225.75 36.24 216.86 21.37 217.83 20.87 218.1 20.7 218.59 20.36 218.93 20.08 218.94 20.07 219.3 19.74 219.7 19.5 219.83 19.43 220.09 19.29 220.74 19.04 221.88 18.71 222.55 18.48 223.17 18.21 223.72 17.98 224.15 17.86 224.22 17.85 224.51 17.8 224.52 17.8 224.79 17.75 225.21 17.62 225.71 17.42 226.45 17.11 226.77 16.97 227.04 16.81 227.09 16.78 227.18 16.73 227.42 16.58 227.74 16.45 228.32 16.26 229.13 15.99 229.58 15.81 229.94 15.66 230.14 15.58 230.6 15.33 230.99 15.07 231.45 14.69 231.85 14.44 232.19 14.25 232.48 14.15 232.85 14.1 233.36 14.06 233.78 14.01 234.09 13.94 234.23 13.84 234.41 13.73 234.72 13.48 235.04 13.26 235.38 13.1 236.18 12.81 237.04 12.53 238.01 12.29 238.8 12.08 239.24 11.94 239.6 11.75 240.23 11.36 240.73 10.92 241.14 10.66 241.63 10.44 242 10.34 242.38 10.35 242.93 10.39 243.41 10.38 243.83 10.31 244.33 10.17 244.75 10.09 245.28 10.09 245.8 10.09 246.43 10.03 246.92 9.96 247.42 9.8 248.21 9.47 248.73 9.26 249.32 9.08 250.13 8.8 250.75 8.61 251.18 8.52 251.54 8.5 251.79 8.48 252.1 8.39 252.66 8.14 253.4 7.82 253.78 7.57 254.4 7.24 254.56 7.18 254.85 7.08 254.87 7.07 255.12 7.12 255.59 7.38 256.21 7.71 257.04 8.03 257.85 8.25 258.55 8.41 258.97 8.56 259.33 8.79 259.68 8.99 260.1 9.14 260.2 9.19 260.37 9.29 260.69 9.45 260.8 9.59 260.81 9.73 260.77 9.88 260.73 9.97 260.69 10.07 260.69 10.22 260.73 10.4 260.88 10.7 261.35 11.17 261.68 11.38 262.06 11.55 262.42 11.66 262.63 11.82 262.73 12.02 262.78 12.33 262.82 12.85 262.9 13.12 263.09 13.36 263.21 13.66 263.24 13.92 263.19 14.1 263.1 14.35 263.01 14.67 263.03 14.87 263.15 15.06 263.53 15.57 263.72 15.81 263.78 16.01 263.77 16.25 263.75 16.51 263.79 16.7 263.93 16.83 264.38 17.03 265.85 17.59 266.89 17.97 267.17 18.13 267.31 18.32 267.41 18.58 267.47 18.91 267.5 19.11 267.46 19.23 267.35 19.36 267.17 19.41 266.27 19.43 265.99 19.54 265.74 19.68 265.62 19.83 265.56 19.97 265.51 20.09 265.49 20.25 265.57 20.41 265.74 20.6 265.79 20.66 265.91 20.94 265.93 21.22 265.93 21.25 265.91 21.46 265.83 21.83 265.65 22.36 265.5 22.86 265.48 23.16 265.5 23.37 265.59 23.53 265.82 23.74 266.29 24.01 267.02 24.39 267.09 24.41 267.43 24.51 268.27 24.67 268.86 24.83 269.16 24.97 269.35 25.17 269.51 25.47 269.63 25.78 269.79 26.04 269.94 26.23 270.23 26.64 270.42 27.04 270.46 27.2 270.46 27.41 270.52 27.6 270.61 27.74 270.72 27.81 270.83 27.84 271.11 27.9 271.25 27.95 271.28 27.96 271.42 28.08 271.54 28.28 271.56 28.34 271.71 28.76 271.9 29.09 272.17 29.42 272.54 29.74 273.18 30.46 273.9 31.33 274.12 31.61 275.37 33.12 276.29 34.23 277.58 35.91 279.46 38.43 281.07 40.56 281.53 41.22 282.48 42.46 282.98 43.01 283.91 41.58 284.56 40.98 285.39 40.28 285.71 40.53 285.91 40.71 286.13 40.88 286.76 41.97 287.84 43.57 288.49 44.74 289.35 46.62 289.41 46.92 289.47 47.15 289.57 48.18 289.59 48.37 289.59 48.42 289.67 49.11 289.74 49.48 290.2 51.17 290.35 51.98 290.51 53.43 290.56 54.76 290.53 56 290.46 56.92 290.46 57.03 290.45 57.73 290.44 57.83 290.41 58.33 290.39 58.44 290.35 58.49 290.18 58.53 287.54 58.51 287.38 58.54 287.27 58.6 287.23 58.65 287.22 58.8 287.32 59.15 287.95 61.67 288.14 62.54 288.4 63.85 288.54 64.59 288.84 65.72 288.92 65.87 288.97 65.94 289.01 66.01 289.05 66.05 289.3 66.55 289.84 66.3 290.35 66.2 291.2 66.04 292.56 65.74 294.38 65.27 295.48 64.99 296.2 64.8 296.46 64.73 297.12 64.57 297.89 64.38 299.33 64.06 302.68 63.32 304.77 62.83 309.15 61.81 309.91 61.71 310.27 61.55 310.69 61.57 310.9 61.49 311.17 61.4 311.67 61.66 312.01 61.86 312.4 62.08 313.99 62.64 316.85 63.31 322.52 64.64 327.69 65.75 330.55 66.21 333.23 66.31 335.03 66.14 335.2 66.09 344.44 63.71 349.23 62.14 350.41 61.95 351.08 61.97 352.1 62.18 353.84 62.41 355 62.69 357.14 63.57 358.52 64.35 360.55 65.78 362 66.58 362.22 66.67 362.81 66.92 363.39 67.21 364.11 67.46 364.51 67.47 364.75 67.46 364.89 67.46 365.26 67.52 365.66 67.63 365.96 67.7 366.31 67.88 366.46 67.94 366.7 68.18 367.11 68.84 367.22 69 367.31 69.09 367.5 69.24 367.64 69.33 367.82 69.42 367.95 69.49 368.18 69.52 368.51 69.58 368.95 69.63 369.33 69.63 369.73 69.62 370.33 69.51 370.74 69.38 371.33 69.15 371.76 68.96 372.1 68.81 372.39 68.71 372.71 68.66 373.2 68.59 373.69 68.57 374.01 68.58 374.34 68.63 374.96 68.77 375.51 68.92 375.67 68.97 376.72 69.32 376.75 69.33 377.15 69.46 377.32 69.5 377.38 69.52 377.53 69.56 377.7 69.57 377.82 69.56 377.96 69.53 378.08 69.49 378.17 69.44 378.81 69.05 378.93 68.99 379.31 68.8 379.76 68.63 380.39 68.33 380.75 68.2 381.24 68.04 381.63 67.89 381.89 67.77 382.17 67.61 382.34 67.52 382.48 67.45 382.7 67.37 383.17 67.25 383.19 67.34 383.56 68.57 384.24 70.63 384.26 70.7 384.3 70.86 384.49 71.7 385.08 73.64 386.05 75.79 386.25 76.35 387.02 78.47 387.53 79.71 387.8 80.36 387.88 80.51 388.76 82.27 389.56 84.03 389.95 84.87 391.33 88.05 391.85 89.53 392.5 91.09 393.09 92.5 393.88 94.53 394.55 95.62 395.8 97.25 396.87 98.76 397.58 99.84 399.27 102.2 400.21 103.93 401.52 105.87 402.75 107.81 403.43 108.82 403.88 109.36 403.89 109.38 403.98 109.06 404 108.74 404.02 107.04 404.02 107.02 404.05 106.9 404.12 106.81 404.24 106.72 404.43 106.68 404.62 106.71 405.06 106.81 407.28 107.57 407.84 107.77 408.18 107.76 408.42 107.72 408.72 107.59 409.41 107.08 409.7 106.79 409.82 106.51 409.87 106.27 409.87 106.09 409.83 105.88 409.7 105.49 409.24 104.53 409.08 104.19 409.02 103.93 409.02 103.85 409.01 103.6 409.01 103.23 409.05 102.92 409.16 102.66 410.52 100.41 411.76 98.44 411.81 98.23 411.8 97.95 411.75 97.59 411.67 97.35 411.61 97.16 411.54 96.91 411 95.24 410.51 92.64 410.49 92.39 410.52 91.92 410.57 91.71 410.59 91.65 410.61 91.59 410.88 91.53 411.18 91.55 412.68 91.67 415.56 91.9 419.96 92.25 420.28 92.27 427.09 92.82 427.54 92.84 428.14 93.01 429.07 93.28 429.46 93.29 429.65 93.23 429.84 93.09 429.92 92.86 429.91 92.57 429.83 92.22 429.66 91.96 428.45 90.98 428.35 90.87 428.31 90.69 428.36 90.53 428.5 90.37 428.85 90.19 429.73 89.8 430.73 89.11 434.98 86.26 439.08 83.84 443.7 80.92 446.92 78.92 448.57 77.76 453.04 74.39 458.41 70.59 464.39 66.69 468.28 64.3 470.23 63.11 473.89 60.82 477.07 58.78 481.28 56.24 483.56 54.74 484.53 54.29 484.71 54.62 485.54 56.11 486.67 57.77 487.6 59.13 487.79 59.59 487.87 59.95 488 60.89 488.17 61.9 488.31 62.29 488.47 62.51 488.62 62.74 488.66 62.77 488.9 62.94 490.05 63.57 490.36 63.73 491.13 64.05 491.63 64.31 491.72 64.37 491.84 64.46 492.02 64.67 492.17 64.92 492.41 65.53 492.45 65.61 492.83 66.51 492.9 66.68 493.65 68.06 494.33 69 495.14 69.96 495.88 70.97 496.03 71.17 496.66 71.97 496.79 72.14 497.25 72.74 497.7 73.09 498.18 73.33 499.2 73.7 499.44 73.83 499.54 73.88 499.67 74.05 499.96 74.58 500 74.66 500.38 75.5 500.62 76.04 500.65 76.12 500.85 76.74 501.18 77.38 502.11 78.49 502.85 79.4 503.39 79.82 504.13 78.63 505.8 75.81 506.32 74.93 509.34 69.96 509.99 68.84 511.34 66.57 513.64 62.83 514.48 61.47 516.99 57.4 518.17 55.4 520.01 52.41 521.1 50.56 523.09 47.28 525.84 42.83 527.58 39.81 528.36 38.51 530.11 35.63 531.03 34.19 531.54 33.41 532.16 32.44 533.9 29.47 536.86 24.74 538.21 22.74 540.38 19.28 541.08 18.11 542.72 15.4 544.76 12.32 548 7.16 550.98 2.31 551.73 1.12 551.88 1.06 552 1.01 552.11 1 552.2 1.04 552.21 1.04 552.37 1.16 552.6 1.36 553.15 1.75 553.63 2.1 554.14 2.3 555.27 2.39 555.32 2.41 555.65 2.44 555.85 2.53 556.14 2.69 556.55 3 557.22 3.51 557.6 3.88 557.93 4.29 558.18 4.76 558.35 5.21 558.89 6.12 558.94 6.17 559.21 6.47 559.47 6.83 559.69 7.11 559.8 7.32 559.82 7.41 559.83 7.48 559.87 7.78 559.97 8.44 560.03 8.76 560.1 9.15 560.14 9.32 560.19 9.54 560.21 9.6 560.26 9.69 560.33 9.78 560.43 9.87 560.59 9.94 560.67 9.97 560.82 10.01 561.22 10.12 561.35 10.16 561.55 10.21 561.61 10.22 562.43 10.39 562.44 10.41 562.53 10.41 562.68 10.42 562.94 10.41 562.96 10.41 563.27 10.47 563.49 10.6 563.61 10.68 563.63 10.7 563.75 10.86 563.82 11.01 563.89 11.22 563.86 11.39 563.34 12.46 562.51 14.67 562.5 14.76 562.51 14.86 562.55 14.96 562.58 15.04 562.66 15.11 562.8 15.18 562.88 15.23 563.15 15.35 563.32 15.42 563.68 15.47 564 15.51 564.13 15.56 564.33 15.68 565.28 16.31 565.51 16.46 566.3 16.98 566.65 17.1 567 17.07 567.48 17.06 567.94 17.11 568.84 17.19 569.27 17.27 569.57 17.4 569.86 17.57 570.19 17.87 571.17 19.1 571.75 19.69 572.25 19.98 572.68 20.23 573.22 20.6 573.57 20.88 574.01 21.08 575.46 21.5 577.33 21.95 577.48 22.03 577.66 22.15 577.83 22.3 578.11 22.62 579.25 23.92 579.31 23.96 579.63 24.14 579.86 24.28 580.44 24.33 580.44 24.33 581.04 24.29 581.23 24.2 582.77 23.5 583.13 23.41 583.59 23.44 583.95 23.53 584.74 23.95 586.03 24.45 586.31 24.45 586.63 24.46 587.25 24.3 587.85 24.13 588.21 24.16 588.55 24.23 588.77 24.29 589.02 24.49 589.32 24.75 589.92 25.58 590.43 26.1 590.5 26.16 590.57 26.24 590.71 26.31 590.84 26.38 590.88 26.4 591.32 26.47 592.2 26.62 592.52 26.68 592.87 26.89 593.4 27.29 594.39 28.27 595.37 29.09 597.51 30.38 599.89 31.64 600.21 31.83 600.67 32.11 600.92 32.25 601.02 32.3 601.11 32.35 601.42 32.46 601.62 32.53 601.76 32.57 602.05 32.64 602.18 32.67 602.44 32.71 603.25 32.85 604.01 32.96 604.05 32.97 604.27 33.02 604.4 33.06 604.48 33.11 604.53 33.13 605.01 33.42 605.56 33.73 605.99 34.01 606.39 34.26 606.69 34.44 607.11 34.68 608.15 34.22 610.6 33.04 610.71 32.99 610.76 33.12 613.75 41.24 614.11 42.23 614.47 42.01 615.86 41.25 619.5 39.24 624.03 37.68 624.08 37.52 624.12 37.1 624.15 36.66 624.15 36.09 624.23 35.21 624.42 34.56 624.69 33.77 625.03 33.17 625.12 32.47 625.07 31.95 625.04 31.74 625.02 31.56 625.06 31.36 625.27 31.14 625.53 30.88 625.76 30.82 627.24 30.39 628.25 30.04 628.39 30.02 628.52 30.01 628.61 30.02 628.69 30.03 628.81 30.09 629.05 30.25 629.16 30.4 629.19 30.45 629.24 30.64 629.25 30.88 629.23 31.09 629.2 31.23 629 31.79 628.94 32.06 628.89 32.35 628.88 32.62 628.89 32.85 628.94 33.1 629.42 34.63 629.43 34.67 629.56 35.04 629.6 35.09 629.68 35.13 629.74 35.14 629.79 35.13 629.87 35.09 630.38 34.78 631.24 34.24 631.41 34.15 631.61 34.05 631.7 34.02 631.89 33.98 632 33.98 632.12 33.99 632.22 34.02 632.32 34.06 632.49 34.19 632.68 34.36 632.79 34.46 632.93 34.65 633.1 34.93 633.2 35.07 633.29 35.16 633.39 35.22 633.46 35.26 633.5 35.27 633.61 35.32 633.77 35.36 634.11 35.51 634.29 35.61 634.42 35.72 634.55 35.85 634.76 36.01 634.96 36.12 635.05 36.15 635.11 36.15 635.75 35.98 636.1 35.9 636.23 35.88 636.6 35.88 636.93 35.9 637.33 35.97 637.74 36.08 637.92 36.14 638.11 36.22 638.4 36.37 638.67 36.56 638.75 36.62 639.29 37.13 640.84 38.82 641.51 39.52 642.09 40.02 642.22 40.11 642.52 40.31 642.96 40.49 643.21 40.56 643.73 40.65 645.84 41.04 646.06 41.09 646.67 41.26 647.06 41.42 647.17 41.47 647.43 41.62 647.98 41.97 648.14 42.05 648.41 42.12 648.62 42.14 648.72 42.13 648.85 42.1 648.91 42.08 649.09 41.99 649.3 41.85 649.67 41.56 649.83 41.45 650.24 41.18 650.56 40.99 650.95 40.8 651.93 40.39 652.57 40.1 652.77 40 653.07 39.85 653.25 39.78 653.34 39.77 653.35 39.77 653.45 39.78 653.48 39.8 653.56 39.82 653.6 39.85 653.65 39.88 653.72 39.95 654.38 40.9 654.53 41.09 654.79 41.44 655.16 41.89 655.46 42.23 655.98 42.85 656.15 43.03 656.25 43.11 656.34 43.17 656.45 43.21 656.54 43.21 656.64 43.17 656.71 43.11 656.77 43.03 656.81 42.91 656.91 42.35 656.98 42.15 657.03 42.06 657.05 42.03 657.1 41.98 657.24 41.92 657.37 41.9 657.56 41.88 657.69 41.89 657.87 41.93 657.92 41.94 658.03 42 658.22 42.14 658.34 42.31 658.38 42.41 658.42 42.52 658.44 42.71 658.46 43.08 658.47 43.28 658.5 43.53 658.53 43.66 658.65 43.93 658.72 44.04 658.89 44.26 659.04 44.38 659.25 44.52 659.42 44.57 659.65 44.63 659.94 44.65 660.04 44.65 660.33 44.62 661.09 44.48 662.11 44.19 663.07 43.85 663.71 43.64 663.95 43.56 664.16 43.54 664.22 43.55 664.34 43.58 664.48 43.63 664.69 43.72 665.21 44.03 665.54 44.27 665.68 44.4 665.83 44.5 665.96 44.57 667.67 45.22 667.76 45.24 667.94 45.27 668.13 45.28 668.16 45.28 668.37 45.21 668.51 45.15 669.55 44.55 669.7 44.5 669.85 44.44 670.12 44.41 670.24 44.41 670.34 44.42 670.36 44.43 670.64 44.52 670.89 44.67 671.14 44.86 671.35 45.04 671.54 45.3 671.63 45.57 671.63 45.77 671.57 45.88 671.03 46.46 670.75 46.83 670.7 46.91 670.62 47.06 670.53 47.24 670.5 47.3 670.3 47.82 670.3 47.84 670.28 47.88 670.2 48.15 669.89 49.34 669.82 49.61 669.77 49.87 669.65 50.56 669.59 51.1 669.56 51.58 669.57 51.77 669.6 51.94 669.66 52.22 669.74 52.55 669.77 52.78 669.78 53.11 669.78 53.12 669.77 53.18 669.72 53.44 669.52 54.3 669.5 54.43 669.49 54.55 669.48 54.69 669.53 54.9 669.56 54.99 669.63 55.1 669.81 55.29 670.1 55.51 670.85 55.95 671.01 56.07 671.08 56.11 671.22 56.3 671.33 56.48 671.37 56.57 671.42 56.79 671.43 56.92 671.38 57.3 671.32 57.5 671.24 57.75 671.04 58.14 670.76 58.57 670.4 59.15 670.26 59.41 670.18 59.6 670.06 60.04 669.91 60.65 669.69 61.51 669.5 62.13 669.37 62.58 669.35 62.68 669.35 62.85 669.38 62.94 669.39 62.96 669.45 63.04 669.56 63.12 669.69 63.17 669.82 63.2 670.47 63.31 671.02 63.37 671.37 63.37 671.55 63.32 671.74 63.26 671.85 63.2 672.04 63.09 672.28 62.93 672.32 62.91 672.43 62.83 672.58 62.78 672.68 62.75 672.85 62.73 672.96 62.74 673.03 62.77 673.11 62.81 673.37 62.97 673.55 63.11 673.73 63.3 673.82 63.38 674.03 63.56 674.12 63.63 674.27 63.72 674.39 63.78 674.62 63.87 674.72 63.9 674.89 63.92 675.08 63.95 675.31 63.97 675.58 64.03 675.69 64.07 675.84 64.15 676.24 64.44 676.42 64.65 676.55 64.84 676.59 64.91 676.69 65.13 676.73 65.27 676.75 65.35 676.85 65.76 676.9 65.87 676.98 66.02 677.11 66.18 677.26 66.28 677.55 66.41 677.75 66.47 678.14 66.56 678.7 66.64 678.93 66.66 679.09 66.64 679.29 66.59 679.3 66.59 679.42 66.52 679.55 66.42 679.63 66.32 679.69 66.18 679.77 65.89 679.84 65.72 679.92 65.59 680.04 65.49 680.14 65.44 680.27 65.41 680.37 65.42 680.46 65.44 680.5 65.46 680.62 65.53 680.74 65.68 680.8 65.78 680.81 65.8 680.93 66.06 681.11 66.51 681.18 66.66 681.22 66.77 681.22 66.89 681.21 66.98 681.16 67.08 680.89 67.46 680.83 67.56 680.63 67.87 680.52 68.08 680.43 68.3 680.4 68.49 680.39 68.65 680.4 68.72 680.45 69.01 680.5 69.11 680.62 69.31 680.87 69.46 681.08 69.55 681.32 69.61 681.54 69.64 681.74 69.65 682.16 69.64 682.45 69.61 682.61 69.57 682.8 69.51 682.99 69.44 683.21 69.32 683.77 68.99 684.23 68.76 684.43 68.68 684.45 68.67 684.57 68.64 684.65 68.62 684.84 68.61 685.01 68.64 685.11 68.67 685.24 68.74 685.34 68.82 685.46 68.99 685.53 69.13 685.59 69.37 685.6 69.45 685.61 69.56 685.61 69.86 685.58 70.33 685.57 71.13 685.58 71.24 685.62 71.44 685.72 71.75 685.78 71.9 685.92 72.21 686.04 72.46 686.06 72.48 686.24 72.76 686.56 73.17 687.09 73.79 687.42 74.16 687.49 74.25 687.68 74.52 687.84 74.83 687.95 75.08 688.33 76.34 688.46 76.74 688.57 77.01 688.66 77.19 688.72 77.3 688.83 77.48 689.11 77.87 689.43 78.29 689.56 78.46 689.7 78.69 689.89 79.06 689.99 79.34 690.12 79.78 690.17 79.93 690.22 80.09 690.37 80.44 690.51 80.74 690.53 80.76 691.46 82.38 691.94 83.09 692.16 83.4 692.22 83.48 692.33 83.62 692.6 83.94 692.73 84.13 692.83 84.31 692.94 84.53 693.01 84.7 693.08 84.92 693.18 85.28 693.18 85.32 693.24 85.48 693.42 85.82 693.68 86.25 693.82 86.44 694.55 87.41 694.64 87.53 694.98 87.99 695.18 88.29 696.07 89.65 696.55 90.43 696.88 90.95 697.02 91.19 697.11 91.4 697.2 91.67 697.22 91.81 697.27 92.2 697.3 92.36 697.36 92.57 697.46 92.82 697.61 93.19 697.78 93.47 697.95 93.68 698.05 93.77 698.17 93.87 699.05 94.44 699.29 94.61 699.57 94.84 699.72 95.01 699.88 95.29 699.93 95.4 700.02 95.58 700.04 95.62 700.13 95.82 700.21 96.04 700.3 96.28 700.59 97.15 700.68 97.39 700.83 97.76 700.95 98.04 701.03 98.19 701.11 98.34 701.24 98.53 701.8 99.3 702.42 100.11 703.79 101.89 704.04 102.23 704.3 102.69 704.44 102.96 704.72 103.56 705.17 104.46 705.33 104.74 705.44 104.91 705.56 105.09 705.79 105.36 706.16 105.66 706.38 105.79 706.68 106.01 707.01 106.27 707.5 106.7 708.16 107.46 708.56 108.01 708.78 108.31 709.15 108.62 709.35 108.99 709.45 109.27 709.47 109.43 709.46 109.66 709.42 109.92 709.19 110.5 709.16 110.62 709.16 110.78 709.18 110.84 709.27 110.99 709.58 111.2 710.72 111.79 711.04 111.99 711.89 112.59 712.42 112.99 712.78 113.5 713.45 114.51 713.82 115.13 714.47 116.31 714.59 116.55 715.22 117.93 715.3 118.08 717 121.04 717.11 121.22 717.89 122.37 718.64 123.46 719.61 124.73 720.64 126.16 721.55 127.41 722.19 128.27 724.53 131.49 725.13 132.34 726.73 134.84 727.23 135.62 728.06 136.89 728.47 137.45 728.59 137.6 728.88 137.89 729.48 138.57 729.67 138.82 729.98 139.29 730.7 140.48 731.48 141.67 732.87 143.68 734.03 145.44 735 146.82 735.96 148.19 737.72 150.8 739.78 153.74 740.74 155.18 741.31 156.01 742.18 157.25 749.64 168.27 749.76 168.44 757.65 180.08 758.35 181.18 759.23 182.49 760.31 183.97 761.5 185.62 763.05 187.92 765.56 191.61 766.21 192.53 767.63 194.7 768.3 195.64 769.17 196.83 770.03 198.11 770.8 199.19 771.76 200.52 772.42 201.49 773.41 202.89 774.2 203.97 774.34 204.19 774.8 204.93 775.18 205.52 776.8 207.9 778.27 210.14 778.38 210.29 779.65 211.89 779.76 212.06 779.8 212.18 779.8 212.26 779.8 212.38 779.76 212.54 779.68 212.77 779.6 212.95 779.52 213.15 779.51 213.41 779.51 213.43 779.53 213.64 779.56 213.7 779.57 213.74 779.58 213.78 779.65 213.98 779.69 213.99 780.23 214.27 780.42 214.49 780.48 214.57 780.6 214.84 780.65 214.98 780.83 215.77 781.5 218.23 781.88 219.51 781.97 219.8 782.29 220.66 782.48 221.24 782.55 221.52 782.99 223.49 783.37 225.08 783.57 225.76 784.16 227.79 784.71 229.78 784.91 230.56 785.1 231.4 785.25 232.01 785.44 232.66 785.74 233.55 785.87 233.97 785.98 234.36 786.28 235.55 786.59 236.54 786.86 237.42 787.25 238.83 787.49 239.85 788.11 242.26 788.36 243.38 788.47 243.93 788.52 244.08 788.94 245.16 789.1 245.54 789.17 245.72 789.49 246.92 789.96 248.85 790.23 249.86 790.73 251.61 791.57 254.69 792.28 257.2 792.71 258.88 793.71 263.01 794.48 266.07 794.75 267.09 795.63 270.11 796.54 273.6 796.6 273.82 796.83 274.69 797.15 275.75 797.52 277.24 797.72 277.9 797.9 278.53 797.92 278.61 797.99 279 798.03 279.47 798.01 279.94 797.97 280.33 797.89 280.78 797.76 281.75 797.7 282.38 797.51 285.05 797.2 287.86 796.79 292.37 796.61 294.15 796.34 297.61 796.16 299.64 796.07 300.4 795.8 305.69 795.71 306.31 795.62 306.79 795.42 307.73 795.32 308.24 795.28 308.62 795.33 309 795.36 309.11 795.45 309.42 795.53 309.66 795.86 310.47 796.14 311.31 796.29 311.91 796.68 313.41 797.08 315.06 797.57 316.76 797.68 317.11 798.02 318.05 798.62 319.72 798.8 320.36 799 321.34 798.88 321.35 798.87 321.39 798.87 321.44 798.79 321.65 798.67 321.97 798.49 322.26 798.23 322.64 797.75 323.06 797.26 323.34 796.32 323.77 796 323.9 795.88 323.9 795.8 323.88 795.75 323.82 795.68 323.69 795.63 323.56 795.54 323.46 795.44 323.4 795.35 323.39 795.25 323.41 794.6 323.64 794.4 323.72 794.31 323.8 794.2 323.93 794.14 324.1 793.93 324.5 793.88 324.65 793.8 324.74 793.68 324.82 790.56 326.06 788.84 326.75 785.46 328 783.06 328.91 781.06 329.77 779.63 330.41 779.37 330.43 779.13 330.41 778.87 330.22 778.86 330.18 778.85 330.06 778.85 329.94 778.88 329.82 778.94 329.69 778.96 329.56 778.96 329.48 778.93 329.41 778.87 329.32 778.75 329.14 778.43 329.17 778.39 329.26 778.35 329.37 778.31 329.48 778.27 329.51 778.23 329.51 778.19 329.51 778.12 329.49 778.05 329.44 777.97 329.36 777.87 329.29 777.77 329.19 777.66 329.12 777.55 329.11 777.44 329.18 777.37 329.3 777.24 329.47 777.18 329.61 777.13 329.71 777.05 329.81 776.9 329.98 776.73 330.11 776.58 330.22 776.53 330.26 776.29 330.43 773.8 331.35 773.47 331.47 773.15 331.58 770.28 332.62 766.08 334.39 765.08 334.81 764.25 335.25 763.95 335.32 763.78 335.33 763.69 335.33 763.68 335.33 763.54 335.27 763.44 335.16 763.3 334.97 763.17 334.78 763.04 334.61 762.97 334.53 762.73 334.17 762.58 333.95 762.39 333.72 762.19 333.57 762.06 333.47 761.89 333.42 761.69 333.41 761.34 333.46 760.92 333.55 759.97 333.9 759.54 334.13 759.14 334.41 758.86 334.57 758.68 334.64 758.55 334.65 758.41 334.63 758.27 334.54 758.14 334.35 757.89 334.47 757.85 334.67 757.84 334.82 757.84 334.98 757.87 335.2 757.93 335.44 758.09 335.83 758.14 336.02 758.15 336.13 758.1 336.27 757.99 336.42 757.85 336.54 757.62 336.8 757.61 336.82 757.46 336.99 757 337.39 756.82 337.73 756.69 338.07 756.56 338.36 756.4 338.54 756.26 338.61 755.82 338.74 755.79 338.75 755.6 338.79 755.49 338.82 755.43 338.82 755.35 338.79 755.31 338.76 755.25 338.67 755.21 338.57 755.2 338.43 755.16 338.31 755.08 338.2 754.96 338.12 754.73 338.05 754.64 338.05 754.4 338.23 754.47 338.42 754.8 339.04 754.83 339.19 754.83 339.27 754.83 339.27 754.83 339.28 754.81 339.36 754.75 339.45 754.66 339.52 754.58 339.59 754.43 339.64 754.3 339.67 754.15 339.68 753.99 339.67 753.96 339.66 753.85 339.63 753.83 339.62 753.73 339.55 753.63 339.49 753.48 339.43 753.36 339.45 753.25 339.48 753.13 339.5 752.98 339.51 752.87 339.48 752.65 339.39 752.52 339.5 752.52 339.6 752.5 339.65 752.45 339.73 752.39 339.8 752.33 339.89 752.31 339.94 752.3 339.99 752.33 340.09 752.39 340.19 752.49 340.31 752.53 340.35 752.64 340.49 752.67 340.56 752.67 340.63 752.68 340.67 752.65 340.73 752.59 340.82 752.59 340.82 751.7 341.35 751.4 341.39 751.25 341.37 750.96 341.06 750.93 341.01 749.95 339.62 749.8 339.5 749.36 338.99 749.06 338.73 748.87 338.59 748.77 338.53 748.69 338.5 748.6 338.5 748.44 338.49 748.37 338.5 748.29 338.53 748.25 338.56 748.17 338.65 748.14 338.74 748.13 338.88 748.15 339.09 748.14 339.27 748.04 339.61 748.03 339.65 747.93 340.07 747.88 340.59 747.87 340.93 747.79 341.16 747.67 341.34 747.58 341.45 747.38 341.62 747.02 341.74 743.67 343.07 741.88 343.85 739.53 344.85 737.38 345.66 736.06 346.13 735.79 346.3 735.65 346.46 735.6 346.59 735.52 346.71 735.24 346.98 734.72 347.35 734.65 347.4 733.57 348.1 731.36 349.6 730.54 350.09 729.77 350.54 728.94 351.08 728.82 351.17 728.67 351.35 728.62 351.45 728.45 351.66 728.31 351.87 728.15 352.08 727.94 352.19 727.58 352.33 727.29 352.38 727.08 352.41 726.86 352.46 726.33 352.6 725.78 352.69 725.57 352.74 725.09 352.89 724.72 353.07 723.97 353.6 722.32 354.92 718.53 357.78 717.05 358.86 716.89 358.99 716.79 359.16 716.7 359.45 716.64 359.61 716.63 359.63 716.58 359.71 714.88 361.34 713.58 362.53 713.05 363.11 712.79 363.27 712.14 363.79 711.9 364.11 711.63 364.38 710.85 364.83 710.59 365.07 710.51 365.32 710.43 365.61 710.1 367.02 709.9 367.42 708.67 369.1 708.17 369.6 707.66 370.08 706.93 370.69 705.88 371.38 705.53 371.52 705.2 371.6 704.83 371.65 704.47 371.67 704.22 371.67 703.91 371.62 703.72 371.47 703.6 371.36 703.46 371.22 703.19 371.05 702.89 370.91 702.62 370.89 702.32 370.95 701.88 371.14 701.57 371.39 701.34 371.64 701.24 371.9 701.2 372.09 701.2 372.32 701.33 372.58 701.41 372.81 701.38 372.95 701.32 373.15 701.06 373.55 700.91 373.73 700.73 373.88 700.53 373.9 700.17 373.9 699.94 373.77 699.62 373.58 699.29 373.46 698.97 373.39 698.6 373.45 698.3 373.64 698.06 373.87 697.88 374.14 697.77 374.42 697.55 374.66 697.21 374.96 696.88 375.26 696.25 375.84 695.8 376.16 695.39 376.41 694.58 376.76 694.22 376.83 693.97 376.88 693.53 376.85 693.01 376.78 692.39 377.35 692.75 377.8 692.89 378.12 692.92 378.34 692.93 378.51 692.93 378.6 692.89 378.76 692.88 378.77 692.79 378.92 692.73 379.04 692.61 379.15 692.1 379.36 691.93 379.46 691.65 379.58 691.28 379.67 690.57 379.65 690.06 379.65 689.69 379.76 689.42 380.05 689.36 380.11 689.24 380.29 689.21 380.6 689.28 380.99 689.36 381.22 689.34 381.5 689.3 381.74 689.21 382.14 688.97 383.12 688.9 383.41 688.88 383.8 688.88 384.33 688.65 384.92 Z" id="1"/>
</g>
</svg>